<svg id="Component_29_1" data-name="Component 29 – 1" xmlns="http://www.w3.org/2000/svg" width="35.225" height="35.225" viewBox="0 0 35.225 35.225">
  <circle id="Ellipse_89" data-name="Ellipse 89" cx="17.612" cy="17.612" r="17.612" fill="#ff9002"/>
  <g id="Group_1224" data-name="Group 1224" transform="translate(-827.775 -1155.014)">
    <g id="Group_1223" data-name="Group 1223">
      <g id="Group_1222" data-name="Group 1222">
        <path id="Path_2616" data-name="Path 2616" d="M845.388,1166.306c2.058,0,2.3.008,3.114.045a4.242,4.242,0,0,1,1.431.266,2.365,2.365,0,0,1,.886.576,2.4,2.4,0,0,1,.577.886,4.272,4.272,0,0,1,.266,1.432c.036.812.045,1.056.045,3.114s-.009,2.3-.045,3.115a4.27,4.27,0,0,1-.266,1.431,2.559,2.559,0,0,1-1.463,1.463,4.274,4.274,0,0,1-1.431.265c-.813.037-1.056.045-3.114.045s-2.3-.008-3.115-.045a4.274,4.274,0,0,1-1.431-.265,2.558,2.558,0,0,1-1.463-1.463,4.277,4.277,0,0,1-.265-1.431c-.037-.813-.045-1.057-.045-3.115s.008-2.3.045-3.114a4.279,4.279,0,0,1,.265-1.432,2.4,2.4,0,0,1,.577-.886,2.365,2.365,0,0,1,.886-.576,4.242,4.242,0,0,1,1.431-.266c.813-.037,1.057-.045,3.115-.045m0-1.389c-2.094,0-2.356.009-3.178.047a5.654,5.654,0,0,0-1.871.358,3.942,3.942,0,0,0-2.254,2.254,5.662,5.662,0,0,0-.359,1.871c-.037.822-.046,1.085-.046,3.178s.009,2.356.046,3.178a5.662,5.662,0,0,0,.359,1.871,3.942,3.942,0,0,0,2.254,2.254,5.654,5.654,0,0,0,1.871.358c.822.038,1.084.047,3.178.047s2.355-.009,3.177-.047a5.654,5.654,0,0,0,1.871-.358,3.947,3.947,0,0,0,2.255-2.254,5.693,5.693,0,0,0,.358-1.871c.037-.822.046-1.085.046-3.178s-.009-2.356-.046-3.178a5.693,5.693,0,0,0-.358-1.871,3.947,3.947,0,0,0-2.255-2.254,5.654,5.654,0,0,0-1.871-.358c-.822-.038-1.084-.047-3.177-.047" fill="#fff"/>
        <path id="Path_2617" data-name="Path 2617" d="M845.388,1168.667a3.958,3.958,0,1,0,3.958,3.958,3.958,3.958,0,0,0-3.958-3.958m0,6.527a2.569,2.569,0,1,1,2.569-2.569,2.57,2.57,0,0,1-2.569,2.569" fill="#fff"/>
        <path id="Path_2618" data-name="Path 2618" d="M850.427,1168.511a.925.925,0,1,1-.925-.925.925.925,0,0,1,.925.925" fill="#fff"/>
      </g>
    </g>
  </g>
</svg>
