<svg id="Component_2_1" data-name="Component 2 – 1" xmlns="http://www.w3.org/2000/svg" width="40.167" height="40.167" viewBox="0 0 40.167 40.167">
  <circle id="Ellipse_1" data-name="Ellipse 1" cx="20.083" cy="20.083" r="20.083" fill="#ff9002"/>
  <g id="Group_43" data-name="Group 43" transform="translate(-112.416 -64.662)">
    <path id="Path_63" data-name="Path 63" d="M138.46,87.295a2.021,2.021,0,0,0-1.465-.672,2.084,2.084,0,0,0-1.481.668l-1.369,1.365c-.113-.061-.226-.117-.334-.174-.156-.078-.3-.151-.429-.229A14.9,14.9,0,0,1,129.816,85a8.762,8.762,0,0,1-1.17-1.846c.355-.325.685-.663,1.005-.988.122-.121.243-.247.364-.368a1.987,1.987,0,0,0,0-3l-1.183-1.183c-.134-.135-.273-.273-.4-.412-.259-.268-.533-.546-.814-.806a2.051,2.051,0,0,0-1.452-.637,2.122,2.122,0,0,0-1.473.637l-.008.009L123.208,77.9a3.178,3.178,0,0,0-.94,2.015,7.594,7.594,0,0,0,.555,3.215,18.672,18.672,0,0,0,3.314,5.529,20.4,20.4,0,0,0,6.79,5.316A10.6,10.6,0,0,0,136.74,95.1c.091,0,.186.008.273.008a3.262,3.262,0,0,0,2.5-1.075c0-.008.013-.012.017-.021a9.73,9.73,0,0,1,.758-.784c.187-.178.377-.364.564-.559a2.164,2.164,0,0,0,.654-1.5,2.082,2.082,0,0,0-.667-1.486Zm1.551,4.562s0,0,0,0c-.169.183-.342.347-.529.529a11.53,11.53,0,0,0-.836.867,2.087,2.087,0,0,1-1.629.689c-.065,0-.134,0-.2-.005a9.392,9.392,0,0,1-3.38-1.014,19.241,19.241,0,0,1-6.4-5.008,17.61,17.61,0,0,1-3.12-5.195,6.188,6.188,0,0,1-.485-2.713,1.987,1.987,0,0,1,.6-1.287l1.477-1.477a.989.989,0,0,1,.659-.308.928.928,0,0,1,.633.3l.013.012c.264.248.515.5.78.776.134.139.272.277.411.42l1.183,1.183a.828.828,0,0,1,0,1.344c-.126.125-.247.251-.373.372-.364.373-.71.719-1.087,1.057-.009.009-.018.013-.022.022a.882.882,0,0,0-.225.983l.013.04a9.49,9.49,0,0,0,1.4,2.283l0,0a15.893,15.893,0,0,0,3.847,3.5,5.757,5.757,0,0,0,.533.29c.156.078.3.152.429.23.017.009.035.022.052.03a.884.884,0,0,0,1.088-.19l1.481-1.482a.985.985,0,0,1,.655-.325.886.886,0,0,1,.624.316l.008.009,2.388,2.387a.857.857,0,0,1,0,1.356Zm0,0" fill="#fff"/>
    <path id="Path_64" data-name="Path 64" d="M133.33,79.461A5.578,5.578,0,0,1,137.871,84a.58.58,0,0,0,.576.485.841.841,0,0,0,.1-.008.586.586,0,0,0,.48-.676,6.742,6.742,0,0,0-5.493-5.494.587.587,0,0,0-.676.476.577.577,0,0,0,.472.676Zm0,0" fill="#fff"/>
    <path id="Path_65" data-name="Path 65" d="M142.741,83.634a11.1,11.1,0,0,0-9.047-9.047.584.584,0,1,0-.191,1.152,9.916,9.916,0,0,1,8.085,8.086.582.582,0,0,0,.576.485.845.845,0,0,0,.1-.009.575.575,0,0,0,.477-.667Zm0,0" fill="#fff"/>
  </g>
</svg>
