<svg xmlns="http://www.w3.org/2000/svg" width="36.855" height="25.117" viewBox="0 0 36.855 25.117">
  <g id="Group_88" data-name="Group 88" transform="translate(-1013.351 -855.426)">
    <g id="Group_87" data-name="Group 87">
      <path id="Path_133" data-name="Path 133" d="M1036.289,875.662a.552.552,0,0,1-.552-.552V860.519a.552.552,0,1,1,1.1,0V875.11A.552.552,0,0,1,1036.289,875.662Z" fill="#fff"/>
      <path id="Path_134" data-name="Path 134" d="M1023.7,880.293a4.336,4.336,0,1,1,4.336-4.336A4.341,4.341,0,0,1,1023.7,880.293Zm0-7.568a3.232,3.232,0,1,0,3.232,3.232A3.236,3.236,0,0,0,1023.7,872.725Z" fill="#fff"/>
      <path id="Path_135" data-name="Path 135" d="M1023.7,878a2.04,2.04,0,1,1,2.04-2.04A2.041,2.041,0,0,1,1023.7,878Zm0-2.975a.936.936,0,1,0,.936.935A.936.936,0,0,0,1023.7,875.022Z" fill="#fff"/>
      <path id="Path_136" data-name="Path 136" d="M1042.186,878a2.04,2.04,0,1,1,2.04-2.04A2.042,2.042,0,0,1,1042.186,878Zm0-2.975a.936.936,0,1,0,.936.935A.936.936,0,0,0,1042.186,875.022Z" fill="#fff"/>
      <path id="Path_137" data-name="Path 137" d="M1042.186,880.293a4.336,4.336,0,1,1,4.336-4.336A4.341,4.341,0,0,1,1042.186,880.293Zm0-7.568a3.232,3.232,0,1,0,3.232,3.232A3.236,3.236,0,0,0,1042.186,872.725Z" fill="#fff"/>
      <path id="Path_138" data-name="Path 138" d="M1048.337,875.662h-2.47a.551.551,0,0,1-.538-.429,3.223,3.223,0,0,0-6.285,0,.553.553,0,0,1-.539.429h-11.128a.553.553,0,0,1-.538-.429,3.223,3.223,0,0,0-6.285,0,.553.553,0,0,1-.539.429h-4.8a.552.552,0,0,1-.552-.552v-8.085a.552.552,0,1,1,1.1,0v7.533h3.827a4.327,4.327,0,0,1,8.195,0h10.3a4.326,4.326,0,0,1,8.194,0h1.5v-7l-3.53-6.49h-7.966a.551.551,0,0,1-.552-.552V856.53H1026.7a.552.552,0,0,1,0-1.1h9.59a.552.552,0,0,1,.552.552v3.989h7.742a.552.552,0,0,1,.485.289l3.754,6.9a.554.554,0,0,1,.067.264v7.689A.552.552,0,0,1,1048.337,875.662Z" fill="#fff"/>
      <path id="Path_139" data-name="Path 139" d="M1048.337,867.973h-8.776a.552.552,0,0,1-.552-.552v-5.07a.552.552,0,0,1,.55-.552l6.009-.017a.553.553,0,0,1,.487.288l2.767,5.087a.553.553,0,0,1-.485.816Zm-8.224-1.1h7.295l-2.166-3.982-5.129.015Z" fill="#fff"/>
      <path id="Path_140" data-name="Path 140" d="M1022.769,869.293a6.033,6.033,0,1,1,6.033-6.032A6.04,6.04,0,0,1,1022.769,869.293Zm0-10.961a4.929,4.929,0,1,0,4.929,4.929A4.935,4.935,0,0,0,1022.769,858.332Z" fill="#fff"/>
      <path id="Path_141" data-name="Path 141" d="M1022.7,865.858a.553.553,0,0,1-.377-.149l-2.79-2.607a.552.552,0,0,1,.754-.807l2.3,2.149,2.426-3.891a.552.552,0,1,1,.937.584l-2.781,4.461a.553.553,0,0,1-.4.255A.582.582,0,0,1,1022.7,865.858Z" fill="#fff"/>
      <path id="Path_142" data-name="Path 142" d="M1015.808,860.051h-1.1a.552.552,0,0,1,0-1.1h1.1a.552.552,0,0,1,0,1.1Z" fill="#fff"/>
      <path id="Path_143" data-name="Path 143" d="M1015.808,856.531h-1.1a.552.552,0,0,1,0-1.1h1.1a.552.552,0,0,1,0,1.1Z" fill="#fff"/>
      <path id="Path_144" data-name="Path 144" d="M1015.808,864.365h-1.1a.552.552,0,0,1,0-1.1h1.1a.552.552,0,0,1,0,1.1Z" fill="#fff"/>
      <path id="Path_145" data-name="Path 145" d="M1036.289,872.725H1015.22a.552.552,0,0,1,0-1.1h21.069a.552.552,0,0,1,0,1.1Z" fill="#fff"/>
      <path id="Path_146" data-name="Path 146" d="M1033.574,869.293a.551.551,0,0,1-.552-.552V858.219a.552.552,0,1,1,1.1,0v10.522A.551.551,0,0,1,1033.574,869.293Z" fill="#fff"/>
      <path id="Path_147" data-name="Path 147" d="M1049.653,880.543H1013.9a.552.552,0,0,1,0-1.1h35.75a.552.552,0,1,1,0,1.1Z" fill="#fff"/>
    </g>
  </g>
</svg>
