<svg id="Component_21_3" data-name="Component 21 – 3" xmlns="http://www.w3.org/2000/svg" width="45.112" height="45.112" viewBox="0 0 45.112 45.112">
  <rect id="Rectangle_66" data-name="Rectangle 66" width="45.112" height="45.112" rx="22.556" fill="#ff9002"/>
  <path id="Path_72" data-name="Path 72" d="M753.83,7470.97c-10.648,0-10.835.947-10.835,8.343s.187,8.343,10.835,8.343,10.835-.947,10.835-8.343S764.479,7470.97,753.83,7470.97Zm3.453,8.889-4.889,2.363a.592.592,0,0,1-.85-.533v-4.619a.592.592,0,0,1,.84-.537l4.889,2.255a.576.576,0,0,1,.329.427.239.239,0,0,1,.009.151A.578.578,0,0,1,757.283,7479.859Z" transform="translate(-731.273 -7456.734)" fill="#fff"/>
</svg>
