<svg xmlns="http://www.w3.org/2000/svg" width="35.432" height="44.675" viewBox="0 0 35.432 44.675">
  <g id="Group_1187" data-name="Group 1187" transform="translate(-1000.568 -633.574)">
    <g id="Group_1185" data-name="Group 1185">
      <path id="Path_2558" data-name="Path 2558" d="M1018.283,678.249a1.25,1.25,0,0,1-.707-.218c-.7-.47-17.008-11.7-17.008-26.742a17.716,17.716,0,0,1,35.432,0c0,14.777-16.3,26.254-17,26.735A1.26,1.26,0,0,1,1018.283,678.249Zm0-42.153a15.21,15.21,0,0,0-15.193,15.193c0,12,12.088,21.818,15.185,24.137,3.095-2.359,15.2-12.346,15.2-24.137A15.211,15.211,0,0,0,1018.283,636.1Z" fill="#fff"/>
    </g>
    <g id="Group_1186" data-name="Group 1186">
      <path id="Path_2559" data-name="Path 2559" d="M1018.485,660.554a8.938,8.938,0,1,1,2.312-17.571,1.261,1.261,0,0,1-.65,2.437,6.443,6.443,0,0,0-6.2,1.661,6.417,6.417,0,0,0,9.075,9.076,6.438,6.438,0,0,0,1.662-6.2,1.261,1.261,0,0,1,2.436-.652,8.935,8.935,0,0,1-8.635,11.249Z" fill="#fff"/>
    </g>
  </g>
</svg>
