<svg xmlns="http://www.w3.org/2000/svg" width="60.027" height="63.425" viewBox="0 0 60.027 63.425">
  <path id="Path_170" data-name="Path 170" d="M291.443,7101.946a1.362,1.362,0,0,0-2.108,1.724l.855,1.046a1.361,1.361,0,1,0,2.108-1.723Zm4.393-3.235a1.362,1.362,0,0,0-1.971,1.881l.93.975a1.362,1.362,0,0,0,1.971-1.881Zm5.74-3.205a1.362,1.362,0,0,0-1.852,2l1.326,1.233a1.362,1.362,0,1,0,1.851-2Zm6.431-2.077a1.36,1.36,0,1,0-1.961,1.885l1.4,1.458a1.361,1.361,0,1,0,1.961-1.888Zm6.764-1.588a1.357,1.357,0,1,0-2,1.832l.8.87a1.357,1.357,0,1,0,2-1.831Zm7.591.348a1.359,1.359,0,1,0-1.852,1.989l1.831,1.706a1.36,1.36,0,0,0,1.852-1.993Zm-.643,6.074a1.36,1.36,0,1,0-1.852,1.992l1.111,1.036a1.36,1.36,0,1,0,1.853-1.991ZM316,7100.725a1.358,1.358,0,1,0-1.743,2.082l1.715,1.434a1.357,1.357,0,1,0,1.742-2.081Zm-5.659,3.217a1.362,1.362,0,0,0-2.045,1.8l1.211,1.375a1.362,1.362,0,0,0,2.044-1.8Zm-5.285,3.143a1.36,1.36,0,1,0-1.976,1.869l1.213,1.284a1.36,1.36,0,0,0,1.975-1.87Zm-6.153,2.139a1.36,1.36,0,0,0-2.131,1.691l1.066,1.343a1.36,1.36,0,1,0,2.129-1.694Zm-2.322-4.477a1.361,1.361,0,0,0-2.131,1.693l1.065,1.342a1.361,1.361,0,0,0,2.13-1.693Zm5.323-2.729a1.359,1.359,0,1,0-1.975,1.867l1.212,1.283a1.359,1.359,0,1,0,1.976-1.867Zm6.656-3.046a1.362,1.362,0,1,0-2.045,1.8l1.212,1.372a1.361,1.361,0,1,0,2.044-1.8Zm6.844-2.931a1.357,1.357,0,1,0-1.743,2.08l.857.719a1.358,1.358,0,1,0,1.743-2.082Zm-16.629-.675c-9.339,4.4-16.971,11.438-19.828,19.95a133.03,133.03,0,0,0,14.484-1.1,1.341,1.341,0,0,1-.688-.447l-.894-1.085a1.357,1.357,0,0,1,2.1-1.724l.894,1.084a1.358,1.358,0,0,1-.186,1.911,1.3,1.3,0,0,1-.153.11,64.437,64.437,0,0,0,19.457-5.635c8.017-4.008,13.013-9.707,15.45-16.942C319.611,7089.167,308.32,7090.874,298.779,7095.366Zm-17.668,22.053A32.838,32.838,0,0,0,328,7099.282a32.97,32.97,0,0,1-13.071,11.085C306.752,7114.458,295.624,7116.86,281.111,7117.419Zm50.769-26.592a35.006,35.006,0,0,1-55,26.517l-.022-.014-.006-.006-.015-.01-.008-.006-.013-.009-.01-.009-.011-.007-.01-.009-.01-.007-.011-.011-.008-.007-.013-.011-.007-.007-.013-.012-.006-.006-.014-.012,0-.006-.015-.014,0,0-.015-.016,0,0-.015-.016,0,0-.015-.018,0,0-.014-.018,0,0-.014-.018,0,0-.014-.02h0l-.014-.022h0l-.014-.021h0l-.013-.024h0l-.025-.044v0l-.012-.022h0l-.011-.025h0l-.01-.023h0a1.1,1.1,0,0,1-.092-.421v-.088h0v-.027h0v-.009a1.193,1.193,0,0,1,.031-.175l.01-.044c2.648-9.777,11.044-17.832,21.414-22.712,10.319-4.856,22.627-6.588,33.166-3.756l.063.018A1.087,1.087,0,0,1,331.88,7090.827Zm-8.936-21.575c.02.033.04.065.057.1h0l.011.02v0l.008.02,0,0,.006.014.005.013,0,.009.006.018,0,0,.008.022h0l.008.023v0l.006.02,0,.008.007.026,0,.01,0,.018,0,.006,0,.021v0l.005.021v0l0,.02v.007l0,.016v.025l0,.013v.009l0,.017v.031l0,.049h0v0a26.663,26.663,0,0,1-5.51,18.142,1.087,1.087,0,0,1-1.721-1.329A24.569,24.569,0,0,0,321,7071.373a26.7,26.7,0,0,0-12.954,10.8,1.086,1.086,0,1,1-1.848-1.143,28.822,28.822,0,0,1,11.688-10.654,14.873,14.873,0,0,0-4.572.219c-2.326.541-4.329,1.943-6.022,4.827a1.086,1.086,0,1,1-1.873-1.1c2.038-3.474,4.506-5.176,7.4-5.85,2.788-.652,5.891-.312,9.371.3h0l.02,0h.007l.017,0,.008,0,.017,0,.009,0,.015,0,.011,0,.013,0,.012,0,.011,0,.015.005.009,0,.016,0,.006,0,.018,0,.005,0,.019.007h0l.02.011h0l.044.018,0,0a1.023,1.023,0,0,1,.136.076l0,0,.018.013h0l.018.012,0,0,.017.011,0,0,.016.011,0,.007.012.007.009.008.009.009.01.008.007.008.013.01,0,0,.033.034h0l.014.016,0,0,.027.032.007.007.009.011.013.018.012.014,0,0,.014.018h0l.013.019v0Zm-10.16,16.652a1.086,1.086,0,1,1-1.44-1.627,17.755,17.755,0,0,0,5.294-8.428,1.089,1.089,0,0,1,2.1.6,19.949,19.949,0,0,1-5.949,9.458Zm-34.849,24.419a1.087,1.087,0,1,1-1.942.978,36.364,36.364,0,0,1,20.7-50.744l.024-.009h0l.025-.007h0l.025-.009v0l.024,0h0l.023-.006h0l.021,0,.006,0,.02,0,.008,0,.018,0a1.04,1.04,0,0,1,.3-.007l.011,0h.015l.011,0a.669.669,0,0,1,.077.014l.015,0,.011,0,.015,0,.01,0,.015.006.01,0,.015,0,.01,0,.015,0,.01,0,.014.007.011,0,.013,0,.012.005.013.006.011,0,.012,0,.011.007.013,0,.023.014.013,0,.01.006.013.007.01.007.013.008.01,0c.021.013.043.029.064.045l.015.011.007,0,.015.011.006,0,.016.013,0,0,.017.014,0,0,.016.015,0,0,0,0,.035.034h0l.019.022.017.017a29.811,29.811,0,0,1,7.585,25.263,1.088,1.088,0,1,1-2.146-.359,27.659,27.659,0,0,0-4.386-20.1,65.961,65.961,0,0,1-.632,23.4,1.087,1.087,0,0,1-2.128-.443,63.723,63.723,0,0,0,.3-24.461,49.14,49.14,0,0,0-9.228,26.268,1.087,1.087,0,0,1-2.172-.1,51.3,51.3,0,0,1,6.127-21.851,47.987,47.987,0,0,0-12.3,32.29,1.086,1.086,0,0,1-2.172.007,50.181,50.181,0,0,1,14.113-35.1,34.187,34.187,0,0,0-12.908,44.654Zm9.86-4.148a1.36,1.36,0,0,0-2.011,1.831l1.661,1.827a1.36,1.36,0,0,0,2.012-1.831Z" transform="translate(-271.989 -7060.366)" fill="#ff9002" stroke="#ff9002" stroke-width="0.25"/>
</svg>
