<svg xmlns="http://www.w3.org/2000/svg" width="44.068" height="40.486" viewBox="0 0 44.068 40.486">
  <g id="Group_1184" data-name="Group 1184" transform="translate(-505.966 -634.611)">
    <path id="Path_2545" data-name="Path 2545" d="M543.945,674.972h-31.89a5.748,5.748,0,0,1-5.964-5.486V653.295a5.538,5.538,0,0,1,4.17-5.234l7.137-2.068a.7.7,0,0,1,.391,1.353l-7.136,2.069a4.14,4.14,0,0,0-3.153,3.88v16.191a4.34,4.34,0,0,0,4.555,4.077h31.89a4.34,4.34,0,0,0,4.555-4.077V653.295a4.139,4.139,0,0,0-3.153-3.88l-7.132-2.069a.706.706,0,0,1-.482-.872.7.7,0,0,1,.873-.481l7.133,2.068a5.536,5.536,0,0,1,4.17,5.234v16.191A5.748,5.748,0,0,1,543.945,674.972Z" fill="#fff"/>
    <path id="Path_2546" data-name="Path 2546" d="M543.945,675.1h-31.89a5.871,5.871,0,0,1-6.089-5.611V653.295a5.66,5.66,0,0,1,4.261-5.354l7.136-2.069a.824.824,0,0,1,1.027.567.832.832,0,0,1-.566,1.027l-7.137,2.069a4.018,4.018,0,0,0-3.062,3.76v16.191a4.216,4.216,0,0,0,4.43,3.952h31.89a4.216,4.216,0,0,0,4.43-3.952V653.295a4.014,4.014,0,0,0-3.063-3.76l-7.132-2.069a.832.832,0,0,1-.164-1.53.817.817,0,0,1,.626-.063l7.131,2.068a5.66,5.66,0,0,1,4.261,5.354v16.191A5.871,5.871,0,0,1,543.945,675.1ZM517.6,646.088a.59.59,0,0,0-.166.024l-7.137,2.07a5.409,5.409,0,0,0-4.08,5.113v16.191a5.621,5.621,0,0,0,5.839,5.361h31.89a5.622,5.622,0,0,0,5.839-5.361V653.295a5.409,5.409,0,0,0-4.08-5.113l-7.133-2.069a.564.564,0,0,0-.436.043.583.583,0,0,0,.115,1.07l7.132,2.069a4.261,4.261,0,0,1,3.243,4v16.191a4.466,4.466,0,0,1-4.68,4.2h-31.89a4.466,4.466,0,0,1-4.68-4.2V653.295a4.263,4.263,0,0,1,3.243-4l7.136-2.069a.582.582,0,0,0,.118-1.068A.572.572,0,0,0,517.6,646.088Z" fill="#fff"/>
    <path id="Path_2547" data-name="Path 2547" d="M522.579,664.181a.7.7,0,0,1-.46-.173l-14.863-12.88a.7.7,0,1,1,.921-1.063l14.863,12.88a.7.7,0,0,1-.461,1.236Z" fill="#fff"/>
    <path id="Path_2548" data-name="Path 2548" d="M522.58,664.306a.821.821,0,0,1-.543-.2l-14.863-12.88a.831.831,0,0,1,.478-1.454.837.837,0,0,1,.607.2l14.863,12.881a.829.829,0,0,1-.542,1.455Zm-14.865-14.29-.044,0a.582.582,0,0,0-.532.617.574.574,0,0,0,.2.4L522.2,663.914a.589.589,0,0,0,.815-.058.576.576,0,0,0-.058-.816L508.1,650.159A.577.577,0,0,0,507.715,650.016Z" fill="#fff"/>
    <path id="Path_2549" data-name="Path 2549" d="M533.424,664.181a.7.7,0,0,1-.46-1.236l14.861-12.879a.7.7,0,0,1,.921,1.063l-14.861,12.879A.7.7,0,0,1,533.424,664.181Z" fill="#fff"/>
    <path id="Path_2550" data-name="Path 2550" d="M533.424,664.306a.829.829,0,0,1-.543-1.455l14.862-12.879a.829.829,0,0,1,1.37.682.828.828,0,0,1-.286.57L533.967,664.1A.829.829,0,0,1,533.424,664.306Zm14.859-14.289a.561.561,0,0,0-.375.143l-14.863,12.88a.577.577,0,0,0-.2.4.566.566,0,0,0,.141.417.588.588,0,0,0,.816.059l14.861-12.879a.573.573,0,0,0,.2-.4.565.565,0,0,0-.14-.416.575.575,0,0,0-.4-.2Z" fill="#fff"/>
    <path id="Path_2551" data-name="Path 2551" d="M547.439,673.764a.706.706,0,0,1-.4-.123l-18.25-12.479a1.426,1.426,0,0,0-1.58,0l-18.246,12.479a.7.7,0,0,1-.8-1.163L526.416,660a2.835,2.835,0,0,1,3.17,0l18.251,12.479a.7.7,0,0,1-.4,1.286Z" fill="#fff"/>
    <path id="Path_2552" data-name="Path 2552" d="M547.439,673.889a.833.833,0,0,1-.468-.144l-18.25-12.48a1.3,1.3,0,0,0-1.44,0l-18.245,12.479a.83.83,0,1,1-.938-1.369l18.247-12.48a2.967,2.967,0,0,1,3.311,0l18.251,12.479a.83.83,0,0,1-.468,1.515ZM528,660.8a1.512,1.512,0,0,1,.859.26l18.249,12.479a.6.6,0,0,0,.806-.151.581.581,0,0,0-.151-.806L529.516,660.1a2.711,2.711,0,0,0-3.03,0l-18.247,12.479a.58.58,0,1,0,.656.957l18.245-12.479A1.532,1.532,0,0,1,528,660.8Z" fill="#fff"/>
    <path id="Path_2553" data-name="Path 2553" d="M538.3,654.744a.7.7,0,0,1-.705-.7V636.808a.617.617,0,0,0-.558-.663H518.958a.617.617,0,0,0-.558.663V654.04a.7.7,0,0,1-1.409,0V636.808a2.025,2.025,0,0,1,1.967-2.072h18.084a2.025,2.025,0,0,1,1.967,2.072V654.04A.7.7,0,0,1,538.3,654.744Z" fill="#fff"/>
    <path id="Path_2554" data-name="Path 2554" d="M538.3,654.869a.831.831,0,0,1-.83-.83V636.808a.5.5,0,0,0-.433-.538H518.958a.5.5,0,0,0-.433.538v17.231a.829.829,0,1,1-1.659,0V636.808a2.149,2.149,0,0,1,2.092-2.2h18.084a2.149,2.149,0,0,1,2.092,2.2v17.231A.83.83,0,0,1,538.3,654.869ZM518.958,636.02h18.084a.742.742,0,0,1,.683.788v17.231a.579.579,0,1,0,1.159,0V636.808a1.9,1.9,0,0,0-1.842-1.947H518.958a1.9,1.9,0,0,0-1.842,1.947v17.231a.579.579,0,1,0,1.159,0V636.808A.742.742,0,0,1,518.958,636.02Z" fill="#fff"/>
    <rect id="Rectangle_220" data-name="Rectangle 220" width="14.254" height="1.41" rx="0.705" transform="translate(520.873 639.356)" fill="#fff"/>
    <path id="Path_2555" data-name="Path 2555" d="M534.422,640.89H521.578a.829.829,0,1,1,0-1.659h12.844a.829.829,0,1,1,0,1.659Zm-12.844-1.409a.579.579,0,1,0,0,1.159h12.844a.579.579,0,1,0,0-1.159Z" fill="#fff"/>
    <rect id="Rectangle_221" data-name="Rectangle 221" width="14.254" height="1.41" rx="0.705" transform="translate(520.873 644.74)" fill="#fff"/>
    <path id="Path_2556" data-name="Path 2556" d="M534.422,646.275H521.578a.83.83,0,0,1,0-1.66h12.844a.83.83,0,0,1,0,1.66Zm-12.844-1.41a.58.58,0,0,0,0,1.16h12.844a.58.58,0,0,0,0-1.16Z" fill="#fff"/>
    <rect id="Rectangle_222" data-name="Rectangle 222" width="14.254" height="1.41" rx="0.705" transform="translate(520.873 649.448)" fill="#fff"/>
    <path id="Path_2557" data-name="Path 2557" d="M534.422,650.983H521.578a.83.83,0,1,1,0-1.66h12.844a.83.83,0,1,1,0,1.66Zm-12.844-1.41a.58.58,0,1,0,0,1.16h12.844a.58.58,0,1,0,0-1.16Z" fill="#fff"/>
  </g>
</svg>
