<svg xmlns="http://www.w3.org/2000/svg" width="73.524" height="65.662" viewBox="0 0 73.524 65.662">
  <g id="Group_110" data-name="Group 110" transform="translate(-1026.238 -7062.352)">
    <path id="Path_160" data-name="Path 160" d="M1091.965,7112.409a1.48,1.48,0,1,1-1.48-1.481,1.481,1.481,0,0,1,1.48,1.481Zm0,0" fill="#ff9002"/>
    <path id="Path_161" data-name="Path 161" d="M1035.6,7112.409a1.48,1.48,0,1,1-1.48-1.481,1.481,1.481,0,0,1,1.48,1.481Zm0,0" fill="#ff9002"/>
    <path id="Path_162" data-name="Path 162" d="M1034.125,7108.262a1.481,1.481,0,0,0,1.48-1.48v-8.4a11.935,11.935,0,0,1,11.126-11.7,16.061,16.061,0,0,0-1.4,6.571v14.35a8.132,8.132,0,0,0,7.737,8.016v10.252h2.961V7093.75a1.481,1.481,0,1,0-2.961,0v18.9a5.159,5.159,0,0,1-4.775-5.047v-14.35a13.15,13.15,0,0,1,2.155-7.214,14.256,14.256,0,0,1,23.684.017,13.151,13.151,0,0,1,2.145,7.2v14.35a5.147,5.147,0,0,1-4.525,5.018V7093.75a1.481,1.481,0,1,0-2.962,0v32.118h2.962V7115.6a8.123,8.123,0,0,0,7.487-8v-14.35a16.073,16.073,0,0,0-1.41-6.584,12.258,12.258,0,0,1,7.741,3.407,11.485,11.485,0,0,1,3.563,8.287l.027,8.427a1.48,1.48,0,0,0,1.481,1.475h.005a1.481,1.481,0,0,0,1.476-1.485l-.027-8.425a14.421,14.421,0,0,0-4.469-10.41,15.153,15.153,0,0,0-5.714-3.47,7.829,7.829,0,0,0-5.4-13.507h-.017a7.861,7.861,0,0,0-3.612.89,1.481,1.481,0,1,0,1.373,2.624,4.874,4.874,0,1,1,2.267,9.195,1.494,1.494,0,0,0-.188.013l-.237.01a16.858,16.858,0,0,0-8.563-6.129,8.687,8.687,0,1,0-11.174.227,16.819,16.819,0,0,0-7.89,5.894c-.235-.01-.469-.017-.7-.017-.111,0-.221,0-.332,0-.026,0-.053,0-.081,0a4.873,4.873,0,1,1,2.324-9.158,1.481,1.481,0,0,0,1.415-2.6,7.832,7.832,0,0,0-8.883,12.789,14.749,14.749,0,0,0-9.568,13.683v8.4A1.481,1.481,0,0,0,1034.125,7108.262Zm21.962-37.223a5.725,5.725,0,1,1,5.725,5.725A5.731,5.731,0,0,1,1056.087,7071.039Z" fill="#ff9002"/>
    <path id="Path_163" data-name="Path 163" d="M1085.489,7098.806a1.48,1.48,0,0,0-1.481-1.477h0a1.481,1.481,0,0,0-1.478,1.483l.058,27.056h2.962Z" fill="#ff9002"/>
    <path id="Path_164" data-name="Path 164" d="M1078.266,7119a1.48,1.48,0,0,0-1.481-1.477h0a1.481,1.481,0,0,0-1.477,1.484l.016,6.857h2.961Z" fill="#ff9002"/>
    <path id="Path_165" data-name="Path 165" d="M1098.281,7125.052h-70.562a1.481,1.481,0,0,0,0,2.962h70.562a1.481,1.481,0,0,0,0-2.962Z" fill="#ff9002"/>
    <path id="Path_166" data-name="Path 166" d="M1062.031,7113.111a1.481,1.481,0,0,0-1.481,1.481v11.276h2.961v-11.276A1.481,1.481,0,0,0,1062.031,7113.111Z" fill="#ff9002"/>
    <path id="Path_167" data-name="Path 167" d="M1047.548,7117.526a1.481,1.481,0,0,0-1.481,1.481v6.861h2.962v-6.861A1.481,1.481,0,0,0,1047.548,7117.526Z" fill="#ff9002"/>
    <path id="Path_168" data-name="Path 168" d="M1040.946,7097.343a1.48,1.48,0,0,0-1.48,1.481v27.044h2.961v-27.044A1.481,1.481,0,0,0,1040.946,7097.343Z" fill="#ff9002"/>
    <path id="Path_169" data-name="Path 169" d="M1070.266,7092.268" fill="#ff9002"/>
  </g>
</svg>
