<svg xmlns="http://www.w3.org/2000/svg" width="59.425" height="46.595" viewBox="0 0 59.425 46.595">
  <g id="Group_109" data-name="Group 109" transform="translate(-653.287 -7071.288)">
    <path id="Path_156" data-name="Path 156" d="M691.981,7093.82a2.679,2.679,0,0,0-1.279-1.57v-10.894a1.278,1.278,0,1,0-2.555,0v10.9a2.671,2.671,0,0,0-.214,4.56l.048.031.021.013.029.018.024.015.025.014.025.015.033.018.018.011.051.027.012.006.04.02.021.009.038.018.013.006.05.022.006,0,.117.047.006,0a2.672,2.672,0,0,0,.915.161,2.7,2.7,0,0,0,.756-.108,2.639,2.639,0,0,0,.637-.283l6.324,3.651a1.277,1.277,0,1,0,1.278-2.212l-6.326-3.653v-.066a2.708,2.708,0,0,0-.088-.684l0-.01-.01-.035Z" fill="#ff9002" fill-rule="evenodd"/>
    <path id="Path_157" data-name="Path 157" d="M668.012,7091.14a12.018,12.018,0,1,1-12.019,12.019,12.019,12.019,0,0,1,12.019-12.019m0-2.706a14.724,14.724,0,1,1-14.725,14.725A14.725,14.725,0,0,1,668.012,7088.434Z" fill="#ff9002" fill-rule="evenodd"/>
    <path id="Path_158" data-name="Path 158" d="M680.433,7076.61a19.962,19.962,0,0,1,7.427-2.056v2.188a.693.693,0,0,0,.691.691h1.728a.692.692,0,0,0,.69-.691v-2.188a19.962,19.962,0,0,1,7.428,2.056l-.877,1.518a1.21,1.21,0,0,0,2.095,1.21l.876-1.517a20.225,20.225,0,0,1,5.688,5.689l-1.516.876a1.209,1.209,0,1,0,1.21,2.094l1.517-.876a19.961,19.961,0,0,1,2.056,7.427h-2.188a.692.692,0,0,0-.69.691v1.727a.692.692,0,0,0,.69.691h2.189a19.953,19.953,0,0,1-2.057,7.428l-1.517-.877a1.209,1.209,0,1,0-1.21,2.094l1.516.876a20.2,20.2,0,0,1-5.689,5.688l-.875-1.515a1.209,1.209,0,1,0-2.095,1.209l.876,1.518a19.98,19.98,0,0,1-7.427,2.056v-2.188a.692.692,0,0,0-.69-.691h-1.728a.693.693,0,0,0-.691.691v2.188a19.977,19.977,0,0,1-5.693-1.288,17.542,17.542,0,0,1-2.233,2.543,23.3,23.3,0,1,0-12.073-30.141l.151,0a17.571,17.571,0,0,1,3.223.3c.067-.142.135-.282.205-.422l1.518.876a1.209,1.209,0,0,0,1.209-2.094l-1.516-.876a20.215,20.215,0,0,1,5.689-5.689l.875,1.516a1.209,1.209,0,0,0,2.095-1.209Z" fill="#ff9002" fill-rule="evenodd"/>
    <path id="Path_159" data-name="Path 159" d="M680.332,7103.159a12.32,12.32,0,1,0-12.321,12.32,12.321,12.321,0,0,0,12.321-12.32m-13.785,1,7.134-7.133,2.564,2.564-8.415,8.416-1.283,1.282-1.282-1.282-5.515-5.514,2.566-2.564Z" fill="#ff9002" fill-rule="evenodd"/>
  </g>
</svg>
