<svg id="Component_20_3" data-name="Component 20 – 3" xmlns="http://www.w3.org/2000/svg" width="45.112" height="45.112" viewBox="0 0 45.112 45.112">
  <rect id="Rectangle_65" data-name="Rectangle 65" width="45.112" height="45.112" rx="22.556" fill="#ff9002"/>
  <g id="Group_61" data-name="Group 61" transform="translate(-660.461 -7456.734)">
    <path id="Path_69" data-name="Path 69" d="M671.72,7474.092a8.65,8.65,0,0,1,.945-2.988,6.287,6.287,0,0,1,5.605-2.955q4.734-.117,9.472,0a6.323,6.323,0,0,1,5.354,2.615,6.926,6.926,0,0,1,1.174,3.979c.046,3.033.067,6.068,0,9.1a6.191,6.191,0,0,1-3.191,5.767,7.213,7.213,0,0,1-3.4.837c-3.116.035-6.233.066-9.348-.005a6.334,6.334,0,0,1-5.667-2.959,8.628,8.628,0,0,1-.945-2.988Zm11.3-3.8c-1.547,0-3.1-.03-4.643.007-2.417.056-3.9,1.189-4.343,3.27a6.684,6.684,0,0,0-.165,1.349c-.015,2.93-.054,5.862.006,8.791s1.533,4.475,4.345,4.578c3.176.117,6.358.107,9.534,0,2.343-.077,3.735-1.205,4.183-3.229a5.3,5.3,0,0,0,.157-1.1c.018-3.341.2-6.686-.1-10.021a3.773,3.773,0,0,0-3.47-3.536A47.461,47.461,0,0,0,683.024,7470.287Z" fill="#fff"/>
    <path id="Path_70" data-name="Path 70" d="M688.846,7479.332a5.854,5.854,0,1,1-5.816-5.849A5.868,5.868,0,0,1,688.846,7479.332Zm-2.17-.028a3.684,3.684,0,1,0-3.693,3.637A3.681,3.681,0,0,0,686.676,7479.3Z" fill="#fff"/>
    <path id="Path_71" data-name="Path 71" d="M689.005,7471.954a1.418,1.418,0,0,1,1.429,1.4,1.423,1.423,0,0,1-2.845.013A1.407,1.407,0,0,1,689.005,7471.954Z" fill="#fff"/>
  </g>
</svg>
