<svg id="Component_4_1" data-name="Component 4 – 1" xmlns="http://www.w3.org/2000/svg" width="14.325" height="14.2" viewBox="0 0 14.325 14.2">
  <g id="Group_37" data-name="Group 37" transform="translate(-153.927 -170.87)">
    <g id="Group_34" data-name="Group 34">
      <g id="Group_33" data-name="Group 33">
        <path id="Path_56" data-name="Path 56" d="M153.927,174.674a5.461,5.461,0,0,1,.6-1.894,3.988,3.988,0,0,1,3.554-1.874q3-.074,6.005,0a4.009,4.009,0,0,1,3.395,1.658,4.4,4.4,0,0,1,.745,2.523c.029,1.923.042,3.848,0,5.77a3.927,3.927,0,0,1-2.024,3.657,4.573,4.573,0,0,1-2.153.531c-1.975.022-3.952.042-5.927,0a4.016,4.016,0,0,1-3.593-1.877,5.454,5.454,0,0,1-.6-1.894Zm7.167-2.412c-.981,0-1.963-.019-2.944,0a2.555,2.555,0,0,0-2.754,2.074,4.261,4.261,0,0,0-.1.855c-.01,1.858-.034,3.717,0,5.574a2.608,2.608,0,0,0,2.755,2.9c2.014.074,4.031.068,6.045,0a2.5,2.5,0,0,0,2.652-2.047,3.457,3.457,0,0,0,.1-.7c.011-2.119.127-4.24-.065-6.354a2.392,2.392,0,0,0-2.2-2.242A30.088,30.088,0,0,0,161.094,172.262Z" fill="#fff"/>
      </g>
    </g>
    <g id="Group_35" data-name="Group 35">
      <path id="Path_57" data-name="Path 57" d="M164.785,178a3.711,3.711,0,1,1-3.687-3.709A3.72,3.72,0,0,1,164.785,178Zm-1.376-.018a2.335,2.335,0,1,0-2.341,2.306A2.333,2.333,0,0,0,163.409,177.979Z" fill="#fff"/>
    </g>
    <g id="Group_36" data-name="Group 36">
      <path id="Path_58" data-name="Path 58" d="M164.886,173.319a.9.9,0,0,1,.906.887.9.9,0,0,1-1.8.008A.892.892,0,0,1,164.886,173.319Z" fill="#fff"/>
    </g>
  </g>
</svg>
