<svg xmlns="http://www.w3.org/2000/svg" width="135.776" height="88.177" viewBox="0 0 135.776 88.177">
  <g id="Group_32" data-name="Group 32" transform="translate(-615.112 -27.416)">
    <g id="Group_31" data-name="Group 31">
      <g id="Group_30" data-name="Group 30">
        <g id="Group_24" data-name="Group 24">
          <path id="Path_10" data-name="Path 10" d="M617.683,97.452c0-2.745-1.073-4.38-2.571-4.779l.549-.762h.5c3.169,0,6.264.163,6.264,5.5,0,8.236,1.522,14.544,6.464,14.544s6.463-6.279,6.463-14.515c0-8.211-2.171-15.144-6.463-15.144-2.821,0-4.468,2.223-4.468,5.243,0,3.369,2.2,4.843,4.717,4.843a3.043,3.043,0,0,0,2.77-1.223c0,2.546-.948,4.867-3.918,4.867-4.193,0-7.362-3.244-7.362-8.285a7.909,7.909,0,0,1,8.261-8.186c5.964,0,11.205,6.214,11.205,17.894,0,10.632-3.768,17.894-11.205,17.894S617.683,108.084,617.683,97.452Z" fill="#fff"/>
          <path id="Path_11" data-name="Path 11" d="M652.225,114.911l-.525-.306a1.223,1.223,0,0,0,.949-1.339,8.357,8.357,0,0,0-.949-3.19l-2.995-6.611-.824,1.349v5.267c0,2.745.674,4.124,2.122,4.524l-.5.306h-7.362l-.441-.306c1.448-.4,2.18-1.779,2.18-4.524V93.26c0-2.771-.732-4.409-2.18-4.784l.441-.565H649.5l.5.565c-1.448.375-2.122,2.013-2.122,4.784v4.592l2.8-4.592a9.673,9.673,0,0,0,1.635-3.894.832.832,0,0,0-.543-.89l.53-.565h7.038l.524.565c-1.672.375-2.969,1.469-4.941,4.763l-3.544,5.85,4.867,10.986c1.223,2.746,2.57,4.128,4.192,4.527l-.524.309Z" fill="#fff"/>
          <path id="Path_12" data-name="Path 12" d="M669.645,87.911l.429.565c-1.448.375-2.193,2.013-2.193,4.784v16.821c0,2.745.745,4.124,2.193,4.524l-.429.306h-7.362l-.511-.306c1.447-.4,2.109-1.779,2.109-4.524V93.26c0-2.771-.662-4.409-2.109-4.784l.511-.565Z" fill="#fff"/>
          <path id="Path_13" data-name="Path 13" d="M671.069,101.629c0-7.912,3.144-13.718,9.358-13.718h6.24l.549.565c-.874,2.321-1.822,5.162-1.822,6.959a1.931,1.931,0,0,0,1.872,2.082l.424-.045c0,1.223-.474,2.823-2.346,2.823a3.178,3.178,0,0,1-3.17-3.482c0-2.246,1.747-3.9,2.646-5.9h-4.393c-4.043,0-4.941,5.879-4.941,10.646s1.1,10.838,5.166,10.838c2.521,0,3.943-1.694,4.517-3.79a2.415,2.415,0,0,1,2.7,2.285c0,2.77-3.469,4.7-7.013,4.7C673.265,115.593,671.069,109.341,671.069,101.629Z" fill="#fff"/>
          <path id="Path_14" data-name="Path 14" d="M696.725,87.911l.388.565c-1.447.375-2.232,2.013-2.232,4.784V100.9a5.167,5.167,0,0,1,4.611-2.87,4.273,4.273,0,0,1,2.389.874V93.26c0-2.771-.656-4.409-2.1-4.784l.517-.565h7.362l.423.565c-1.447.375-2.2,2.013-2.2,4.784v16.821c0,2.745.751,4.124,2.2,4.524l-.423.306h-7.362l-.517-.306c1.448-.4,2.1-1.779,2.1-4.524v-6.365c-1,.45-1.2.674-1.7.674,0-1.871-.414-3.768-2.161-3.768-2.172,0-3.135,2.246-3.135,5.266v4.193c0,2.745.785,4.124,2.232,4.524l-.388.306h-7.362l-.551-.306c1.447-.4,2.069-1.779,2.069-4.524V93.26c0-2.771-.622-4.409-2.069-4.784l.551-.565Z" fill="#fff"/>
          <path id="Path_15" data-name="Path 15" d="M717.316,87.911c4.342,0,7.905,1.888,7.905,6.73,0,7.113-9.34,8.327-9.34,13.518v2.021c0,2.7.53,4.025,1.978,4.425l-.643.306h-7.362l-.3-.306c1.448-.4,2.324-1.779,2.324-4.524V93.26c0-2.771-.876-4.409-2.324-4.784l.3-.565Zm-1.435,14.083c2-2.5,5.122-4.63,5.122-7.625,0-2.4-2.04-3.458-4.311-3.458h-.811Z" fill="#fff"/>
          <path id="Path_16" data-name="Path 16" d="M733.292,87.911l.6.565c-1.447.375-2.016,2.013-2.016,4.784v16.821c0,2.745.569,4.124,2.016,4.524l-.6.306H725.93l-.335-.306c1.448-.4,2.286-1.779,2.286-4.524V93.26c0-2.771-.838-4.409-2.286-4.784l.335-.565Z" fill="#fff"/>
          <path id="Path_17" data-name="Path 17" d="M735.489,114.911l-.614-.306c1.447-.4,2.006-1.779,2.006-4.524V93.26c0-2.771-.559-4.409-2.006-4.784l.614-.565h7.363l.325.565c-1.448.375-2.3,2.013-2.3,4.784v18.651h7.137c-.924-1-2.646-3.386-2.646-5.632a3.014,3.014,0,0,1,3.17-3.3c1.847,0,2.346,1.631,2.346,2.829a2.14,2.14,0,0,0-.4-.009,1.919,1.919,0,0,0-1.9,2.08c0,1.8.923,4.379,1.8,6.725l-.525.31Z" fill="#fff"/>
        </g>
        <g id="Group_29" data-name="Group 29">
          <path id="Path_18" data-name="Path 18" d="M671.556,51.418a21.734,21.734,0,0,1-8.609-2.428,16.69,16.69,0,0,0,7.6,2.995C670.892,51.8,671.226,51.612,671.556,51.418Z" fill="#fff" fill-rule="evenodd"/>
          <path id="Path_19" data-name="Path 19" d="M674.047,47.834a1.81,1.81,0,0,1-.617-.985,1.08,1.08,0,0,1-.03-.295l0-.087-.084-.023a4.813,4.813,0,0,0-.948-.16,3.457,3.457,0,0,0-3.544-.626,3.942,3.942,0,0,0-3.6.38c-1.038-.144-2.169-.127-2.738.873h-.009a6.674,6.674,0,0,0-2.485.827l-.094.052.039.1a9.43,9.43,0,0,0,2.244,3.142,5.832,5.832,0,0,0,2.949,2.8,6.315,6.315,0,0,0,.679.723l.095.086.073-.1a.962.962,0,0,1,.244-.24c.132-.093.266-.179.4-.264l.14-.087-.133-.1a8.694,8.694,0,0,1-1.1-.964l-.024-.019a6.733,6.733,0,0,1-2.4-2.2l-.016-.019a9.484,9.484,0,0,1-2.055-2.314,3.754,3.754,0,0,1,1.848-.428h.052l.033-.129a2.757,2.757,0,0,1,2.276-.7l.042-.017.035-.034a3.633,3.633,0,0,1,2.827-.422l.027,0,.027-.009c1.4-.383,2.533-.593,3.288.472l.04.057.07-.012a2.45,2.45,0,0,1,1.777.491,4.29,4.29,0,0,1,.516.4l.152.128.046-.264Z" fill="#fff"/>
          <path id="Path_20" data-name="Path 20" d="M667.238,48.492a5.7,5.7,0,0,0-1.024-1.243,3.331,3.331,0,0,0-1.365-.83c-.183.171-.367.341-.557.5A5.816,5.816,0,0,1,667.238,48.492Z" fill="#fff" fill-rule="evenodd"/>
          <path id="Path_21" data-name="Path 21" d="M667.956,52.325a3.112,3.112,0,0,1-3.349.618c-.23-.3-.46-.6-.683-.9A5.217,5.217,0,0,0,667.956,52.325Z" fill="#fff" fill-rule="evenodd"/>
          <path id="Path_22" data-name="Path 22" d="M664.225,48.583a2.893,2.893,0,0,0-1.848-1.177c-.15.116-.3.22-.457.324A4.849,4.849,0,0,1,664.225,48.583Z" fill="#fff" fill-rule="evenodd"/>
          <path id="Path_23" data-name="Path 23" d="M665.145,51.241a3.032,3.032,0,0,1-2.864-.66c-.114-.294-.227-.588-.325-.885A5.69,5.69,0,0,0,665.145,51.241Z" fill="#fff" fill-rule="evenodd"/>
          <path id="Path_24" data-name="Path 24" d="M669.583,48.9a7.289,7.289,0,0,0-.832-1.836,3.837,3.837,0,0,0-1.351-1.4q-.4.249-.81.495a5.454,5.454,0,0,1,1.543,1.018A8.535,8.535,0,0,1,669.583,48.9Z" fill="#fff" fill-rule="evenodd"/>
          <path id="Path_25" data-name="Path 25" d="M672.6,49.194a5.418,5.418,0,0,0-.337-1.843,3.463,3.463,0,0,0-1.032-1.569c-.312.092-.631.181-.946.268a5.241,5.241,0,0,1,1.312,1.267A7.062,7.062,0,0,1,672.6,49.194Z" fill="#fff" fill-rule="evenodd"/>
          <g id="Group_28" data-name="Group 28">
            <g id="Group_25" data-name="Group 25">
              <path id="Path_26" data-name="Path 26" d="M692.057,45.18c.326.347.608.706.948,1.015a1.047,1.047,0,0,1,.247-.659c-7.056-7.507-18.486-12.418-28.87-11.469,9.735.82,18.222,4.016,24.82,10.073A3.305,3.305,0,0,1,692.057,45.18Z" fill="#fff" fill-rule="evenodd"/>
              <path id="Path_27" data-name="Path 27" d="M677.145,48.02c.375-.205.741-.427,1.116-.63a4.126,4.126,0,0,1-.88-.591c-2.584,1.1-4.438-.537-6.517-2.755a7.644,7.644,0,0,1-4.635-3.883c-1.754-.783-3.233-2.416-3.419-3.761a8.189,8.189,0,0,1-2.86-3.173,19.806,19.806,0,0,1,6.439-2.136,14.087,14.087,0,0,1,6.641-1.3c3.1-.8,6.01-.751,7.63,0,2.525.158,5.5.948,6.714,3.1a5.672,5.672,0,0,1,3.12,5.646c1.09,1.82.3,3.849.331,5.8a3.283,3.283,0,0,1,1.232.842c.273.291.516.587.787.858-.16-1.9.152-4.876-1.013-7.046.656-2.8-.7-5.949-3.262-6.708a7.164,7.164,0,0,0-7.04-3.821c-1.352-.838-4.2-1.713-8.1-.3a11.8,11.8,0,0,0-8.105,1.721,19.038,19.038,0,0,0-7.244,3.056c.9,1.4,2.143,3.309,3.495,4.076a7.1,7.1,0,0,0,3.807,4.459c1.341,2.584,3.562,4.3,5.837,4.511a7.458,7.458,0,0,0,5.418,2.854A.88.88,0,0,1,677.145,48.02Z" fill="#fff" fill-rule="evenodd"/>
              <path id="Path_28" data-name="Path 28" d="M671.356,39.542a11.564,11.564,0,0,1-3.127,1.077,6.838,6.838,0,0,1-3.279-.011c-.136-.5-.275-.991-.433-1.479A11.928,11.928,0,0,0,671.356,39.542Z" fill="#fff" fill-rule="evenodd"/>
              <path id="Path_29" data-name="Path 29" d="M677.042,33.192c-.4-1.943-2.072-3.962-5.2-4.675-.723.277-1.445.549-2.157.838A10.71,10.71,0,0,1,677.042,33.192Z" fill="#fff" fill-rule="evenodd"/>
              <path id="Path_30" data-name="Path 30" d="M666.182,36.15a5.938,5.938,0,0,1-4.5.078c-.138-.365-.292-.71-.453-1.059A9.926,9.926,0,0,0,666.182,36.15Z" fill="#fff" fill-rule="evenodd"/>
              <path id="Path_31" data-name="Path 31" d="M670.307,32.321a6.221,6.221,0,0,0-5.721-1.919c-.514.392-1.028.785-1.518,1.2A11.7,11.7,0,0,1,670.307,32.321Z" fill="#fff" fill-rule="evenodd"/>
              <path id="Path_32" data-name="Path 32" d="M671.135,43.358a11.156,11.156,0,0,1-3.793.126c.1.2.2.4.3.592a10.121,10.121,0,0,1,1.425,1.125,9.19,9.19,0,0,0,3.021-.975,14.877,14.877,0,0,0,3.426-2.319A17.485,17.485,0,0,1,671.135,43.358Z" fill="#fff" fill-rule="evenodd"/>
              <path id="Path_33" data-name="Path 33" d="M682.953,33.415a4.89,4.89,0,0,0-3.091-5.592c-.87.171-1.732.355-2.6.549C679.913,29.192,682.24,30.769,682.953,33.415Z" fill="#fff" fill-rule="evenodd"/>
              <path id="Path_34" data-name="Path 34" d="M677.145,48.02c.417-.227.823-.477,1.243-.7.181-.127.359-.257.531-.4a11.115,11.115,0,0,0,2.567-2.863,14.517,14.517,0,0,1-3.769,2.208,10.7,10.7,0,0,1-3.655.808c.458.491.92.988,1.367,1.486a5.523,5.523,0,0,0,1.553-.441A1.177,1.177,0,0,1,677.145,48.02Z" fill="#fff" fill-rule="evenodd"/>
              <path id="Path_35" data-name="Path 35" d="M685.593,30.993a1.64,1.64,0,0,0,.293-.67l.49-.014a1.937,1.937,0,0,0,.822.8l.251.149c.165.1.326.214.479.334.03.024.063.039.094.06a7.772,7.772,0,0,1-1.1,5.288A7.1,7.1,0,0,0,685.593,30.993Z" fill="#fff" fill-rule="evenodd"/>
              <path id="Path_36" data-name="Path 36" d="M689.44,33.85l.755.317a1.275,1.275,0,0,0,.12.644c.346.635.622,1.3,1.007,1.914a1.331,1.331,0,0,0,.361.371,6.479,6.479,0,0,1-2.074,3.5A7.071,7.071,0,0,0,689.44,33.85Z" fill="#fff" fill-rule="evenodd"/>
            </g>
            <g id="Group_27" data-name="Group 27">
              <path id="Path_37" data-name="Path 37" d="M691.63,48.669a7.521,7.521,0,0,0-7.6-1.126c-1.377.494-1.484,1.211-1.484,1.211a3.808,3.808,0,0,0-2.7-.3c-1.767.328-.864,1.719-.864,1.719l-.6.409c-.754-.569-2.191.022-3.32.549s.405,1.279.405,1.279l-.9.564c-.624-.8-1.664-.324-2.746.441s.539,1.256.539,1.256l-2,.974s-.72-.816-2.306.235a1.238,1.238,0,0,0-.236,2.15c-.865.123-1.189,1.4-1.189,1.4a2.081,2.081,0,0,0-2.6,1.024c-.9,1.357-4.383,8.571-1.752,10.787s8.858,1.4,15.762-1.386,11.665-9.649,13.969-12.881S694.812,51.165,691.63,48.669Zm-5.892-.419c.68-1.068,2.542.157,2.805,1s-.651,1.131-1.072.961-.521-.734-1.25-1.184S685.738,48.25,685.738,48.25Zm-2.058.365c.528-.167,1.194.132,1.989.8a1,1,0,0,1-.092,1.675c-.386.3-2.254-1.387-2.327-1.868A.559.559,0,0,1,683.68,48.615Zm-1.661,2.3c1.551.732,1.975,1.641,1.58,2.483s-.956.753-1.505.392-.87-1.239-1.858-1.468-1.322-.378-1.5-.709a.583.583,0,0,1,.379-.8A3.567,3.567,0,0,1,682.019,50.913Zm-.733-2c1.254.124,1.673,1.041.837,1.22s-2.986-.128-2.486-.648C679.637,49.48,680.032,48.784,681.286,48.908Zm-5.657,2.481a2.83,2.83,0,0,1,1.844-.562c.619.121.961.533.454.764a3.379,3.379,0,0,1-1.931.243S675.249,51.667,675.629,51.389Zm-.767,2.02a3.745,3.745,0,0,1,3.113-.722c.605.253,2.267.87,1.844,2.308s-2.016.732-2.5.45a6.268,6.268,0,0,0-1.786-.95S674.268,54.132,674.862,53.409Zm-2.575.144s1.022-.663,1.7-.088-.677.884-1.114.849S671.532,54.072,672.287,53.553Zm-.842,2.366a4.208,4.208,0,0,1,4.1.021c2.331,1.19,1.561,2.549,1.08,2.823s-.764.659-2.738-.6S669.405,57.235,671.445,55.919Zm-.676,6.2c-1.076-.723-1.242-1.227-2.415-1.5s-1.136-1.013-.551-1.5c.031-.026.83-.816,2.8-.158s2.343,1.935,2.1,2.472S671.845,62.837,670.769,62.115Zm-2.553-4.837s-.687-.409-.078-.793,1.663-.691,1.763-.272-.243.611-.106.874-.137.512-.439.446A2.455,2.455,0,0,1,668.216,57.278Zm-3.056,2.978a1.53,1.53,0,0,1,1.852.052.5.5,0,0,1-.349.873,3.188,3.188,0,0,1-1.544-.2S664.607,60.646,665.16,60.256Zm-.259,2.673a4.172,4.172,0,0,1,3.356-.632,1.531,1.531,0,0,1,.794,2.487c-.45.513-.912.512-1.85.1a8.882,8.882,0,0,0-2.318-.713C664.341,64.105,664.184,63.292,664.9,62.929Zm-1.467,5.857a2.448,2.448,0,0,1-.688-2.369.919.919,0,0,1,1.465-.528c1.1.679,2.67,3.254,2.19,4.143S664.162,69.637,663.434,68.786Zm6.917,2.2c-.907.2-1.332-.306-2.107-1.3s-1.489-2.013-1.489-2.013-.638-1.108.722-1.21a3.9,3.9,0,0,1,3.989,2.456C672.38,70.963,671.258,70.787,670.351,70.989Zm5.721-1.845c-.913.646-1.84,1.752-3.215-.772a12.471,12.471,0,0,0-2.551-3.628.833.833,0,0,1,.493-1.419,4.433,4.433,0,0,1,4.894,1.784C677.208,67.116,676.984,68.5,676.072,69.144Zm2.819-2.4s-.939-.109-1.647-1.864a4.844,4.844,0,0,0-2.038-2.574,1.42,1.42,0,0,1-.836-1.656c.317-1.169,2.629-1.22,4.054-.7s3.656,2.743,3.05,4.852A2.534,2.534,0,0,1,678.891,66.743Zm6.524-4.457a1.9,1.9,0,0,1-3.057-1.209,4.913,4.913,0,0,0-1.846-2.482c-1.055-.716-3.164-.785-1.012-2.233s3.95-.364,5.677,1.08A3.25,3.25,0,0,1,685.415,62.286Zm3.846-4.14a1.7,1.7,0,0,1-2.248-1.071,5.743,5.743,0,0,0-1.726-2.062c-2.6-2.143-.086-4.8,3.115-2.808S690.221,57.641,689.261,58.146Zm2.711-4.071c-.622.109-.77-.474-1.156-1.323a3.9,3.9,0,0,0-1.5-1.711s-1.116-.851.057-1.352,2.891.558,3.243,2S692.594,53.966,691.972,54.075Z" fill="#fff"/>
              <path id="Path_38" data-name="Path 38" d="M661.42,62.65a32.606,32.606,0,0,0-2.058,5.977c-.893,3.61-1.714,4.58-.362,5.144,0,0,.226-.04.053-.157,0,0-.776-.266-.084-2.008a25.631,25.631,0,0,0,1.487-4.921A36.824,36.824,0,0,1,661.42,62.65Z" fill="#fff"/>
              <g id="Group_26" data-name="Group 26">
                <path id="Path_39" data-name="Path 39" d="M668.379,67.352a6.41,6.41,0,0,1,1.767,2s.5,1.007.378.233A2.176,2.176,0,0,0,668.379,67.352Z" fill="#fff"/>
                <path id="Path_40" data-name="Path 40" d="M669.209,59.425a5.221,5.221,0,0,1,1.858,1.124s.632.663.351.09A1.773,1.773,0,0,0,669.209,59.425Z" fill="#fff"/>
                <path id="Path_41" data-name="Path 41" d="M672.5,56.009a3.869,3.869,0,0,1,2.615,1.116s.94.743.471.052A2.32,2.32,0,0,0,672.5,56.009Z" fill="#fff"/>
                <path id="Path_42" data-name="Path 42" d="M668.972,63.688a3.868,3.868,0,0,0-2.8-.494s-1.193.109-.422-.214A2.321,2.321,0,0,1,668.972,63.688Z" fill="#fff"/>
                <path id="Path_43" data-name="Path 43" d="M672.4,64.06l.051.039a10.614,10.614,0,0,1,2.965,4.069s.214.16.167-.174S675.764,65.116,672.4,64.06Z" fill="#fff"/>
                <path id="Path_44" data-name="Path 44" d="M677.2,60.544a6.329,6.329,0,0,1,3.322,4.058s.09.264.14-.107a3.686,3.686,0,0,0-3.349-4.135S676.714,60.283,677.2,60.544Z" fill="#fff"/>
                <path id="Path_45" data-name="Path 45" d="M682.2,56.692s1.949.828,3.069,3.947c0,0,.181.216.188-.063,0,0,.7-2.786-3.3-4.042C682.158,56.534,681.837,56.485,682.2,56.692Z" fill="#fff"/>
                <path id="Path_46" data-name="Path 46" d="M676.2,53.216a4.493,4.493,0,0,1,3.113,1.413s.178.073.094-.1c0,0-.464-1.909-3.285-1.4C676.118,53.134,675.908,53.207,676.2,53.216Z" fill="#fff"/>
                <path id="Path_47" data-name="Path 47" d="M686.547,52.2a3.49,3.49,0,0,1,2.633,2.382c.527,2-.073,2.273-.073,2.273a9.515,9.515,0,0,0-1.3-3.039C687.078,53.059,685.228,51.876,686.547,52.2Z" fill="#fff"/>
                <path id="Path_48" data-name="Path 48" d="M690.222,50.139a2.463,2.463,0,0,1,1.6.983,2.545,2.545,0,0,1,.39,2.018s.062.117-.529-1.12S689.75,50.014,690.222,50.139Z" fill="#fff"/>
                <path id="Path_49" data-name="Path 49" d="M680.645,51.066a1.872,1.872,0,0,1,1.4.269,1.928,1.928,0,0,1,.821,1.328s.076.067-.678-.653S680.276,51.1,680.645,51.066Z" fill="#fff"/>
                <path id="Path_50" data-name="Path 50" d="M663.885,66.242a4.862,4.862,0,0,1,1.795,3.151A28.725,28.725,0,0,0,663.885,66.242Z" fill="#fff"/>
              </g>
              <path id="Path_51" data-name="Path 51" d="M684.723,73.393c-.465.259-1.7.862-2.145,1.093a15.363,15.363,0,0,0,2.556-.915A1.147,1.147,0,0,1,684.723,73.393Z" fill="#fff"/>
              <path id="Path_52" data-name="Path 52" d="M681.831,74.864a29.866,29.866,0,0,1-8.677,2.36S678.212,77.5,681.831,74.864Z" fill="#fff"/>
              <path id="Path_53" data-name="Path 53" d="M677.77,74.355s-6.388,1.956-8.928,2.062C668.842,76.417,674.7,76.326,677.77,74.355Z" fill="#fff"/>
              <path id="Path_54" data-name="Path 54" d="M702.46,42.882c-.751-1.357-1.068-1.932-2.344-2,0,0-.288.128.26.279s1.2.439.978,1.027-1.581.92-2.56,1.748-3.424,3.237-3.424,3.237l-1.018-.672a12.27,12.27,0,0,0,5.164-4.923s.193-.544-1.569,1.3-3.752,3.079-4.433,2.861a6.137,6.137,0,0,0-7.089-1.726s-10.263,3.341-16.911,7.358-8.774,7.18-10.525,11.766-.972,5.067-3.079,8.779.042,5.069,2.693,5.116a23.831,23.831,0,0,1,7.558.9c4.807,1.2,8.742,2.461,15.595.24a22.782,22.782,0,0,0,5.891-2.992,1.141,1.141,0,0,1-.382-.16,1.351,1.351,0,0,1-.4-.419,23.251,23.251,0,0,1-3.532,1.978c-7.835,3.524-13.985,2.182-18.825-.321,0,0,10.935-1.2,16.019-4.031a41.343,41.343,0,0,0,15.671-14.8s-3.152,9.091-15.365,15.465c0,0,8.137-1.788,15.511-12.215a38.955,38.955,0,0,1-5.93,8.088,1,1,0,0,1,.106-.023,1.165,1.165,0,0,1,.507-.159,4.608,4.608,0,0,0,1.209-.3A33.924,33.924,0,0,0,695.227,65a12.07,12.07,0,0,1-1.659,2.767,5.132,5.132,0,0,1,.553-.16,1.11,1.11,0,0,1,.973.194,23.646,23.646,0,0,0,2.2-3.741c2.509-5.432.838-7.765,1.26-12.336a3.629,3.629,0,0,0-1.186-3.7s.7-2.631,4.408-3.636C701.78,44.387,703.212,44.24,702.46,42.882Zm-5.525,8.539c-.1,1.436-3.02,6.683-5.7,10.31s-9.166,8.131-12.412,9.845-17.57,3.985-17.57,3.985-5.931,1.134-4.735-1.753,3.168-8.559,3.522-9.861a23.474,23.474,0,0,1,7.552-9.8c4.792-3.714,10.772-5.8,14.592-7.429s4.956-1.8,6.14-1.945,2.419-.478,4.765,2.286a19.177,19.177,0,0,0,1.945,1.488C695.965,49.147,697.036,49.985,696.935,51.421Z" fill="#fff"/>
            </g>
          </g>
          <path id="Path_55" data-name="Path 55" d="M710.768,71.65h0a.561.561,0,0,0-.494-.219c-.081.007-.191.029-.358.063a7.8,7.8,0,0,1-2.315.2,2.184,2.184,0,0,0-.266-1.208,3.2,3.2,0,0,0-.951-1.01,9.9,9.9,0,0,0,.967-2.073c.417-1.319.742-2.573.178-3.419a4.7,4.7,0,0,1,1.486-.669c.682-.134.98-.269,1.136-.516a.759.759,0,0,0,.056-.629l-.015-.06c0-.011-.307-1.147-.868-1.357a.563.563,0,0,0-.536.07,3.528,3.528,0,0,0-.273.241,7.842,7.842,0,0,1-1.874,1.372,2.19,2.19,0,0,0-.857-.893c-.942-.565-2.977-.522-5.313.113l-.634.17a22.848,22.848,0,0,0-4.7,1.587l-.255.041v1.684l.408-.171c.156-.115.383-.209.523-.294a10.332,10.332,0,0,1,3.051-1.44,13.022,13.022,0,0,0,2.133-.6,10.411,10.411,0,0,1,2.034-.415,4.046,4.046,0,0,1,.423-.045,4.226,4.226,0,0,0-.954.427,6.919,6.919,0,0,1-1.531.7,25.824,25.824,0,0,0-3.327,1.29,16.844,16.844,0,0,0-2.517,1.1l-.243.043v1c0,.01.056.018-.006.029-2.472.466-5.478,1.479-6.749,2.925a7.2,7.2,0,0,1-2.5,2.121l-.132.034c-.587.123-1.38.293-1.492,1.2-.1.8.455.964.82,1.075a3.363,3.363,0,0,1,.639.25c.229.122.4.194.542.254.324.137.487.206,1.2.991a7.045,7.045,0,0,0,1.289,1.146,6.737,6.737,0,0,1,1.02.861,3.11,3.11,0,0,0,.752.535,14.053,14.053,0,0,0,4.076,1.088c.11.016.2.03.272.042s.169.031.284.054a10.139,10.139,0,0,0,2.065.231,9.388,9.388,0,0,0,2.743-.424,15.958,15.958,0,0,0,5.912-2.836c1.044-.908,1.975-1.81,1.933-2.825a4.719,4.719,0,0,1,1.617.2c.653.242.977.282,1.239.152a.762.762,0,0,0,.375-.507l.018-.059C710.8,73.25,711.135,72.118,710.768,71.65Zm-24.035.994c.26-.013.432-.056,1.209-.17a30.673,30.673,0,0,1,3.826-.226,34.665,34.665,0,0,0,4.414-.229,26.417,26.417,0,0,1,3.944.024c.486.03,1.3.054,1.64.06.909.017,3.292.237,4.1.31a.853.853,0,0,1,.32.07.566.566,0,0,1-.118.13,26.12,26.12,0,0,1-3.518,1.164c-1.278.312-4.715.8-6.582,1.031a15.573,15.573,0,0,1-3.689-.1c-.5-.056-.969-.108-1.389-.125a13.214,13.214,0,0,1-3.609-.611,1.729,1.729,0,0,0-.448-.159c-.088,0-.14-.045-.181.043-.016.035,0,0,0,.03a7.654,7.654,0,0,0-1.107-.515c-.15-.059-.28-.111-.375-.158a1.211,1.211,0,0,1-.209-.126c.052-.014.166-.031.252-.043a4.028,4.028,0,0,0,1.506-.466l.051-.03C686.741,72.591,686.666,72.647,686.733,72.644ZM707.1,65.41a6.118,6.118,0,0,1-1.67,3.431C706.068,68.326,706.271,66.671,707.1,65.41Zm-.709-.488a21.73,21.73,0,0,1-1.025,2.232l-.126.254a7.8,7.8,0,0,1-.685,1.045c-.327-.14-.673-.274-1.038-.4l.152-.152.233-.231a21.669,21.669,0,0,0,2.054-2.312,3.99,3.99,0,0,1,.461-.587C706.408,64.815,706.4,64.865,706.387,64.922Zm-.573-.9a26.216,26.216,0,0,1-2.4,2.826c-.215.216-.538.513-.959.883l-.348-.1c-.671-.2-1.371-.4-2.093-.581l.522-.278c.432-.228.8-.425,1.095-.6l.034-.02c.78-.457,3.153-1.846,3.869-2.2a.868.868,0,0,1,.31-.107A.54.54,0,0,1,705.814,64.017Zm-9.368,4.046a5.337,5.337,0,0,1,.822-.059,10.27,10.27,0,0,1,3.337.394,15.121,15.121,0,0,0,2.327.579,8.069,8.069,0,0,1,1.711.648,4.015,4.015,0,0,1,.38.18,4.261,4.261,0,0,0-1.039-.135,4.074,4.074,0,0,1-1.638-.337,10.9,10.9,0,0,0-3.483-.751,36.011,36.011,0,0,0-4.751.094,14.78,14.78,0,0,0-3.557,1.128c-.385.157-.716.292-.981.387s-.519.2-.77.321c.095-.076.193-.151.293-.224a15.884,15.884,0,0,1,2.435-1.346l.142-.068a18.712,18.712,0,0,1,3.684-.667C695.8,68.152,696.183,68.1,696.446,68.063Zm-1.8,1.627a16.43,16.43,0,0,1,2.3-.151,14.158,14.158,0,0,1,4.394.589,14.448,14.448,0,0,0,3.494.82,3.012,3.012,0,0,1,1.372.408c.028.017.052.032.072.046-.111.068-.292.152-1.034.137a8.775,8.775,0,0,1-1.58-.2,12.632,12.632,0,0,0-1.328-.2,52.878,52.878,0,0,0-6.246-.057c-1.72.138-3.8.341-4.825.457a29.188,29.188,0,0,0-3.864.738c-.133.038-.247.071-.34.1.777-.455,1.928-1.106,2.5-1.4A20.946,20.946,0,0,1,694.641,69.69Zm-3.561,5.921a21.027,21.027,0,0,0,5.628.25l.036,0,.411-.021a47.181,47.181,0,0,0,5.056-1.027l.319-.076a21.941,21.941,0,0,0,2.957-.9,3.963,3.963,0,0,1,.7-.261c-.028.033-.061.071-.1.114a21.4,21.4,0,0,1-2.037,1.371l-.24.152a23.815,23.815,0,0,1-4.478,1.712,24.1,24.1,0,0,1-3.6.513,10.936,10.936,0,0,1-3.169-.421l-1.743-.5,1.593.869a7.168,7.168,0,0,0,3.1.67c.123,0,.255.01.4.017l.038,0a11.345,11.345,0,0,0,2.255-.057,30.283,30.283,0,0,0,5.321-1.679c-.909.478-1.912.93-2.906,1.363a9.548,9.548,0,0,1-5.916.666,12.516,12.516,0,0,1-4.621-1.735c-.209-.151-.418-.3-.633-.446A9.826,9.826,0,0,1,687.53,74.6q-.1-.115-.21-.219A28,28,0,0,0,691.08,75.611Zm14.961-1a7.847,7.847,0,0,1-2.391,1.652C704.042,76.046,705.386,75.039,706.041,74.612ZM707.7,62.876a8.332,8.332,0,0,0,1.348-1.091l.076-.07a.556.556,0,0,1,.033.131C709.129,61.923,708.948,62.2,707.7,62.876Zm2.41,9.436a.788.788,0,0,1-.049.153c-.072.064-.426.233-2.122.145a10.074,10.074,0,0,0,2.049-.273Zm-13.687-6.164a14.117,14.117,0,0,1,4.058-1.785,14.492,14.492,0,0,0,3.41-1.121,3.009,3.009,0,0,1,1.383-.366l.085,0c-.059.115-.165.279-.81.656a8.805,8.805,0,0,1-1.452.652,12.748,12.748,0,0,0-1.24.52c-.711.352-2.212,1.2-3.534,2.008a10.513,10.513,0,0,0-2.7-.045C695.876,66.491,696.144,66.316,696.419,66.148Z" fill="#fff"/>
        </g>
      </g>
    </g>
  </g>
</svg>
