<svg xmlns="http://www.w3.org/2000/svg" width="32.492" height="31.95" viewBox="0 0 32.492 31.95">
  <g id="Group_86" data-name="Group 86" transform="translate(-234.421 -851.074)">
    <g id="Group_85" data-name="Group 85">
      <path id="Path_130" data-name="Path 130" d="M240.206,876.115a.634.634,0,1,1-.635-.634.635.635,0,0,1,.635.634Zm0,0" fill="#fff"/>
      <g id="Group_84" data-name="Group 84">
        <path id="Path_131" data-name="Path 131" d="M263.689,856.7h-3.734a3.477,3.477,0,0,0-2.221.8v-1.908a4.524,4.524,0,0,0-4.519-4.519h-4.234a.634.634,0,0,0-.635.634v1.743a4.526,4.526,0,0,0,4.52,4.52h3.6V864.4c-.167-.011-.336-.017-.5-.017a7.833,7.833,0,0,0-4.611,1.487.635.635,0,1,0,.743,1.029,6.591,6.591,0,0,1,4.869-1.169.759.759,0,0,0,.084.012,6.634,6.634,0,0,1,4.711,3.328.634.634,0,0,0,1.11-.615,7.9,7.9,0,0,0-5.132-3.869v-2.052h3.1a3.494,3.494,0,0,0,3.49-3.49v-1.712a.635.635,0,0,0-.635-.635Zm-7.224,0h-3.6a3.255,3.255,0,0,1-3.251-3.25v-1.108h3.6a3.254,3.254,0,0,1,3.25,3.25Zm6.589,2.347a2.223,2.223,0,0,1-2.22,2.221h-3.1v-1.078a2.223,2.223,0,0,1,2.221-2.22h3.1Zm0,0" fill="#fff"/>
        <path id="Path_132" data-name="Path 132" d="M266.7,871.669a2.49,2.49,0,0,0-3.28-1.27l-.009,0-4.146,1.912a.635.635,0,0,0,.531,1.153l4.142-1.91a1.218,1.218,0,0,1,.979,2.23l-8.486,3.746a4.915,4.915,0,0,1-4.186-.094l-3.107-1.544a6.186,6.186,0,0,0-5.264-.119l-.061.027-2.321-5.257,3.222-1.423a6.41,6.41,0,0,1,4.824-.154l6.246,2.294a1.125,1.125,0,0,1-.748,2.122l-4.83-1.633a.635.635,0,1,0-.407,1.2l4.83,1.634a2.371,2.371,0,0,0,.764.126,2.4,2.4,0,0,0,.829-4.643l-6.246-2.294a7.68,7.68,0,0,0-5.774.184l-3.244,1.433a1.6,1.6,0,0,0-1.992-.593l-4.167,1.825a.637.637,0,0,0-.379.582v11.18a.634.634,0,0,0,.92.567l8.089-4.086a1.609,1.609,0,0,0,.882-1.9l.076-.033a4.918,4.918,0,0,1,4.187.094l3.106,1.543a6.179,6.179,0,0,0,5.264.119l8.486-3.746a2.49,2.49,0,0,0,1.27-3.28Zm-23.621,5.859a.339.339,0,0,1-.18.188l-.029.014-7.181,3.628V878.58l1.877-.922a.635.635,0,1,0-.56-1.139l-1.317.647v-5.542l3.788-1.66a.338.338,0,0,1,.446.173l2.985,6.76v0l.164.37a.342.342,0,0,1,.006.259Zm0,0" fill="#fff"/>
      </g>
    </g>
  </g>
</svg>
