<svg id="Component_6_1" data-name="Component 6 – 1" xmlns="http://www.w3.org/2000/svg" width="12.349" height="12.549" viewBox="0 0 12.349 12.549">
  <g id="Group_39" data-name="Group 39" transform="translate(-217.817 -171.249)">
    <path id="Path_61" data-name="Path 61" d="M223.071,181.758a5.255,5.255,0,1,1,5.255-5.254A5.26,5.26,0,0,1,223.071,181.758Zm0-8.036a2.782,2.782,0,1,0,2.782,2.782A2.785,2.785,0,0,0,223.071,173.722Z" fill="#fff"/>
  </g>
  <g id="Group_40" data-name="Group 40" transform="translate(-217.817 -171.249)">
    <rect id="Rectangle_35" data-name="Rectangle 35" width="2.472" height="1.669" transform="translate(224.935 180.315) rotate(-45)" fill="#fff"/>
  </g>
  <g id="Group_41" data-name="Group 41" transform="translate(-217.817 -171.249)">
    <path id="Path_62" data-name="Path 62" d="M228.93,183.8a1.235,1.235,0,0,1-.874-.362L225.6,180.98a1.236,1.236,0,0,1,1.748-1.748l2.455,2.456a1.236,1.236,0,0,1-.874,2.11Z" fill="#fff"/>
  </g>
</svg>
