<svg xmlns="http://www.w3.org/2000/svg" width="29.455" height="30.674" viewBox="0 0 29.455 30.674">
  <g id="Group_108" data-name="Group 108" transform="translate(-754.55 -850.944)">
    <g id="Group_107" data-name="Group 107">
      <g id="Group_105" data-name="Group 105">
        <g id="Group_89" data-name="Group 89">
          <path id="Path_148" data-name="Path 148" d="M755.078,869.112a.527.527,0,0,1-.417-.85l10.124-13.053.833.647-9.309,12,20.5-3.223.164,1.042-21.812,3.43A.58.58,0,0,1,755.078,869.112Z" fill="#fff"/>
        </g>
        <g id="Group_90" data-name="Group 90">
          <path id="Path_149" data-name="Path 149" d="M755.078,881.618a.527.527,0,0,1-.528-.527V868.585H755.6v11.889l26.547-4.174V865.491h1.055v11.26a.528.528,0,0,1-.446.521l-27.6,4.34A.571.571,0,0,1,755.078,881.618Z" fill="#fff"/>
        </g>
        <g id="Group_91" data-name="Group 91">
          <rect id="Rectangle_68" data-name="Rectangle 68" width="27.941" height="1.055" transform="translate(754.996 874.206) rotate(-8.934)" fill="#fff"/>
        </g>
        <g id="Group_92" data-name="Group 92">
          <path id="Path_150" data-name="Path 150" d="M766.939,857.429a3.243,3.243,0,1,1,3.243-3.243A3.246,3.246,0,0,1,766.939,857.429Zm0-5.43a2.188,2.188,0,1,0,2.188,2.187A2.19,2.19,0,0,0,766.939,852Z" fill="#fff"/>
        </g>
        <g id="Group_93" data-name="Group 93">
          <path id="Path_151" data-name="Path 151" d="M771.356,858.734a3.255,3.255,0,0,1-2.365-1.024l.769-.721a2.188,2.188,0,1,0,1.6-3.685,2.192,2.192,0,0,0-.554.071l-.266-1.021a3.243,3.243,0,1,1,.82,6.38Z" fill="#fff"/>
        </g>
        <g id="Group_94" data-name="Group 94">
          <path id="Path_152" data-name="Path 152" d="M775.332,861.071a3.222,3.222,0,0,1-2.914-1.819l.948-.464a2.187,2.187,0,1,0,1.685-3.129l-.135-1.047a3.385,3.385,0,0,1,.416-.026,3.242,3.242,0,1,1,0,6.485Z" fill="#fff"/>
        </g>
        <g id="Group_95" data-name="Group 95">
          <path id="Path_153" data-name="Path 153" d="M778.568,863.786a3.241,3.241,0,0,1-2.979-1.959l.968-.418a2.188,2.188,0,1,0,2.617-2.968l.291-1.014a3.243,3.243,0,0,1-.9,6.359Z" fill="#fff"/>
        </g>
        <g id="Group_96" data-name="Group 96">
          <path id="Path_154" data-name="Path 154" d="M780.762,866.971a3.263,3.263,0,0,1-3.029-2.084l.985-.377a2.188,2.188,0,1,0,3.267-2.6l.591-.874a3.243,3.243,0,0,1-1.814,5.931Z" fill="#fff"/>
        </g>
        <g id="Group_97" data-name="Group 97">
          <rect id="Rectangle_69" data-name="Rectangle 69" width="1.055" height="2.069" transform="translate(756.942 870.477) rotate(-59.587)" fill="#fff"/>
        </g>
        <g id="Group_98" data-name="Group 98">
          <rect id="Rectangle_70" data-name="Rectangle 70" width="1.412" height="1.055" transform="translate(761.947 871.837) rotate(-52.82)" fill="#fff"/>
        </g>
        <g id="Group_99" data-name="Group 99">
          <rect id="Rectangle_71" data-name="Rectangle 71" width="1.055" height="1.102" transform="matrix(0.774, -0.633, 0.633, 0.774, 763.705, 869.503)" fill="#fff"/>
        </g>
        <g id="Group_100" data-name="Group 100">
          <rect id="Rectangle_72" data-name="Rectangle 72" width="0.833" height="1.055" transform="translate(767.552 871.081) rotate(-65.23)" fill="#fff"/>
        </g>
        <g id="Group_101" data-name="Group 101">
          <rect id="Rectangle_73" data-name="Rectangle 73" width="1.055" height="1.823" transform="translate(769.555 868.486) rotate(-38.091)" fill="#fff"/>
        </g>
        <g id="Group_102" data-name="Group 102">
          <rect id="Rectangle_74" data-name="Rectangle 74" width="1.509" height="1.055" transform="translate(774.04 870.302) rotate(-62.448)" fill="#fff"/>
        </g>
        <g id="Group_103" data-name="Group 103">
          <rect id="Rectangle_75" data-name="Rectangle 75" width="1.055" height="1.489" transform="translate(776.933 868.069) rotate(-51.416)" fill="#fff"/>
        </g>
        <g id="Group_104" data-name="Group 104">
          <rect id="Rectangle_76" data-name="Rectangle 76" width="1.097" height="1.055" transform="matrix(0.389, -0.921, 0.921, 0.389, 779.724, 869.391)" fill="#fff"/>
        </g>
      </g>
      <g id="Group_106" data-name="Group 106">
        <path id="Path_155" data-name="Path 155" d="M759.924,866.165a2.441,2.441,0,0,1,.338-2.026,2.241,2.241,0,0,1,1.978-.706c.514.027,1.02.1,1.465.16.842.117,1.638.228,1.922-.048.141-.137.287-.5.182-1.427-.155-1.374.32-2.407,1.269-2.764,1.276-.48,3.543.31,6.083,3.966l-.866.6c-2.045-2.944-3.945-3.92-4.845-3.581-.675.254-.639,1.244-.593,1.659a2.645,2.645,0,0,1-.494,2.3c-.654.637-1.65.5-2.8.336-.445-.062-.905-.126-1.373-.15a1.287,1.287,0,0,0-1.1.312,1.4,1.4,0,0,0-.142,1.093Z" fill="#fff"/>
      </g>
    </g>
  </g>
</svg>
