<?xml version="1.0" standalone="no"?>
<!DOCTYPE svg PUBLIC "-//W3C//DTD SVG 20010904//EN"
 "http://www.w3.org/TR/2001/REC-SVG-20010904/DTD/svg10.dtd">
<svg version="1.0" xmlns="http://www.w3.org/2000/svg"
 width="1366.000000pt" height="3896.000000pt" viewBox="0 0 1366.000000 3896.000000"
 preserveAspectRatio="xMidYMid meet">

<g transform="translate(0.000000,3896.000000) scale(0.100000,-0.100000)"
fill="#000000" stroke="none">
<path d="M0 38227 l0 -732 6828 0 6827 0 3 733 2 732 -6830 0 -6830 0 0 -733z"/>
<path d="M1355 12233 c-9 -8 -14 -22 -11 -30 3 -8 2 -11 -4 -8 -5 3 -26 -31
-46 -75 -21 -44 -41 -80 -46 -80 -4 0 -8 -6 -8 -14 0 -7 -7 -19 -15 -26 -8 -7
-12 -16 -9 -21 3 -5 -18 0 -48 11 -29 12 -66 26 -83 32 -16 6 -32 14 -35 17
-3 3 -9 6 -15 7 -5 0 -27 8 -48 18 -33 15 -88 14 -73 -1 3 -3 -1 -18 -9 -34
-20 -37 -19 -44 8 -57 17 -8 18 -11 5 -11 -10 -1 -22 -9 -27 -20 -9 -17 1 -24
94 -67 l105 -48 -47 -14 c-27 -7 -61 -15 -78 -18 l-30 -5 32 18 c30 17 31 19
14 30 -14 9 -22 8 -36 -5 -17 -16 -17 -16 -12 1 7 20 -22 24 -41 5 -8 -8 -15
-8 -26 1 -11 9 -16 9 -22 0 -4 -8 -3 -9 4 -5 7 4 12 2 12 -4 0 -6 -12 -15 -26
-20 -14 -6 -22 -15 -19 -20 4 -6 1 -9 -5 -8 -14 3 -17 -3 -62 -97 -18 -38 -36
-73 -41 -76 -5 -4 -17 -24 -27 -45 l-17 -39 31 -18 c17 -10 23 -16 14 -13 -26
8 -48 -3 -48 -24 0 -13 30 -32 106 -69 l107 -52 82 56 c45 30 89 55 98 55 9 0
19 4 22 10 3 5 28 7 58 4 29 -4 68 -7 87 -8 57 -4 62 -5 58 -18 -2 -6 -28 -12
-62 -13 -51 -1 -61 -5 -78 -28 -12 -17 -29 -27 -45 -27 -15 0 -23 -5 -20 -12
2 -7 13 -12 23 -11 10 1 13 0 7 -3 -20 -9 -15 -33 5 -29 25 4 35 -5 22 -20
-11 -13 2 -21 49 -30 9 -2 18 -4 20 -4 2 -1 -2 -8 -9 -16 -17 -20 -5 -32 15
-15 9 7 15 8 15 2 0 -6 3 -18 6 -27 4 -10 2 -15 -6 -13 -7 2 -15 -3 -17 -9 -3
-7 -1 -13 4 -13 14 0 28 14 40 41 12 28 43 42 64 29 9 -6 9 -12 -4 -25 -21
-20 -21 -20 2 -22 10 -1 23 8 29 20 10 21 11 21 11 2 1 -17 3 -18 11 -5 9 13
12 13 21 -2 11 -20 39 -24 39 -7 0 6 -7 9 -15 5 -14 -5 -17 1 -29 66 -3 12 4
16 30 16 28 0 34 -4 39 -29 5 -22 10 -27 19 -20 7 6 17 6 26 1 8 -5 19 -6 25
-2 7 4 7 1 -1 -9 -25 -34 -2 -56 39 -36 10 5 21 6 24 3 3 -3 -7 -10 -23 -17
l-29 -11 30 -12 c18 -8 35 -10 41 -5 13 11 6 60 -11 74 -7 6 -15 22 -19 38 -4
15 -13 27 -22 27 -8 0 -12 4 -9 10 10 16 -10 42 -44 56 -18 7 -30 10 -27 5 3
-4 -1 -8 -9 -8 -8 0 -12 4 -10 8 9 13 -25 19 -51 9 -22 -9 -24 -13 -14 -25 11
-13 10 -14 -4 -9 -9 3 -16 10 -16 15 0 5 -11 15 -25 21 -14 6 -25 18 -24 27 0
11 2 12 6 3 3 -8 18 0 46 25 23 21 41 40 40 44 -5 17 103 -26 120 -47 10 -13
25 -24 33 -24 8 0 17 -7 20 -15 4 -8 12 -15 20 -15 8 0 14 -6 14 -13 0 -7 9
-23 20 -35 11 -12 20 -25 20 -30 0 -12 39 -52 50 -52 5 0 7 7 4 15 -4 8 -12
15 -19 15 -19 0 -30 40 -15 54 10 8 11 8 5 -4 -8 -13 -6 -13 7 -2 9 8 19 26
21 40 l4 27 2 -27 c0 -16 5 -28 10 -28 5 0 7 8 4 19 -7 26 17 38 33 17 11 -16
13 -16 19 2 3 11 7 43 8 71 1 53 16 72 18 24 1 -22 4 -18 16 20 14 45 13 50
-4 64 -16 13 -16 14 -1 9 24 -7 33 12 18 39 -17 31 -34 37 -67 22 -21 -9 -27
-9 -31 1 -6 18 -49 15 -60 -4 -8 -15 -10 -15 -15 0 -8 21 -58 21 -100 0 -31
-15 -32 -15 -11 3 12 10 25 25 30 34 5 9 30 35 56 57 l48 41 98 -3 98 -3 47
102 c26 56 47 107 47 113 0 6 -9 13 -19 17 -11 3 -22 12 -25 20 -3 8 -24 19
-47 25 -50 14 -52 12 -105 -85 -20 -38 -41 -73 -46 -76 -5 -3 -6 -13 -3 -21 4
-9 1 -19 -6 -24 -8 -5 -10 -3 -4 6 6 10 4 12 -9 7 -10 -4 -21 -7 -24 -7 -4 0
0 -5 8 -10 13 -8 12 -10 -3 -10 -10 0 -37 20 -60 45 -31 33 -46 42 -57 35 -8
-5 -44 -9 -81 -8 -37 0 -73 -3 -81 -7 -7 -3 -5 0 5 8 20 16 22 28 5 25 -26 -6
-16 35 37 146 55 115 60 142 25 133 -13 -3 -16 0 -13 14 3 11 4 19 2 19 -2 0
-25 7 -51 15 -42 12 -49 12 -63 -2z m2 -295 c-3 -8 -6 -5 -6 6 -1 11 2 17 5
13 3 -3 4 -12 1 -19z m9 -44 c-4 -14 -20 -40 -37 -58 -16 -17 -29 -26 -27 -21
2 6 -1 10 -7 10 -5 0 -9 -3 -7 -7 1 -5 -8 -9 -20 -9 -17 -1 -19 -2 -5 -6 9 -2
17 -9 17 -15 0 -5 -7 -8 -15 -4 -8 3 -19 -3 -25 -12 -9 -14 -10 -12 -5 11 3
16 -1 40 -11 60 -10 20 -12 27 -3 20 17 -17 29 -16 29 1 0 8 5 18 12 22 6 4 8
3 5 -3 -4 -6 -1 -16 7 -22 10 -9 16 -8 26 4 7 8 19 15 26 15 8 0 14 9 14 20 0
12 7 20 16 20 12 0 15 -6 10 -26z m-163 -73 c16 -16 1 -24 -23 -11 -11 6 -31
9 -43 6 -12 -3 -16 -3 -8 0 11 5 11 8 0 14 -7 5 4 7 26 5 21 -2 42 -8 48 -14z
m285 13 c-6 -5 -29 -11 -53 -13 -5 -1 -3 -6 5 -12 12 -9 12 -10 -3 -5 -10 3
-24 6 -30 6 -6 0 -2 7 9 15 18 13 84 22 72 9z m-180 -54 c-7 -11 -16 -20 -20
-20 -5 0 -3 9 4 20 7 11 16 20 20 20 5 0 3 -9 -4 -20z m79 4 c-3 -3 -12 -4
-19 -1 -8 3 -5 6 6 6 11 1 17 -2 13 -5z m-274 -11 c-7 -2 -21 -2 -30 0 -10 3
-4 5 12 5 17 0 24 -2 18 -5z m157 -7 c0 -3 -4 -8 -10 -11 -5 -3 -10 -1 -10 4
0 6 5 11 10 11 6 0 10 -2 10 -4z m241 -12 l34 -15 -34 5 c-18 4 -45 6 -60 7
l-26 1 25 8 c14 4 26 8 26 9 1 1 17 -6 35 -15z m-94 -10 c-3 -3 -12 -4 -19 -1
-8 3 -5 6 6 6 11 1 17 -2 13 -5z m-392 -14 c-3 -5 -16 -15 -28 -21 -19 -9 -19
-8 3 10 28 23 34 26 25 11z m-58 -36 c-3 -3 -12 -4 -19 -1 -8 3 -5 6 6 6 11 1
17 -2 13 -5z m253 -17 c0 -2 -15 -16 -32 -33 l-33 -29 29 33 c28 30 36 37 36
29z m40 -43 c0 -19 -4 -33 -9 -30 -5 4 -8 14 -6 24 2 9 4 23 4 30 2 28 11 9
11 -24z m171 19 c13 -15 12 -15 -8 -4 -24 12 -29 21 -14 21 5 0 15 -7 22 -17z
m-119 -18 c10 -4 13 -17 10 -42 l-5 -37 -17 35 c-21 42 -17 55 12 44z m55 -52
c-3 -10 -5 -4 -5 12 0 17 2 24 5 18 2 -7 2 -21 0 -30z m-207 23 c0 -2 -8 -10
-17 -17 -16 -13 -17 -12 -4 4 13 16 21 21 21 13z m-60 -24 c0 -5 -7 -17 -15
-28 -14 -18 -14 -17 -4 9 12 27 19 34 19 19z m677 -64 c-3 -8 -6 -5 -6 6 -1
11 2 17 5 13 3 -3 4 -12 1 -19z m-44 -15 c-7 -2 -19 -2 -25 0 -7 3 -2 5 12 5
14 0 19 -2 13 -5z m-391 -45 c-8 -8 -9 -4 -5 13 4 13 8 18 11 10 2 -7 -1 -18
-6 -23z m375 12 c-4 -17 -1 -18 27 -13 22 4 28 2 21 -5 -5 -6 -22 -13 -36 -16
-21 -3 -26 -1 -24 12 2 10 4 23 4 30 1 6 4 12 7 12 4 0 4 -9 1 -20z m-423 -56
c3 -8 2 -12 -4 -9 -6 3 -10 10 -10 16 0 14 7 11 14 -7z m-90 -42 c-4 -9 -6
-24 -5 -32 1 -10 -2 -9 -10 4 -9 14 -8 24 2 43 14 27 26 14 13 -15z m99 -90
c-20 -22 -26 -24 -33 -12 -7 11 -3 20 12 31 34 26 50 12 21 -19z m-82 3 c5 4
9 2 9 -4 0 -5 -4 -12 -9 -15 -9 -6 -22 17 -20 37 1 7 3 4 6 -6 2 -9 9 -15 14
-12z"/>
<path d="M995 12181 c-3 -5 -1 -12 5 -16 5 -3 10 1 10 9 0 18 -6 21 -15 7z"/>
<path d="M1179 12173 c-1 -5 -1 -17 0 -28 0 -11 -2 -14 -5 -7 -7 15 -44 16
-44 1 0 -5 6 -7 13 -3 9 5 9 4 0 -6 -6 -7 -9 -20 -5 -29 5 -14 3 -14 -11 -2
-9 7 -15 16 -13 20 3 4 1 13 -3 20 -5 7 -8 1 -9 -17 0 -22 5 -31 19 -35 10 -3
22 -1 25 4 3 5 10 7 15 4 5 -4 9 1 9 10 0 9 4 14 8 11 5 -3 9 10 9 29 0 31 -5
48 -8 28z"/>
<path d="M1069 12148 c-1 -7 0 -20 1 -27 1 -13 -1 -13 -17 -1 -10 8 -15 10
-11 6 4 -5 0 -15 -10 -22 -9 -7 -13 -16 -9 -20 4 -5 12 -2 16 5 6 9 11 10 15
2 13 -21 36 -12 36 14 0 14 -6 25 -12 25 -10 0 -9 3 1 9 9 6 10 11 2 15 -6 4
-12 1 -12 -6z"/>
<path d="M1705 11900 c-3 -6 1 -7 9 -4 18 7 21 14 7 14 -6 0 -13 -4 -16 -10z"/>
<path d="M1652 11848 c2 -5 8 -9 13 -9 5 0 11 4 13 9 1 5 -4 9 -13 9 -9 0 -14
-4 -13 -9z"/>
<path d="M2276 11791 c-15 -22 -26 -45 -26 -51 0 -5 -4 -10 -10 -10 -5 0 -10
-8 -10 -17 0 -10 -11 -40 -24 -66 l-24 -48 22 -27 c94 -114 133 -322 102 -531
-25 -166 -100 -279 -251 -379 -105 -69 -255 -107 -387 -98 -56 4 -89 3 -93 -4
-11 -18 -121 -87 -168 -105 -38 -14 -51 -15 -82 -5 -28 9 -43 9 -65 0 -17 -7
-37 -9 -47 -5 -19 9 -65 13 -174 17 -51 2 -74 9 -105 29 -76 51 -152 137 -136
154 4 5 1 5 -6 1 -14 -9 -65 95 -76 156 -6 35 -9 37 -51 44 -25 3 -45 10 -45
14 0 4 -21 15 -47 25 -27 10 -57 24 -68 32 -25 17 -43 16 -79 -2 -23 -12 -26
-12 -17 -1 9 10 8 15 -3 19 -8 3 -19 0 -24 -6 -9 -11 -61 -125 -94 -204 -7
-18 -16 -33 -20 -33 -5 0 -8 -9 -8 -20 0 -16 26 -32 116 -77 64 -31 123 -56
130 -56 8 0 14 -4 14 -9 0 -5 12 -6 27 -3 21 4 23 3 9 -3 -17 -7 -11 -13 38
-41 40 -23 66 -32 87 -29 18 3 29 0 29 -8 0 -6 15 -17 33 -24 17 -7 78 -35
135 -62 56 -27 107 -46 114 -42 7 5 8 3 3 -6 -6 -10 -4 -12 8 -7 9 3 18 0 21
-9 8 -20 98 -75 113 -70 23 9 24 -13 4 -59 -13 -30 -35 -55 -67 -77 -109 -75
-149 -114 -182 -177 -43 -83 -43 -131 -2 -173 28 -27 36 -30 76 -25 95 10 165
107 204 280 12 56 32 120 43 142 12 22 20 43 19 48 -3 10 -1 10 64 -22 32 -15
88 -41 124 -57 36 -15 79 -39 96 -52 29 -23 30 -26 14 -42 -9 -9 -20 -40 -23
-69 -3 -29 -28 -105 -54 -169 -38 -93 -48 -132 -51 -189 l-4 -73 78 1 c44 0
87 4 98 8 13 5 42 65 92 185 40 98 80 189 88 202 14 21 14 24 0 32 -15 8 -15
10 0 15 8 3 18 1 22 -4 6 -11 91 -50 98 -46 2 1 13 -6 23 -15 11 -10 33 -20
49 -24 29 -5 31 -3 67 76 21 44 35 85 32 91 -4 5 1 9 9 9 19 0 20 -4 6 -28
-14 -23 -70 -163 -70 -173 0 -5 10 -17 22 -29 26 -24 19 -37 -11 -18 -30 18
-39 3 -47 -78 -8 -86 14 -177 48 -195 13 -7 48 -10 91 -6 59 4 73 8 88 28 26
34 66 119 79 170 17 66 134 338 201 469 152 296 174 335 201 348 20 9 32 10
51 1 43 -20 47 -44 27 -180 -33 -217 -50 -372 -50 -434 0 -34 -6 -85 -14 -116
-8 -30 -16 -103 -18 -162 -2 -87 0 -110 12 -117 19 -12 151 -13 182 -1 16 6
31 28 47 67 13 33 32 73 43 90 10 18 27 58 38 90 11 31 31 76 44 98 13 23 35
72 50 109 33 84 239 480 272 524 28 38 56 48 84 33 37 -20 39 -48 15 -191 -12
-74 -31 -186 -40 -249 -10 -63 -30 -149 -45 -190 -42 -114 -46 -165 -18 -220
20 -39 28 -45 59 -48 32 -3 41 2 80 46 25 28 52 72 63 103 24 70 77 170 215
404 146 248 152 255 200 255 47 0 81 -33 81 -78 0 -43 -26 -214 -45 -293 -28
-118 -12 -209 39 -228 63 -25 102 6 369 284 141 148 333 299 466 367 105 54
181 100 151 92 -141 -38 -446 -234 -648 -416 -80 -73 -127 -98 -166 -90 -15 3
-16 6 -5 13 11 7 9 9 -6 9 -32 0 -81 35 -94 67 -10 26 -9 45 12 129 14 55 43
148 66 208 22 60 41 121 41 135 0 42 -20 101 -40 121 -19 19 -20 19 -70 -7
-28 -15 -70 -44 -93 -66 -23 -22 -35 -36 -27 -32 10 6 8 1 -4 -13 -24 -28 -29
-28 -20 1 10 32 0 19 -30 -42 -15 -29 -22 -50 -16 -46 15 9 -17 -53 -40 -80
-10 -11 -42 -60 -72 -110 -112 -185 -183 -286 -205 -291 -30 -8 -70 5 -52 17
11 7 11 9 -3 9 -28 0 -41 37 -34 93 9 66 72 349 93 412 8 28 37 100 64 161 54
122 64 195 34 258 -15 31 -55 65 -55 46 0 -5 -27 -23 -59 -40 -33 -16 -62 -34
-66 -40 -10 -16 -35 -12 -29 5 4 8 3 15 0 15 -9 0 -62 -109 -106 -220 -22 -56
-52 -124 -66 -151 -13 -27 -22 -55 -18 -61 4 -7 3 -8 -4 -4 -8 4 -59 -89 -148
-268 -74 -151 -137 -281 -138 -290 -1 -8 -6 -19 -11 -23 -4 -4 -5 -1 -1 7 4 8
-2 4 -13 -10 -11 -14 -19 -30 -16 -37 5 -14 -29 -59 -56 -73 -21 -12 -64 4
-54 19 3 5 -2 11 -10 14 -8 4 -22 32 -31 64 -19 65 -16 167 9 273 9 36 26 132
38 214 20 140 25 157 74 255 108 217 128 288 107 366 -12 42 -62 105 -84 105
-10 0 -10 -2 1 -9 21 -14 6 -27 -45 -40 -51 -13 -67 -9 -35 9 27 14 27 30 1
30 -33 0 -113 -83 -142 -147 -15 -32 -50 -114 -78 -183 -28 -69 -82 -181 -120
-250 -37 -69 -111 -211 -163 -316 -74 -147 -102 -193 -122 -202 -32 -15 -51
-15 -76 -2 -18 10 -18 12 7 61 14 28 81 173 149 323 67 149 143 315 169 369
25 55 46 108 46 119 0 10 4 17 8 14 5 -3 19 25 32 62 13 37 26 72 30 77 4 6
11 51 15 100 8 97 21 146 66 239 33 68 34 73 16 57 -8 -6 -22 -30 -32 -53 -10
-24 -24 -50 -31 -58 -7 -8 -17 -38 -22 -65 -5 -28 -10 -42 -11 -32 -1 12 -24
29 -68 50 -38 18 -79 39 -93 47 -14 8 -27 15 -30 15 -21 4 -50 18 -50 25 0 4
-16 11 -35 14 -20 4 -35 13 -35 21 0 7 23 64 51 127 28 62 55 124 60 137 9 22
8 23 -7 10 -16 -13 -16 -12 -6 8 13 24 1 40 -20 27 -8 -5 -9 -2 -5 9 7 19 -11
31 -60 41 -29 7 -34 4 -57 -33z m137 -561 c23 -10 45 -16 49 -14 4 3 8 1 8 -4
0 -10 64 -42 85 -42 8 0 15 -6 15 -12 0 -10 3 -9 9 1 5 7 15 11 22 8 9 -3 0
-11 -23 -21 -20 -9 -39 -20 -43 -26 -8 -13 -25 -13 -25 1 0 5 5 7 10 4 6 -3
10 -1 10 5 0 16 -77 47 -123 49 -10 1 -16 5 -13 9 2 4 -11 18 -30 31 -65 45
-39 50 49 11z m37 -318 c0 -5 -7 -17 -15 -28 -14 -18 -14 -17 -4 9 12 27 19
34 19 19z m-32 -89 c1 -31 -1 -34 -9 -20 -8 14 -5 57 5 57 2 0 3 -17 4 -37z
m-1888 -7 c0 -11 -19 -15 -25 -6 -3 5 1 10 9 10 9 0 16 -2 16 -4z m-183 -38
c-3 -8 -6 -5 -6 6 -1 11 2 17 5 13 3 -3 4 -12 1 -19z m1953 -84 c23 -9 51 -14
67 -10 l28 6 -25 -15 c-35 -20 -49 -19 -95 10 -46 28 -34 32 25 9z m-1910 -64
c0 -5 -5 -10 -11 -10 -5 0 -7 5 -4 10 3 6 8 10 11 10 2 0 4 -4 4 -10z m118
-15 c-3 -3 -9 2 -12 12 -6 14 -5 15 5 6 7 -7 10 -15 7 -18z m-92 -21 c19 -15
19 -15 -1 -6 -11 5 -27 12 -35 15 -13 5 -13 6 1 6 8 1 24 -6 35 -15z m1761
-230 c16 6 32 -21 26 -44 -4 -15 -9 -14 -34 11 -16 16 -35 29 -42 29 -7 0 -22
7 -33 15 -17 13 -13 13 26 0 24 -9 50 -13 57 -11z m-175 -118 c59 -25 119 -46
132 -46 l25 0 -22 -34 c-12 -18 -26 -31 -31 -28 -5 3 -6 -1 -1 -7 8 -14 -13
-61 -27 -61 -5 0 -4 9 2 19 13 25 13 34 0 26 -7 -4 -7 3 0 20 6 15 10 28 10
30 0 5 -152 89 -192 105 -21 9 -43 21 -50 28 -18 18 28 2 154 -52z m195 12
c-3 -8 -6 -5 -6 6 -1 11 2 17 5 13 3 -3 4 -12 1 -19z m-507 -284 c0 -11 -43
13 -51 28 -10 18 -8 18 20 -3 17 -12 31 -24 31 -25z m35 -14 c3 -6 -1 -7 -9
-4 -18 7 -21 14 -7 14 6 0 13 -4 16 -10z"/>
<path d="M1932 11608 c-6 -6 -12 -23 -12 -36 0 -13 -4 -20 -10 -17 -6 3 -7 18
-4 32 5 19 3 24 -7 21 -8 -3 -15 -13 -15 -24 -1 -10 -2 -25 -3 -33 -1 -10 -4
-11 -15 -2 -12 10 -15 4 -21 -30 -5 -28 -3 -44 4 -49 7 -4 10 -19 7 -34 -4
-21 -1 -26 9 -23 7 3 16 -1 19 -9 7 -19 23 -18 30 4 8 25 50 27 43 3 -8 -31 7
-45 32 -32 13 7 21 8 21 2 0 -6 7 -7 17 -4 11 4 14 3 9 -5 -10 -16 2 -15 17 1
7 6 12 21 12 32 0 11 7 20 15 21 41 3 43 4 31 17 -8 10 -7 17 1 25 6 6 8 15 4
19 -4 4 -10 2 -15 -5 -5 -9 -12 -8 -27 3 -13 11 -14 13 -3 9 22 -7 34 25 13
33 -21 8 -34 -8 -37 -44 -1 -20 -6 -29 -14 -26 -8 3 -13 -3 -13 -13 0 -11 -14
-27 -30 -36 -37 -21 -37 -19 -4 18 32 37 57 84 45 84 -6 0 -8 8 -4 18 6 15 3
14 -17 -3 l-23 -20 19 30 c17 27 17 28 1 22 -12 -4 -17 -1 -17 9 0 11 -6 15
-20 11 -11 -3 -18 -2 -16 1 2 4 1 15 -3 25 -5 14 -9 15 -19 5z"/>
<path d="M2761 11578 c-1 -10 -5 -18 -11 -18 -5 0 -10 -10 -10 -22 1 -22 2
-21 16 5 8 16 13 34 10 40 -2 7 -5 4 -5 -5z"/>
<path d="M2650 11499 c0 -5 5 -7 10 -4 6 3 10 8 10 11 0 2 -4 4 -10 4 -5 0
-10 -5 -10 -11z"/>
<path d="M2500 11496 c0 -2 7 -7 16 -10 8 -3 12 -2 9 4 -6 10 -25 14 -25 6z"/>
<path d="M2460 11450 c0 -12 -4 -18 -10 -15 -15 9 -12 -11 4 -24 10 -9 16 -9
21 -1 4 6 15 8 24 5 10 -3 24 1 31 10 7 8 16 12 21 9 5 -3 9 -1 9 5 0 5 -4 13
-10 16 -5 3 -10 1 -10 -5 0 -6 -4 -8 -10 -5 -5 3 -10 -2 -10 -12 -1 -17 -1
-17 -11 -1 -5 10 -19 22 -29 28 -17 9 -20 7 -20 -10z"/>
<path d="M2593 11463 c4 -3 2 -12 -4 -20 -9 -9 -8 -13 0 -13 6 0 11 -7 11 -16
0 -8 5 -12 10 -9 6 3 10 2 10 -3 0 -6 -6 -12 -14 -15 -10 -4 -16 2 -18 16 -3
20 -4 19 -9 -5 -6 -26 -4 -28 27 -25 23 1 33 6 29 15 -2 7 2 15 11 19 13 5 13
7 2 14 -8 6 -9 9 -1 9 6 0 9 9 6 20 -6 23 -19 26 -26 8 -4 -10 -6 -10 -6 0 -1
6 -8 12 -18 12 -9 0 -13 -3 -10 -7z"/>
<path d="M1115 11420 c3 -5 8 -10 11 -10 2 0 4 5 4 10 0 6 -5 10 -11 10 -5 0
-7 -4 -4 -10z"/>
<path d="M616 11405 c-24 -24 -128 -246 -122 -261 3 -8 0 -11 -10 -7 -9 3 -14
-1 -14 -13 0 -11 -7 -28 -15 -38 -20 -26 -19 -31 8 -43 l22 -11 -27 -11 c-26
-10 -39 -23 -20 -20 19 3 26 -2 13 -10 -10 -6 25 -28 119 -75 l132 -66 -6 33
c-23 111 -10 244 29 287 8 9 15 21 15 26 0 6 24 39 54 75 l53 65 -94 42 c-104
47 -115 49 -137 27z"/>
<path d="M2556 11405 c-3 -9 -12 -12 -23 -8 -14 5 -16 3 -6 -7 14 -16 43 -6
43 15 0 19 -6 19 -14 0z"/>
<path d="M1335 11400 c-3 -5 -1 -10 4 -10 6 0 11 5 11 10 0 6 -2 10 -4 10 -3
0 -8 -4 -11 -10z"/>
<path d="M2125 11370 c-10 -11 -23 -20 -30 -20 -12 0 -52 -39 -47 -46 7 -12 0
-34 -12 -34 -8 0 -16 -7 -20 -15 -8 -22 33 -13 122 26 48 22 50 24 22 26 -11
1 -20 -2 -20 -8 0 -5 -5 -9 -11 -9 -8 0 -7 5 2 16 16 20 20 42 8 50 -5 3 -7
10 -3 15 3 5 10 6 16 3 7 -4 8 -2 4 4 -9 16 -10 15 -31 -8z m5 -40 c0 -5 -5
-10 -11 -10 -5 0 -7 5 -4 10 3 6 8 10 11 10 2 0 4 -4 4 -10z"/>
<path d="M1030 11370 c0 -5 4 -10 9 -10 6 0 13 5 16 10 3 6 -1 10 -9 10 -9 0
-16 -4 -16 -10z"/>
<path d="M1970 11350 c-14 -10 -21 -22 -17 -26 4 -4 7 -2 7 4 0 7 6 12 14 12
8 0 16 7 20 15 7 19 6 19 -24 -5z"/>
<path d="M1040 11340 c0 -5 7 -10 16 -10 8 0 12 5 9 10 -3 6 -10 10 -16 10 -5
0 -9 -4 -9 -10z"/>
<path d="M1020 11332 c0 -12 19 -26 26 -19 2 2 -2 10 -11 17 -9 8 -15 8 -15 2z"/>
<path d="M1712 11314 c-11 -20 8 -84 25 -84 8 0 13 13 13 30 0 17 -5 30 -10
30 -7 0 -7 6 0 20 8 16 8 20 -4 20 -8 0 -19 -7 -24 -16z"/>
<path d="M944 11288 c3 -13 5 -29 5 -35 1 -15 37 -18 46 -4 3 5 1 12 -5 16 -5
3 -10 1 -10 -4 0 -6 -5 -11 -11 -11 -5 0 -7 5 -4 10 3 6 2 10 -4 10 -6 0 -8 6
-5 14 3 8 1 17 -5 21 -7 4 -10 -2 -7 -17z"/>
<path d="M1820 11281 c-13 -25 -13 -31 0 -31 6 0 10 9 10 19 0 11 6 22 13 24
9 4 9 6 0 6 -7 1 -17 -8 -23 -18z"/>
<path d="M1005 11280 c-4 -6 -3 -16 3 -22 6 -6 12 -6 17 2 4 6 3 16 -3 22 -6
6 -12 6 -17 -2z"/>
<path d="M1393 11275 c0 -7 6 -11 14 -8 7 3 13 6 13 8 0 2 -6 5 -13 8 -8 3
-14 -1 -14 -8z"/>
<path d="M885 11260 c-3 -6 1 -7 9 -4 18 7 21 14 7 14 -6 0 -13 -4 -16 -10z"/>
<path d="M2149 11253 c-9 -10 -8 -13 4 -13 8 0 20 6 26 13 8 10 7 14 -4 14 -9
0 -20 -6 -26 -14z"/>
<path d="M1054 11245 c8 -8 16 -15 19 -15 2 0 4 7 4 15 0 8 -9 15 -19 15 -17
0 -18 -2 -4 -15z"/>
<path d="M2060 11233 c-24 -13 -23 -13 23 -11 26 1 47 5 47 10 0 4 -3 8 -7 9
-5 0 -15 2 -23 3 -8 1 -26 -3 -40 -11z"/>
<path d="M1094 11229 c-3 -6 2 -18 12 -27 17 -16 17 -16 5 0 -7 9 -10 22 -6
28 3 5 4 10 1 10 -3 0 -8 -5 -12 -11z"/>
<path d="M1000 11216 c0 -8 5 -18 12 -22 6 -4 8 -3 4 4 -3 6 2 15 11 21 16 9
16 10 -4 11 -14 0 -23 -6 -23 -14z"/>
<path d="M1460 11209 c0 -5 5 -7 10 -4 6 3 10 8 10 11 0 2 -4 4 -10 4 -5 0
-10 -5 -10 -11z"/>
<path d="M1030 11179 c0 -5 9 -9 20 -9 11 0 20 2 20 4 0 2 -9 6 -20 9 -11 3
-20 1 -20 -4z"/>
<path d="M1343 11183 c4 -3 0 -15 -10 -25 -20 -22 -11 -24 11 -2 19 18 21 34
4 34 -6 0 -8 -3 -5 -7z"/>
<path d="M1407 11183 c-12 -11 -7 -33 7 -33 7 0 16 9 19 20 5 19 -12 28 -26
13z"/>
<path d="M1497 11169 c-10 -6 -25 -8 -33 -5 -14 5 -20 -15 -8 -27 8 -8 64 24
64 35 0 10 -1 10 -23 -3z"/>
<path d="M1960 11176 c0 -2 7 -6 15 -10 8 -3 15 -1 15 4 0 6 -7 10 -15 10 -8
0 -15 -2 -15 -4z"/>
<path d="M905 11150 c3 -5 8 -10 11 -10 2 0 4 5 4 10 0 6 -5 10 -11 10 -5 0
-7 -4 -4 -10z"/>
<path d="M931 11146 c2 -2 18 -6 34 -10 22 -5 26 -4 15 4 -14 9 -59 15 -49 6z"/>
<path d="M1998 11139 c-27 -16 -21 -26 12 -21 25 3 29 1 24 -12 -7 -18 20 -23
31 -6 3 5 12 7 20 4 8 -3 24 1 37 10 12 9 17 16 11 16 -7 0 -15 -4 -18 -10
-10 -16 -34 -12 -52 10 -19 22 -39 25 -65 9z"/>
<path d="M2088 11143 c6 -2 18 -2 25 0 6 3 1 5 -13 5 -14 0 -19 -2 -12 -5z"/>
<path d="M2156 11141 c-4 -6 -2 -11 5 -11 7 0 4 -7 -7 -15 -16 -12 -17 -14 -3
-15 20 0 30 22 19 39 -5 9 -10 10 -14 2z"/>
<path d="M810 11126 c0 -9 7 -12 20 -9 11 3 17 9 14 14 -8 14 -34 10 -34 -5z"/>
<path d="M1490 11131 c0 -5 -20 -9 -45 -9 -57 -2 -65 -6 -59 -38 3 -18 1 -23
-7 -18 -8 4 -9 3 -5 -4 4 -7 16 -12 27 -12 11 0 17 5 14 10 -3 6 1 10 9 10 8
0 18 9 21 21 6 17 13 20 35 15 20 -3 30 -1 34 10 8 22 8 24 -9 24 -8 0 -15 -4
-15 -9z m-56 -30 c-8 -8 -34 -10 -38 -2 -3 4 6 7 19 7 14 0 22 -2 19 -5z"/>
<path d="M1575 11120 c-16 -17 -16 -20 -3 -15 9 4 19 13 22 21 7 19 2 18 -19
-6z"/>
<path d="M886 11122 c-2 -4 11 -6 30 -4 19 2 34 6 34 8 0 8 -59 4 -64 -4z"/>
<path d="M827 11089 c10 -12 37 -15 85 -10 26 3 -5 14 -49 19 -39 4 -46 2 -36
-9z"/>
<path d="M1528 11093 c7 -3 16 -2 19 1 4 3 -2 6 -13 5 -11 0 -14 -3 -6 -6z"/>
<path d="M1915 11080 c3 -5 11 -10 16 -10 6 0 7 5 4 10 -3 6 -11 10 -16 10 -6
0 -7 -4 -4 -10z"/>
<path d="M1960 11080 c-12 -8 -10 -10 8 -10 13 0 20 4 17 10 -7 12 -6 12 -25
0z"/>
<path d="M2070 11080 c0 -5 -8 -7 -17 -4 -13 4 -14 3 -5 -3 15 -12 74 -4 66 8
-7 12 -44 11 -44 -1z"/>
<path d="M963 11053 c-15 -5 -17 -23 -4 -23 5 0 11 7 15 15 3 8 4 15 3 14 -1
0 -8 -3 -14 -6z"/>
<path d="M834 11015 c11 -8 24 -15 30 -15 5 0 1 7 -10 15 -10 8 -23 14 -29 14
-5 0 -1 -6 9 -14z"/>
<path d="M2090 11010 c0 -5 9 -10 21 -10 11 0 17 -4 14 -10 -3 -5 -2 -10 3
-10 16 0 22 13 11 27 -13 15 -49 18 -49 3z"/>
<path d="M950 11002 c0 -4 15 -13 33 -19 l32 -12 -24 19 c-24 21 -41 26 -41
12z"/>
<path d="M1395 11000 c-8 -13 5 -13 25 0 13 8 13 10 -2 10 -9 0 -20 -4 -23
-10z"/>
<path d="M1780 10994 c0 -7 7 -14 15 -18 9 -3 12 -12 9 -23 -4 -13 -3 -14 3
-5 7 10 15 8 33 -8 23 -20 25 -20 31 -3 4 10 8 12 8 5 1 -7 6 -10 11 -7 6 3
13 -1 16 -9 3 -9 9 -14 13 -12 4 3 7 -7 6 -22 0 -20 5 -27 20 -27 14 0 19 6
17 19 -3 15 1 18 19 13 33 -9 129 13 129 29 0 8 -5 14 -11 14 -5 0 -7 -4 -4
-10 3 -5 2 -10 -4 -10 -5 0 -13 5 -16 10 -4 6 -16 8 -27 4 -15 -4 -18 -3 -13
6 6 9 4 11 -5 5 -10 -6 -9 -11 6 -23 18 -14 18 -14 1 -8 -10 3 -23 6 -28 6 -6
0 -8 4 -5 9 4 5 -9 6 -29 1 -24 -5 -34 -4 -32 4 1 6 -7 9 -18 8 -16 -3 -17 -1
-8 9 10 10 15 10 28 -1 8 -7 15 -11 16 -9 10 44 6 49 -38 49 -27 0 -42 -4 -38
-10 3 -6 -1 -7 -9 -4 -9 3 -13 10 -10 15 3 5 -3 10 -13 10 -63 5 -73 4 -73 -7z"/>
<path d="M2000 10990 c0 -18 5 -19 43 -16 23 3 48 5 56 5 33 2 -26 30 -61 31
-31 0 -38 -4 -38 -20z"/>
<path d="M1077 10989 c7 -7 15 -10 18 -7 3 3 -2 9 -12 12 -14 6 -15 5 -6 -5z"/>
<path d="M895 10980 c-3 -5 3 -10 15 -10 12 0 18 5 15 10 -3 6 -10 10 -15 10
-5 0 -12 -4 -15 -10z"/>
<path d="M805 10969 c-4 -5 -4 -13 0 -18 3 -5 1 -12 -4 -16 -5 -3 -9 -14 -8
-25 1 -12 5 -16 12 -10 6 5 22 7 36 4 l24 -5 -22 12 c-36 19 -27 31 20 25 l42
-5 -33 17 c-18 10 -31 20 -28 23 3 3 -4 5 -14 6 -11 1 -22 -2 -25 -8z"/>
<path d="M1428 10958 c3 -13 14 -30 24 -39 10 -9 18 -21 18 -28 0 -6 5 -11 11
-11 6 0 8 8 4 20 -5 15 0 21 19 26 14 3 26 10 26 16 0 5 -4 7 -9 3 -5 -3 -12
-1 -16 5 -3 5 -12 10 -18 10 -7 0 -6 -4 3 -10 13 -8 12 -10 -3 -10 -10 0 -15
-4 -12 -10 3 -5 2 -10 -4 -10 -5 0 -13 6 -18 13 -8 12 -9 17 -12 37 0 6 -5 10
-10 10 -5 0 -7 -10 -3 -22z"/>
<path d="M1370 10941 c0 -6 4 -13 10 -16 6 -3 7 1 4 9 -7 18 -14 21 -14 7z"/>
<path d="M1398 10943 c7 -3 16 -2 19 1 4 3 -2 6 -13 5 -11 0 -14 -3 -6 -6z"/>
<path d="M1750 10905 c0 -38 -44 -180 -62 -203 -9 -10 -6 -11 16 -2 18 6 25 6
21 0 -4 -6 7 -10 25 -10 25 0 31 3 26 16 -3 9 -6 18 -6 20 0 2 -12 4 -27 5
-26 0 -26 1 10 16 20 8 37 19 37 24 0 5 5 9 10 9 6 0 9 -3 9 -7 -5 -30 21 -47
36 -23 10 17 -15 52 -34 47 -20 -5 -41 22 -41 50 1 17 1 17 14 1 14 -19 26
-14 26 12 0 20 -34 53 -44 43 -4 -4 -4 0 -1 9 4 9 2 19 -4 23 -7 4 -11 -7 -11
-30z"/>
<path d="M999 10924 c-1 -2 -2 -7 -3 -11 -1 -5 -5 -14 -10 -22 -7 -11 -4 -13
12 -9 12 4 19 2 16 -3 -3 -5 5 -7 18 -5 13 3 31 5 42 5 15 1 16 3 6 16 -9 10
-16 12 -20 5 -4 -6 -13 -5 -26 6 -10 8 -12 12 -4 8 8 -4 11 -3 7 1 -8 10 -36
16 -38 9z"/>
<path d="M1630 10920 c-9 -6 -10 -10 -3 -10 6 0 15 5 18 10 8 12 4 12 -15 0z"/>
<path d="M1805 10921 c-3 -7 -1 -10 6 -9 6 2 14 -3 17 -11 3 -9 0 -11 -9 -6
-8 5 -5 -1 5 -13 19 -22 32 -30 22 -13 -4 5 -1 11 5 13 5 2 -1 14 -14 26 -16
16 -27 20 -32 13z"/>
<path d="M870 10911 c0 -6 5 -13 10 -16 6 -3 10 1 10 9 0 9 -4 16 -10 16 -5 0
-10 -4 -10 -9z"/>
<path d="M1525 10910 c-3 -5 -2 -10 4 -10 5 0 13 5 16 10 3 6 2 10 -4 10 -5 0
-13 -4 -16 -10z"/>
<path d="M914 10886 c23 -18 36 -20 36 -6 0 6 -4 10 -9 10 -5 0 -18 3 -28 6
-16 5 -16 4 1 -10z"/>
<path d="M1525 10880 c4 -6 11 -8 16 -5 14 9 11 15 -7 15 -8 0 -12 -5 -9 -10z"/>
<path d="M2015 10880 c-3 -5 -1 -10 4 -10 6 0 11 5 11 10 0 6 -2 10 -4 10 -3
0 -8 -4 -11 -10z"/>
<path d="M1578 10873 c6 -2 18 -2 25 0 6 3 1 5 -13 5 -14 0 -19 -2 -12 -5z"/>
<path d="M865 10847 c1 -12 7 -22 12 -22 6 0 15 -3 19 -7 4 -5 12 -8 18 -8 6
0 5 4 -3 9 -10 6 -1 11 30 17 l44 8 -35 7 c-19 4 -47 10 -61 13 -22 5 -25 3
-24 -17z"/>
<path d="M1820 10848 c0 -18 18 -34 28 -24 3 4 -2 14 -11 23 -16 16 -17 16
-17 1z"/>
<path d="M1990 10850 c-8 -5 -11 -12 -7 -16 4 -4 13 -2 19 4 15 15 7 24 -12
12z"/>
<path d="M1008 10843 c7 -3 16 -2 19 1 4 3 -2 6 -13 5 -11 0 -14 -3 -6 -6z"/>
<path d="M1040 10838 c0 -17 36 -35 47 -24 4 3 -1 6 -10 6 -9 0 -21 8 -26 18
-9 15 -10 16 -11 0z"/>
<path d="M1562 10841 c-6 -3 -7 -12 -3 -19 10 -17 51 -24 51 -9 0 17 -34 37
-48 28z"/>
<path d="M1500 10830 c0 -5 7 -10 16 -10 8 0 12 5 9 10 -3 6 -10 10 -16 10 -5
0 -9 -4 -9 -10z"/>
<path d="M946 10822 c-7 -12 29 -31 43 -22 7 4 9 10 5 12 -22 12 -44 16 -48
10z"/>
<path d="M1008 10823 c7 -3 16 -2 19 1 4 3 -2 6 -13 5 -11 0 -14 -3 -6 -6z"/>
<path d="M1410 10810 c-39 -6 -40 -7 -12 -8 17 -1 33 -1 35 0 1 2 17 -7 35
-20 17 -13 32 -18 32 -12 0 6 -12 15 -26 20 -14 6 -22 14 -19 20 3 5 5 9 3 8
-2 0 -23 -4 -48 -8z"/>
<path d="M1872 10798 c2 -26 16 -48 31 -48 8 0 8 3 0 11 -6 6 -9 17 -7 24 3 6
-2 17 -10 24 -12 11 -15 9 -14 -11z"/>
<path d="M1940 10810 c0 -5 5 -10 11 -10 5 0 7 5 4 10 -3 6 -8 10 -11 10 -2 0
-4 -4 -4 -10z"/>
<path d="M1335 10760 c3 -5 8 -10 11 -10 2 0 4 5 4 10 0 6 -5 10 -11 10 -5 0
-7 -4 -4 -10z"/>
<path d="M1301 10744 c9 -9 25 -14 35 -12 14 3 10 7 -16 16 -32 12 -34 11 -19
-4z"/>
<path d="M1495 10730 c27 -12 43 -12 25 0 -8 5 -22 9 -30 9 -10 0 -8 -3 5 -9z"/>
<path d="M908 10723 c7 -3 16 -2 19 1 4 3 -2 6 -13 5 -11 0 -14 -3 -6 -6z"/>
<path d="M1364 10698 c-18 -8 -20 -13 -10 -34 6 -13 16 -24 23 -24 6 0 18 -6
25 -12 7 -7 24 -14 36 -16 38 -4 20 21 -25 36 -40 13 -46 23 -30 50 9 14 9 14
-19 0z"/>
<path d="M908 10693 c7 -3 16 -2 19 1 4 3 -2 6 -13 5 -11 0 -14 -3 -6 -6z"/>
<path d="M1080 10690 c-12 -8 -12 -10 5 -10 11 0 27 5 35 10 12 8 12 10 -5 10
-11 0 -27 -5 -35 -10z"/>
<path d="M955 10680 c3 -5 13 -10 21 -10 8 0 12 5 9 10 -3 6 -13 10 -21 10 -8
0 -12 -4 -9 -10z"/>
<path d="M1530 10674 c0 -8 5 -12 10 -9 6 4 8 11 5 16 -9 14 -15 11 -15 -7z"/>
<path d="M5183 10653 c-46 -20 -81 -38 -79 -40 7 -7 135 41 159 59 34 27 10
21 -80 -19z"/>
<path d="M1115 10670 c-4 -6 -12 -7 -18 -3 -7 4 -6 0 2 -10 18 -23 41 -21 41
3 0 21 -15 27 -25 10z"/>
<path d="M1000 10660 l-35 -7 32 -2 c17 0 35 4 38 9 3 6 5 9 3 9 -2 -1 -19 -5
-38 -9z"/>
<path d="M1060 10660 c-9 -6 -10 -10 -3 -10 6 0 15 5 18 10 8 12 4 12 -15 0z"/>
<path d="M1077 10644 c-3 -3 -3 -12 0 -20 3 -8 1 -14 -5 -14 -6 0 -12 5 -14
11 -2 6 -24 13 -48 15 -39 3 -42 2 -20 -8 14 -5 32 -11 40 -12 8 -1 23 -6 32
-10 21 -10 59 -4 59 9 0 6 -9 11 -21 13 -11 2 -18 8 -15 13 7 10 2 12 -8 3z"/>
<path d="M1460 10640 c0 -5 9 -10 20 -10 11 0 20 5 20 10 0 6 -9 10 -20 10
-11 0 -20 -4 -20 -10z"/>
<path d="M1260 10622 c0 -5 14 -18 30 -30 29 -22 30 -22 30 -3 0 14 5 19 15
15 23 -9 18 4 -6 17 -15 8 -19 8 -15 0 4 -6 0 -11 -8 -11 -9 0 -16 5 -16 10 0
6 -7 10 -15 10 -8 0 -15 -4 -15 -8z"/>
<path d="M5060 10600 c-8 -5 -10 -10 -5 -10 6 0 17 5 25 10 8 5 11 10 5 10 -5
0 -17 -5 -25 -10z"/>
<path d="M1411 10583 c9 -10 16 -10 33 -1 33 17 33 19 -6 16 -29 -1 -35 -5
-27 -15z"/>
<path d="M1067 10568 c15 -7 30 -7 50 0 26 10 24 10 -22 11 -42 0 -46 -2 -28
-11z"/>
<path d="M2937 9925 c-15 -14 -24 -25 -19 -25 5 0 19 11 32 25 30 32 23 32
-13 0z"/>
<path d="M6830 8481 c-62 -14 -75 -20 -75 -37 0 -16 9 -20 70 -24 l70 -5 -42
-13 c-23 -7 -55 -24 -71 -37 -34 -28 -38 -25 -68 43 -20 46 -40 53 -67 22 -28
-33 -30 -64 -9 -141 11 -41 25 -105 32 -144 17 -105 33 -139 54 -118 4 5 26
12 49 18 l42 10 8 80 c10 100 25 125 75 125 21 0 43 5 49 11 8 8 20 8 43 -2
47 -21 55 -88 9 -74 -26 8 -49 -11 -49 -40 0 -36 11 -55 31 -55 23 0 24 -8 3
-60 -9 -23 -22 -39 -28 -37 -6 2 -13 36 -16 78 -6 88 -20 119 -47 103 -12 -7
-20 -29 -24 -61 -8 -62 -22 -90 -51 -98 -13 -4 -33 -19 -45 -34 l-22 -26 5 25
c5 22 4 23 -8 9 -7 -8 -21 -18 -30 -22 -10 -3 -18 -10 -18 -16 0 -5 -28 -7
-62 -4 -35 2 -76 5 -92 6 -38 3 -48 27 -11 27 14 0 33 7 41 15 9 8 26 15 40
15 32 0 31 11 -11 128 -3 10 -12 7 -33 -8 -40 -30 -125 -19 -150 18 -15 24
-15 25 13 48 17 13 27 24 23 25 -5 1 -13 2 -20 3 -21 2 -20 24 2 36 18 9 30 5
82 -30 33 -22 63 -39 65 -36 2 2 -1 23 -7 46 -12 43 -73 120 -96 120 -7 0 -17
6 -21 13 -31 49 -254 61 -322 18 -11 -7 -12 -13 -4 -23 6 -7 10 -24 8 -38 -1
-14 -3 -30 -4 -37 -1 -8 -10 -9 -31 -3 -22 6 -34 5 -45 -6 -20 -21 -87 -1
-141 43 -50 40 -83 42 -156 8 -29 -14 -61 -25 -71 -25 -10 0 -17 -6 -15 -12 1
-7 -4 -23 -11 -36 -7 -13 -10 -29 -8 -36 3 -6 40 -31 84 -54 43 -24 110 -70
148 -103 55 -48 75 -59 95 -56 14 3 40 -1 59 -9 43 -18 42 -18 30 10 -6 13
-33 40 -60 61 -27 20 -49 40 -49 44 1 12 38 51 49 51 7 0 14 -7 17 -15 4 -8
14 -15 24 -15 10 0 50 -27 89 -60 39 -33 84 -63 99 -66 15 -4 37 -15 49 -26
18 -17 30 -19 85 -13 48 5 68 3 83 -9 24 -18 15 -29 -39 -46 -22 -7 -52 -26
-67 -42 l-27 -30 -31 23 c-17 12 -33 31 -37 41 -6 19 -51 54 -59 46 -3 -2 4
-31 16 -62 20 -59 22 -112 4 -109 -5 1 -18 5 -27 8 -16 6 -18 1 -18 -38 0 -51
16 -69 37 -42 11 17 13 13 12 -31 0 -51 -16 -144 -18 -109 0 11 -7 30 -15 41
-8 11 -17 42 -22 69 -9 63 -68 146 -132 185 -26 16 -72 47 -103 69 -77 55
-149 91 -190 95 -19 1 -46 9 -62 16 -26 13 -29 12 -61 -23 l-34 -37 65 -60
c76 -71 135 -104 170 -95 15 3 22 2 19 -4 -4 -6 7 -6 30 0 48 14 64 6 64 -32
0 -18 12 -52 26 -77 27 -46 45 -97 37 -105 -2 -3 -21 12 -41 34 -20 21 -50 41
-67 45 -29 6 -28 4 22 -42 28 -27 55 -60 58 -72 l7 -24 -28 19 c-28 18 -28 18
-20 -2 25 -61 13 -77 -17 -25 -10 17 -25 30 -34 30 -26 0 -5 -51 38 -91 51
-47 52 -69 2 -69 l-38 0 43 -41 c23 -22 39 -45 36 -50 -10 -17 -97 2 -143 32
-24 16 -60 31 -80 34 -20 3 -55 10 -79 16 -23 5 -55 7 -70 4 -15 -4 -37 -8
-49 -11 -13 -2 -23 -11 -23 -20 0 -8 4 -12 10 -9 5 3 26 2 45 -4 21 -5 35 -6
35 0 0 5 7 9 15 9 18 0 20 -20 3 -21 -7 0 -22 -2 -33 -5 -24 -4 -135 16 -135
25 0 4 -17 5 -37 3 -36 -3 -37 -2 -19 12 11 9 35 19 55 22 32 7 33 8 12 15
-17 7 -22 15 -19 36 1 16 7 31 12 34 18 14 -7 48 -47 65 -52 22 -59 23 -127
26 -53 3 -55 2 -72 -32 -11 -21 -16 -47 -13 -64 4 -25 -2 -36 -47 -77 -29 -26
-56 -51 -60 -56 -5 -4 -63 -64 -130 -133 -123 -125 -119 -116 23 60 86 106
163 226 150 234 -5 3 -36 -20 -69 -52 -44 -40 -70 -76 -91 -122 -16 -36 -59
-104 -95 -153 -36 -48 -66 -93 -66 -100 0 -24 24 -37 67 -37 32 0 45 5 53 19
9 18 18 19 83 14 39 -3 95 -13 124 -23 28 -10 54 -16 57 -13 8 8 93 11 105 3
8 -4 10 -17 5 -34 -5 -22 -10 -25 -28 -20 -56 18 -121 33 -125 29 -13 -14 126
-98 212 -129 43 -16 76 -30 75 -32 -8 -7 -134 28 -163 45 -35 20 -77 33 -70
21 3 -5 -9 -17 -25 -27 l-31 -18 68 -11 68 -11 -60 -2 c-68 -1 -106 -16 -64
-25 13 -3 56 -7 95 -9 39 -2 78 -8 85 -13 14 -8 63 -14 129 -14 19 0 46 -3 59
-6 37 -8 6 -23 -36 -18 -18 2 -49 6 -69 9 l-37 4 42 -30 c25 -19 41 -39 41
-51 0 -19 5 -20 48 -15 26 3 56 2 67 -3 l20 -9 -20 -1 c-11 0 -29 -7 -39 -15
-11 -8 -27 -15 -35 -15 -14 0 -14 2 -1 11 12 9 12 10 -3 5 -10 -3 -24 -6 -30
-6 -7 0 -6 -4 3 -10 8 -5 11 -10 5 -11 -5 -1 -19 -3 -30 -4 -22 -2 -65 -23
-65 -31 0 -2 15 3 33 12 17 9 30 14 27 11 -8 -8 -94 -72 -110 -82 -13 -8 -13
-7 0 11 8 10 22 25 30 32 8 7 -37 -13 -99 -45 -92 -46 -132 -74 -198 -136
-105 -100 -263 -305 -263 -343 0 -24 2 -25 18 -13 16 13 16 12 -1 -7 -16 -19
-17 -58 -17 -534 1 -355 4 -518 12 -527 7 -9 7 -13 -1 -13 -6 0 -11 -9 -11
-21 0 -13 4 -18 13 -13 10 6 10 4 0 -7 -7 -7 -13 -37 -13 -67 0 -40 3 -51 13
-46 9 6 9 5 0 -7 -9 -11 -12 -105 -13 -350 l0 -335 178 -58 c532 -170 1040
-248 1592 -244 l235 1 -305 8 c-168 5 -327 13 -355 18 -37 7 -21 8 65 3 158
-10 642 -9 770 1 124 10 413 42 522 58 66 10 75 13 63 25 -15 16 -29 19 -21 5
3 -5 -3 -11 -15 -14 -17 -5 -18 -3 -8 10 11 13 8 14 -22 9 -94 -17 -243 -36
-273 -36 -47 0 -72 -10 -54 -21 9 -6 4 -9 -15 -9 -16 0 -26 4 -22 10 3 5 -1
10 -9 10 -9 0 -16 -4 -16 -9 0 -5 -29 -11 -65 -13 -36 -1 -65 0 -65 5 0 10
-124 9 -136 -2 -5 -4 -22 -12 -38 -15 -24 -6 -27 -5 -19 6 9 11 -22 13 -175
13 -103 0 -234 4 -292 9 -58 5 -112 8 -120 8 -13 0 -151 12 -255 23 -134 15
-584 98 -675 125 -19 5 -42 10 -50 9 -24 -2 92 -38 124 -38 22 -1 27 -4 19
-12 -7 -7 -22 -7 -52 1 -23 6 -50 8 -61 5 -26 -8 -76 5 -59 16 18 11 -33 23
-60 14 -12 -3 -21 -3 -21 2 0 5 -11 10 -24 11 -13 1 -37 7 -52 13 -16 7 -35
11 -43 10 -8 -1 -10 2 -6 9 5 9 1 10 -14 5 -12 -4 -21 -2 -21 4 0 6 -12 17
-27 25 l-28 15 25 1 c17 0 21 3 12 9 -27 17 14 31 86 29 69 -1 109 9 184 48
14 8 33 14 42 14 9 0 19 7 22 15 9 23 42 28 60 10 11 -11 20 -13 26 -7 15 15
0 32 -25 32 -19 0 -16 5 21 38 23 20 42 43 42 50 0 6 8 12 19 12 17 0 31 25
31 58 0 18 -38 15 -49 -5 -9 -16 -10 -16 -11 5 0 12 -4 22 -10 22 -13 0 -13
-26 1 -52 17 -32 -19 -19 -39 14 -16 26 -15 28 3 42 11 9 14 16 8 16 -22 0
-14 28 15 51 24 19 25 21 5 15 -17 -5 -22 -4 -18 6 6 15 55 23 55 9 0 -6 9
-13 21 -16 19 -6 19 -8 4 -32 -12 -18 -14 -28 -6 -36 7 -7 13 -4 18 11 l8 22
14 -22 c11 -18 11 -20 -3 -15 -10 4 -16 1 -16 -8 0 -26 18 -25 47 1 50 47 105
84 127 84 12 0 46 20 76 45 30 25 60 45 66 45 6 0 17 7 24 16 10 11 29 14 79
12 l66 -3 9 -37 c6 -24 18 -41 35 -49 14 -8 40 -23 56 -35 17 -12 47 -28 68
-35 20 -7 37 -16 37 -21 0 -4 21 -16 47 -28 43 -19 60 -20 184 -16 75 3 158
10 185 16 27 5 60 12 74 14 14 3 25 5 25 5 0 1 81 3 180 5 99 1 216 8 260 15
44 7 94 15 110 18 40 6 253 25 285 25 14 0 45 8 70 18 62 25 193 66 265 83 73
18 141 45 215 85 114 63 223 112 247 112 19 0 71 29 103 58 14 12 50 39 80 60
30 20 57 39 60 42 3 3 31 21 63 40 34 21 76 58 103 92 25 32 65 70 90 84 l45
26 -2 397 c0 218 -5 405 -10 416 -9 19 -9 18 -5 -2 5 -28 -12 -41 -21 -16 -7
19 -28 43 -37 43 -3 0 -6 -7 -6 -15 0 -8 -5 -15 -11 -15 -6 0 -9 9 -6 20 3 12
0 20 -8 20 -29 0 -24 67 6 85 8 6 5 12 -11 20 -19 10 -20 13 -6 18 10 4 15 3
11 -3 -3 -6 1 -10 10 -10 12 0 15 5 11 16 -4 9 -1 23 5 30 6 8 7 14 2 14 -5 0
-8 13 -5 30 2 17 9 27 15 23 6 -4 8 4 4 23 -9 48 -26 84 -38 84 -8 0 -8 4 -1
13 12 14 4 67 -10 67 -5 0 -6 -5 -2 -11 4 -7 1 -10 -7 -7 -8 3 -16 15 -17 29
-2 13 -9 30 -14 37 -8 9 -7 11 6 6 9 -3 16 -2 16 4 0 6 -5 12 -11 14 -8 3 -5
10 6 22 10 10 14 21 9 24 -13 10 -16 55 -4 47 13 -8 50 -80 56 -109 3 -11 9
-48 15 -80 5 -33 13 -64 16 -69 3 -6 1 -7 -5 -3 -7 4 -12 3 -12 -3 0 -5 5 -11
11 -13 7 -2 12 -30 13 -65 2 -50 -1 -60 -11 -51 -10 8 -13 6 -13 -5 0 -23 16
-29 33 -12 14 13 16 13 20 -3 3 -9 5 121 6 290 l1 306 -37 69 c-79 148 -196
310 -261 362 -42 33 -63 41 -42 16 10 -12 7 -13 -18 -6 -16 5 -38 13 -48 18
-10 5 -32 7 -49 4 -52 -11 -70 -79 -38 -146 17 -35 43 -48 43 -20 0 8 5 15 11
15 5 0 8 4 5 9 -6 9 33 23 45 16 12 -8 -2 -45 -17 -45 -28 0 -13 -21 28 -40
l42 -19 33 30 c19 16 37 29 41 29 20 0 94 -94 155 -197 34 -55 98 -196 97
-212 -1 -3 -19 30 -41 74 -23 44 -51 96 -64 115 -12 19 -37 59 -55 88 -35 54
-57 64 -84 37 -17 -17 -32 -98 -21 -115 8 -13 -5 -414 -13 -405 -3 3 -11 53
-18 112 -8 59 -18 109 -23 111 -6 2 -7 31 -4 70 l6 67 -28 3 c-15 1 -35 8 -43
15 -13 10 -14 8 -9 -23 27 -133 49 -282 62 -424 21 -225 36 -299 89 -451 46
-131 76 -253 76 -303 -1 -36 -10 -19 -49 87 -31 85 -68 155 -105 202 -12 15
-27 35 -34 45 -6 11 8 -19 33 -66 40 -77 119 -289 111 -297 -2 -2 -22 47 -45
108 -49 135 -84 197 -117 209 -13 5 -24 15 -24 21 0 8 4 8 14 0 8 -7 -1 23
-19 66 -43 99 -96 292 -89 324 5 20 4 21 -6 9 -9 -12 -10 -11 -6 6 8 27 -47
211 -89 299 -42 86 -135 197 -192 227 -40 21 -45 22 -70 8 -26 -15 -73 -73
-73 -91 0 -20 20 -7 35 21 40 77 78 -26 72 -199 -2 -66 -7 -124 -11 -128 -10
-10 -55 45 -63 77 -3 14 -14 34 -24 45 -10 12 -22 39 -27 60 -8 38 -9 34 -30
-76 -13 -64 -27 -183 -32 -265 -6 -82 -16 -198 -23 -259 -29 -257 -16 -382 89
-865 19 -89 18 -95 -16 -132 l-29 -33 -1 39 c0 27 -14 63 -49 125 -42 73 -100
236 -88 247 2 2 14 -27 27 -64 33 -95 76 -178 96 -186 31 -12 38 9 26 76 -98
513 -94 467 -74 938 20 489 40 636 93 712 28 38 74 61 108 53 66 -17 200 -154
254 -261 13 -27 39 -96 57 -154 17 -58 42 -139 55 -180 13 -41 31 -103 41
-138 9 -34 19 -61 21 -59 2 2 -8 46 -23 98 -14 52 -35 126 -45 164 -65 240
-139 392 -241 494 -73 73 -108 92 -182 96 -62 4 -68 3 -101 -27 -48 -42 -62
-70 -74 -157 -10 -73 -7 -101 10 -101 5 0 9 -26 8 -57 0 -42 -3 -52 -9 -38 -9
21 -11 16 -14 -38 -3 -39 -26 -51 -49 -26 -10 10 -20 19 -22 19 -2 0 -3 -28
-2 -62 1 -37 -3 -63 -10 -65 -7 -3 -9 -56 -5 -178 3 -128 2 -175 -7 -175 -6 0
-11 10 -11 23 0 43 -20 244 -36 362 -38 275 -172 464 -271 381 -30 -26 -39
-22 -63 25 -27 52 -41 58 -116 49 -38 -5 -72 -9 -75 -10 -3 0 -11 -11 -17 -25
-9 -18 -19 -25 -41 -25 -16 0 -32 -4 -35 -9 -8 -12 -85 -19 -89 -7 -5 14 -153
20 -161 7 -11 -17 -60 -13 -122 10 -56 21 -56 22 -51 56 l6 35 -22 -18 c-12
-11 -25 -23 -28 -28 -4 -4 -10 -3 -13 3 -4 6 -2 11 3 11 6 0 11 7 11 15 0 8 7
15 15 15 8 0 15 3 15 8 0 14 194 6 249 -11 60 -19 137 -22 173 -8 13 5 76 22
141 37 122 27 146 27 277 -1 21 -5 21 -4 -5 8 l-30 14 30 8 c54 13 51 14 -24
8 -61 -5 -73 -4 -69 8 4 10 19 13 49 12 49 -3 172 33 249 72 27 14 60 25 73
25 38 0 99 29 94 44 -3 8 -1 18 5 24 15 15 -33 26 -78 19 -38 -6 -39 -5 -23
26 16 31 40 52 85 76 50 26 39 27 -20 1 l-46 -19 6 27 c4 15 11 35 16 45 7 13
5 17 -8 17 -13 0 -15 6 -9 28 22 90 68 137 180 182 33 13 75 36 94 52 18 16
43 34 55 40 11 5 31 29 43 53 l21 43 -30 6 c-44 9 -96 -20 -132 -73 -53 -77
-97 -121 -173 -172 -40 -27 -73 -47 -73 -44 0 2 14 20 31 40 18 20 29 38 27
41 -3 2 -27 -11 -54 -29 -27 -18 -56 -36 -65 -39 -21 -8 -39 10 -39 39 0 59
62 124 181 193 41 24 103 63 137 87 35 24 87 55 115 69 47 24 49 27 33 40 -17
12 -17 15 12 41 52 49 60 53 101 53 22 0 43 5 46 10 3 6 15 10 26 10 12 0 17
4 14 11 -4 6 -13 8 -21 5 -7 -3 -16 -1 -19 4 -8 13 -327 5 -354 -9 -19 -11
-21 -18 -16 -54 6 -38 2 -48 -37 -106 -24 -35 -55 -84 -69 -108 -14 -24 -44
-63 -66 -86 -22 -23 -50 -59 -62 -80 -25 -41 -56 -63 -66 -47 -3 5 -15 10 -26
10 -10 0 -19 5 -19 10 0 6 -11 10 -25 10 -14 0 -28 7 -31 15 -10 24 34 101 74
131 20 16 43 34 50 41 8 7 29 25 48 39 27 21 37 24 48 15 8 -7 12 -21 8 -34
-3 -13 -1 -18 4 -14 5 5 9 38 10 73 1 64 0 64 -20 47 -11 -10 -31 -30 -43 -45
-13 -15 -32 -28 -42 -30 -9 -2 -55 -45 -101 -95 -66 -74 -88 -93 -110 -93 -29
0 -60 27 -60 53 0 38 45 145 76 179 59 66 69 86 54 112 -11 21 -9 27 9 45 33
33 28 82 -14 124 -34 34 -35 34 -87 25 -29 -5 -61 -10 -71 -11 -9 -1 -29 -15
-43 -32 l-25 -30 5 63 6 62 -32 -5 c-21 -4 -46 1 -73 13 -22 11 -61 29 -87 41
-26 12 -50 26 -53 32 -8 12 -25 10 -115 -10z m550 -341 c0 -5 -4 -10 -10 -10
-5 0 -10 5 -10 10 0 6 5 10 10 10 6 0 10 -4 10 -10z m-126 -198 c-9 -52 -22
-72 -39 -66 -20 8 -19 27 5 75 25 48 43 43 34 -9z m-847 -214 c5 -7 17 -38 27
-68 25 -83 71 -101 96 -39 16 37 21 32 30 -28 6 -35 4 -54 -6 -68 -8 -11 -14
-32 -14 -46 0 -47 -9 -59 -40 -52 -16 3 -44 0 -61 -6 -54 -19 -61 -3 -67 152
-2 75 -2 142 1 151 8 19 21 21 34 4z m452 -498 c6 -19 11 -45 11 -57 0 -29
-29 -63 -54 -63 -17 0 -18 6 -13 69 3 38 12 107 19 153 l13 83 7 -75 c3 -41
11 -91 17 -110z m-1076 118 c15 -11 10 -13 -30 -13 -27 0 -54 5 -61 12 -11 11
-5 13 30 13 24 0 52 -6 61 -12z m327 -136 c11 -13 20 -34 20 -46 0 -15 -3 -17
-9 -8 -4 7 -18 14 -30 15 -16 1 -21 7 -19 23 4 30 -38 107 -70 127 -17 10 -21
17 -11 17 8 0 24 -7 35 -15 20 -15 45 -20 43 -7 -1 4 0 16 1 27 1 11 7 -9 12
-44 5 -36 17 -75 28 -89z m-466 123 c4 -13 2 -14 -14 -5 -23 13 -26 20 -6 20
8 0 16 -7 20 -15z m-360 -24 c7 -10 -27 -21 -66 -21 -31 0 -38 16 -10 23 31 8
71 7 76 -2z m1318 -5 c9 -7 22 -30 27 -52 5 -21 14 -56 19 -77 14 -53 -4 -44
-37 18 -15 27 -36 54 -48 60 -19 10 -20 13 -7 38 16 30 22 32 46 13z m1034 -4
c-7 -12 -46 -23 -46 -13 0 9 43 31 49 25 1 -1 0 -7 -3 -12z m-1708 -22 c16 -1
16 -1 0 -10 -24 -14 -51 -2 -35 15 7 7 14 9 15 4 2 -5 11 -9 20 -9z m-803 -19
c-3 -5 -40 -34 -83 -64 -42 -30 -83 -61 -91 -70 -7 -10 -20 -17 -29 -17 -25 0
21 43 112 105 76 52 104 66 91 46z m862 -17 c-3 -3 -12 -4 -19 -1 -8 3 -5 6 6
6 11 1 17 -2 13 -5z m38 -14 c-3 -5 -10 -10 -16 -10 -5 0 -9 5 -9 10 0 6 7 10
16 10 8 0 12 -4 9 -10z m286 -45 l19 -50 -30 -27 c-47 -43 -53 -37 -48 41 8
108 27 119 59 36z m-1128 28 c-7 -2 -19 -2 -25 0 -7 3 -2 5 12 5 14 0 19 -2
13 -5z m-44 -29 c-6 -8 -18 -14 -25 -14 -8 0 -14 -3 -14 -8 0 -4 -10 -13 -22
-21 -19 -11 -17 -7 7 20 17 19 34 37 40 41 15 11 27 -3 14 -18z m461 2 c0 -8
-10 -16 -22 -18 -13 -2 -22 -9 -21 -15 2 -7 -4 -10 -12 -7 -20 8 -19 24 3 40
23 18 52 18 52 0z m270 -12 c0 -8 -4 -12 -10 -9 -5 3 -10 10 -10 16 0 5 5 9
10 9 6 0 10 -7 10 -16z m-363 -40 c8 -21 -16 -54 -40 -54 -13 0 -28 -5 -35
-12 -22 -22 -14 30 9 61 22 29 55 32 66 5z m1109 -1 c-10 -10 -19 5 -10 18 6
11 8 11 12 0 2 -7 1 -15 -2 -18z m-826 -3 c0 -5 -7 -10 -16 -10 -8 0 -12 5 -9
10 3 6 10 10 16 10 5 0 9 -4 9 -10z m-593 -26 c-3 -3 -12 -4 -19 -1 -8 3 -5 6
6 6 11 1 17 -2 13 -5z m417 -12 c-5 -17 -47 -42 -71 -42 -25 0 -14 38 15 48
43 16 61 14 56 -6z m531 8 c3 -5 1 -10 -4 -10 -6 0 -11 5 -11 10 0 6 2 10 4
10 3 0 8 -4 11 -10z m-475 -41 c0 -5 -7 -9 -15 -9 -15 0 -20 12 -9 23 8 8 24
-1 24 -14z m473 -81 c9 -46 22 -103 28 -128 13 -54 48 -303 43 -309 -9 -10
-33 76 -53 189 -12 69 -29 153 -37 187 -15 67 -19 143 -6 143 4 0 15 -37 25
-82z m692 -18 c0 -18 -33 -26 -48 -11 -9 9 -8 14 3 21 21 14 45 8 45 -10z
m-1210 -10 c3 -5 1 -10 -4 -10 -6 0 -11 5 -11 10 0 6 2 10 4 10 3 0 8 -4 11
-10z m-40 -11 c-4 -6 1 -16 11 -24 31 -22 9 -28 -26 -7 -29 18 -30 21 -13 31
23 14 36 14 28 0z m352 -25 c-3 -3 -15 0 -27 6 -17 9 -19 14 -10 20 13 8 47
-16 37 -26z m503 6 c0 -11 -4 -20 -10 -20 -5 0 -10 9 -10 20 0 11 5 20 10 20
6 0 10 -9 10 -20z m-610 -5 c0 -8 -9 -15 -20 -15 -22 0 -27 15 -7 23 21 9 27
7 27 -8z m574 -8 c12 -12 20 -29 18 -38 -2 -11 11 -15 58 -17 41 -2 60 0 60 9
0 8 14 10 45 7 25 -3 48 -2 50 2 6 10 61 -4 81 -21 8 -7 17 -9 21 -6 3 3 18 0
34 -9 16 -8 29 -11 29 -8 0 4 9 -1 20 -11 28 -25 27 -88 -2 -115 -12 -11 -27
-20 -34 -20 -6 0 -17 -7 -25 -16 -7 -9 -21 -13 -34 -10 -21 5 -21 4 -12 -63
11 -78 2 -164 -16 -158 -6 2 -19 32 -27 68 l-16 64 4 -107 c3 -58 1 -141 -4
-185 l-9 -78 -6 150 c-6 151 -35 305 -62 332 -8 7 -29 9 -59 6 -54 -6 -63 -26
-27 -59 32 -29 56 -83 69 -153 18 -102 -4 -94 -64 22 -21 40 -46 84 -57 97
l-19 25 -19 -22 c-22 -26 -31 -20 -31 19 0 16 -4 27 -9 24 -5 -4 -7 3 -4 14 3
11 0 20 -6 20 -19 0 -12 30 14 58 l26 27 -11 -28 c-12 -35 -13 -58 -1 -38 6 9
18 11 35 7 22 -5 26 -3 26 14 0 12 11 36 25 54 32 42 31 46 -5 46 -19 0 -30
-5 -30 -14 0 -8 -5 -18 -12 -22 -7 -5 -9 -2 -5 8 11 29 -7 29 -19 1 l-12 -28
-1 33 c-1 19 -7 35 -16 38 -17 7 -21 44 -5 44 6 0 10 7 10 15 0 8 -8 15 -17
15 -15 0 -14 2 3 15 25 19 23 19 48 -8z m-654 -17 c0 -5 -5 -10 -11 -10 -5 0
-7 5 -4 10 3 6 8 10 11 10 2 0 4 -4 4 -10z m-254 -25 c17 -13 14 -14 -41 -15
-33 0 -71 4 -85 8 -20 5 -12 8 35 13 33 3 63 6 66 7 3 1 14 -5 25 -13z m134 5
c0 -5 -2 -10 -4 -10 -3 0 -8 5 -11 10 -3 6 -1 10 4 10 6 0 11 -4 11 -10z m418
-18 c2 -6 -3 -12 -11 -12 -19 0 -40 -47 -26 -56 6 -4 15 -1 19 6 5 8 9 3 12
-14 7 -34 2 -37 -38 -20 -20 8 -34 10 -34 4 0 -5 -5 -10 -11 -10 -5 0 -7 5 -4
10 4 6 2 17 -4 24 -11 14 8 37 39 49 12 4 11 6 -2 6 -20 1 -21 3 -12 24 6 17
65 9 72 -11z m-113 8 c3 -5 2 -10 -4 -10 -5 0 -13 5 -16 10 -3 6 -2 10 4 10 5
0 13 -4 16 -10z m1352 -73 c-6 -41 -5 -44 33 -67 60 -37 153 -178 189 -286 35
-104 49 -188 55 -334 5 -121 22 -202 71 -343 36 -104 43 -134 20 -82 -8 17
-15 23 -15 15 -1 -8 -14 10 -29 40 -33 64 -55 160 -71 315 -24 227 -39 277
-120 414 -27 47 -47 87 -44 90 11 11 72 -70 108 -142 20 -40 36 -66 36 -58 0
16 -48 112 -86 173 -34 54 -143 168 -160 168 -12 0 -20 -29 -26 -94 -2 -24
-12 -34 -48 -53 -25 -13 -62 -43 -84 -66 -58 -64 -203 -259 -211 -285 -4 -13
-9 -21 -12 -19 -7 7 63 182 95 237 63 110 160 248 209 299 29 31 53 65 53 76
0 22 17 45 33 45 6 0 7 -19 4 -43z m1467 -33 c4 -10 -2 -14 -18 -14 -19 0 -23
4 -19 19 5 21 28 18 37 -5z m-2836 -16 c-2 -6 -10 -14 -16 -16 -7 -2 -10 2 -6
12 7 18 28 22 22 4z m-208 -19 c0 -5 -7 -9 -15 -9 -15 0 -20 12 -9 23 8 8 24
-1 24 -14z m190 -78 c0 -5 3 -18 6 -28 6 -16 5 -16 -9 2 -19 23 -21 35 -7 35
6 0 10 -4 10 -9z m1974 -123 c-10 -51 -20 -82 -22 -70 -4 26 27 177 35 169 2
-3 -4 -47 -13 -99z m-1934 58 c0 -3 -4 -8 -10 -11 -5 -3 -10 -1 -10 4 0 6 5
11 10 11 6 0 10 -2 10 -4z m-255 -16 c-3 -5 -11 -10 -16 -10 -6 0 -7 5 -4 10
3 6 11 10 16 10 6 0 7 -4 4 -10z m-355 -10 c0 -5 -4 -10 -10 -10 -5 0 -10 5
-10 10 0 6 5 10 10 10 6 0 10 -4 10 -10z m1020 -20 c0 -11 -7 -20 -15 -20 -8
0 -15 9 -15 20 0 11 7 20 15 20 8 0 15 -9 15 -20z m30 -14 c0 -8 -4 -18 -10
-21 -5 -3 -10 3 -10 14 0 12 5 21 10 21 6 0 10 -6 10 -14z m-866 -32 c3 -8 2
-12 -4 -9 -6 3 -10 10 -10 16 0 14 7 11 14 -7z m129 -9 c-13 -10 -20 -10 -25
-2 -4 7 0 15 10 18 26 10 36 -1 15 -16z m-252 -13 c-7 -14 -5 -22 8 -33 9 -9
22 -14 29 -11 7 2 13 -5 13 -15 1 -10 4 -4 8 12 10 47 43 46 58 -2 8 -25 8
-40 1 -44 -5 -4 2 -9 16 -13 16 -4 26 -13 26 -24 0 -13 -2 -14 -9 -3 -7 11
-11 10 -19 -5 -5 -9 -19 -18 -30 -19 -18 -1 -19 1 -10 18 7 13 7 17 0 13 -6
-3 -12 4 -14 16 -2 13 -9 24 -15 24 -7 1 -17 2 -23 3 -5 0 -7 9 -3 19 3 9 3
14 -2 10 -4 -4 -14 -3 -21 3 -11 9 -16 5 -24 -16 -5 -14 -14 -24 -18 -21 -4 2
-8 -4 -8 -15 0 -25 16 -25 23 1 6 24 19 26 27 5 3 -8 1 -15 -4 -15 -6 0 -6
-10 0 -26 13 -33 13 -47 0 -39 -5 3 -10 -3 -10 -14 0 -26 -16 -27 -28 -3 -11
21 -4 45 10 36 7 -4 8 -2 4 4 -10 17 -26 15 -26 -3 0 -8 -4 -15 -8 -15 -5 0
-9 -7 -9 -15 0 -8 6 -15 14 -15 17 0 17 -24 -1 -39 -12 -10 -12 -19 -4 -44 6
-18 16 -35 21 -38 15 -10 -3 -31 -21 -24 -8 3 -23 -3 -34 -15 -10 -11 -14 -20
-8 -20 5 0 10 -9 10 -20 0 -11 7 -20 15 -20 8 0 15 -6 15 -14 0 -8 6 -16 13
-19 8 -3 0 -16 -21 -37 -18 -18 -35 -31 -37 -28 -3 2 -5 48 -6 101 -1 85 -3
99 -20 108 -12 6 -19 6 -19 0 0 -5 6 -12 13 -14 9 -4 9 -6 0 -6 -25 -2 -25 23
-1 44 26 22 35 60 11 51 -19 -8 -16 4 5 20 10 9 13 17 7 21 -16 13 -16 39 0
53 13 11 14 10 9 -4 -3 -9 -1 -16 5 -16 6 0 11 8 11 18 0 13 2 14 9 3 7 -10
10 -10 16 -1 4 7 1 17 -6 22 -11 7 -11 11 -1 15 6 2 10 8 7 13 -7 11 16 63 32
73 7 4 13 15 13 22 0 8 5 15 10 15 7 0 7 -6 1 -18z m3349 14 c0 -2 -7 -7 -16
-10 -8 -3 -12 -2 -9 4 6 10 25 14 25 6z m-1526 -28 c-3 -4 0 -8 5 -8 6 0 11 5
11 12 0 6 3 9 6 6 3 -4 -2 -18 -11 -32 -21 -31 -14 -53 17 -59 17 -3 14 -5
-10 -6 -20 0 -31 3 -27 9 3 6 2 10 -4 10 -7 0 -7 9 0 27 7 19 7 29 0 31 -16 5
-13 19 4 19 8 0 12 -4 9 -9z m-1994 -37 c-6 -12 -14 -19 -19 -17 -16 10 -165
-104 -250 -192 -58 -61 -60 -62 -21 -14 23 29 68 76 99 103 56 50 193 149 199
143 2 -1 -1 -12 -8 -23z m535 -1 c7 -12 -2 -12 -30 0 -19 8 -19 9 2 9 12 1 25
-3 28 -9z m2092 -37 c-3 -10 -5 -2 -5 17 0 19 2 27 5 18 2 -10 2 -26 0 -35z
m908 38 c3 -5 1 -12 -4 -15 -5 -3 -11 1 -15 9 -6 16 9 21 19 6z m-3161 -16
c-4 -9 0 -15 10 -15 21 0 20 -6 -6 -43 -18 -25 -19 -29 -5 -24 9 3 19 1 23 -4
3 -6 17 -9 30 -6 27 5 26 5 18 -17 -7 -18 -39 -21 -50 -5 -3 6 -14 9 -23 6
-10 -2 -18 1 -19 7 -1 6 -4 24 -8 40 -5 21 -4 27 5 22 6 -4 11 0 11 9 0 11 -5
15 -15 11 -18 -7 -20 5 -3 22 17 17 39 15 32 -3z m-404 -56 c0 -5 -4 -9 -10
-9 -5 0 -10 7 -10 16 0 8 5 12 10 9 6 -3 10 -10 10 -16z m2985 11 c-3 -5 2
-10 11 -10 10 0 15 -3 11 -6 -10 -10 -39 5 -32 16 3 5 8 10 11 10 3 0 2 -4 -1
-10z m-350 -170 c-8 -25 -13 -34 -10 -20 2 14 8 57 12 95 8 69 8 69 11 20 1
-27 -4 -70 -13 -95z m347 92 c-33 -29 -14 -82 25 -68 16 7 16 9 -7 26 -23 18
-23 19 -4 14 12 -3 25 -1 28 5 11 17 26 13 26 -7 0 -11 -9 -27 -20 -37 -11
-10 -17 -22 -14 -26 3 -5 1 -9 -5 -9 -5 0 -11 5 -13 11 -2 6 -14 2 -30 -10
-31 -25 -50 -27 -42 -6 4 8 1 15 -5 15 -6 0 -11 -7 -11 -15 0 -8 -7 -15 -16
-15 -10 0 -14 6 -11 14 6 14 -12 26 -39 26 -8 0 -14 -5 -14 -11 0 -5 4 -8 9
-5 5 3 14 -1 21 -9 10 -13 8 -20 -15 -41 -15 -14 -30 -22 -33 -19 -4 3 0 10 7
14 11 7 11 16 4 38 -8 22 -7 34 3 47 12 18 15 18 38 3 24 -16 25 -16 31 13 5
21 12 30 23 28 9 -2 17 4 17 12 1 8 6 14 11 13 6 -1 17 7 24 17 9 13 18 16 24
10 6 -6 2 -16 -12 -28z m-3039 -2 c-3 -11 -15 -26 -27 -32 -11 -6 -23 -14 -26
-18 -3 -3 -27 -22 -55 -40 -27 -19 -74 -59 -104 -90 l-54 -55 59 68 c32 38 76
81 99 97 22 15 54 42 70 59 35 36 45 39 38 11z m477 -16 c0 -2 -7 -4 -15 -4
-8 0 -15 4 -15 10 0 5 7 7 15 4 8 -4 15 -8 15 -10z m240 -4 c0 -5 -4 -10 -10
-10 -5 0 -10 5 -10 10 0 6 5 10 10 10 6 0 10 -4 10 -10z m50 -16 c0 -8 -4 -14
-10 -14 -5 0 -10 -10 -10 -22 0 -12 -3 -18 -6 -15 -11 10 -11 51 -1 64 11 15
27 8 27 -13z m1990 -22 c0 -10 -3 -21 -6 -25 -9 -9 -36 21 -29 33 10 17 35 11
35 -8z m-2476 -7 c3 -8 1 -15 -3 -15 -5 0 -11 7 -15 15 -3 8 -1 15 3 15 5 0
11 -7 15 -15z m130 -16 c-4 -6 -11 -6 -20 2 -21 17 -17 31 6 19 11 -6 18 -15
14 -21z m386 22 c0 -12 -20 -25 -27 -18 -7 7 6 27 18 27 5 0 9 -4 9 -9z m1204
-22 c-31 -12 -39 -10 -19 5 11 8 24 12 29 8 5 -3 1 -9 -10 -13z m-1939 1 c3
-5 1 -10 -4 -10 -6 0 -11 5 -11 10 0 6 2 10 4 10 3 0 8 -4 11 -10z m2175 -10
c0 -5 -5 -10 -11 -10 -5 0 -7 5 -4 10 3 6 8 10 11 10 2 0 4 -4 4 -10z m1324
-2 c-16 -29 -26 -37 -40 -31 -21 8 -17 22 9 33 31 12 39 12 31 -2z m-2850 -30
c-4 -18 -7 -40 -8 -48 -1 -8 -16 -30 -33 -49 -27 -28 -33 -31 -33 -15 0 24 9
37 35 53 15 9 16 11 3 7 -10 -3 -18 -1 -18 4 0 6 5 10 10 10 6 0 10 5 10 10 0
12 30 60 37 60 2 0 1 -15 -3 -32z m-619 13 c-6 -10 17 -37 37 -43 7 -3 9 -12
4 -23 -5 -15 -9 -16 -15 -6 -6 9 -11 10 -15 2 -4 -6 -4 -16 -1 -21 7 -12 -12
-40 -26 -40 -5 0 -9 9 -9 20 0 11 -6 20 -12 20 -9 0 -10 2 -2 8 16 10 -2 56
-17 46 -7 -4 -10 -1 -7 7 3 8 15 13 27 12 13 -2 21 3 21 12 0 8 5 15 11 15 5
0 8 -4 4 -9z m1951 0 c-3 -5 -15 -7 -26 -4 -28 7 -25 13 6 13 14 0 23 -4 20
-9z m1024 -21 c0 -5 -5 -10 -11 -10 -5 0 -7 5 -4 10 3 6 8 10 11 10 2 0 4 -4
4 -10z m-50 -10 c-20 -13 -33 -13 -25 0 3 6 14 10 23 10 15 0 15 -2 2 -10z
m-3260 -3 c0 -2 -10 -12 -22 -23 l-23 -19 19 23 c18 21 26 27 26 19z m1428
-32 c1 -31 -1 -35 -23 -35 -21 0 -25 5 -25 29 0 27 10 38 36 40 6 1 11 -15 12
-34z m405 -65 c8 -66 -36 -327 -59 -350 -37 -37 -43 49 -19 245 20 159 26 189
39 197 16 10 32 -28 39 -92z m1338 77 c-10 -9 -11 -8 -5 6 3 10 9 15 12 12 3
-3 0 -11 -7 -18z m49 13 c0 -5 -5 -10 -11 -10 -5 0 -7 5 -4 10 3 6 8 10 11 10
2 0 4 -4 4 -10z m-745 -10 c3 -5 2 -10 -4 -10 -5 0 -13 5 -16 10 -3 6 -2 10 4
10 5 0 13 -4 16 -10z m-325 -26 c0 -8 -4 -12 -10 -9 -5 3 -10 10 -10 16 0 5 5
9 10 9 6 0 10 -7 10 -16z m1240 0 c0 -8 5 -12 10 -9 17 11 11 -11 -9 -29 -17
-16 -19 -16 -25 0 -5 12 -9 14 -20 5 -19 -16 -28 -2 -10 16 8 8 22 12 30 9 12
-4 15 -2 10 9 -3 8 -1 15 4 15 6 0 10 -7 10 -16z m-2646 -9 c-4 -8 -8 -15 -10
-15 -2 0 -4 7 -4 15 0 8 4 15 10 15 5 0 7 -7 4 -15z m1481 4 c11 -17 -1 -21
-15 -4 -8 9 -8 15 -2 15 6 0 14 -5 17 -11z m1075 -9 c-19 -13 -30 -13 -30 0 0
6 10 10 23 10 18 0 19 -2 7 -10z m140 -37 c0 -15 -2 -16 -10 -3 -6 10 -10 11
-10 3 0 -7 -7 -13 -16 -13 -14 0 -14 3 -4 15 17 20 40 19 40 -2z m-290 -7 c0
-10 -7 -12 -22 -8 -21 5 -21 6 -2 13 10 4 20 8 22 8 1 1 2 -5 2 -13z m253 -23
c16 -8 27 -9 27 -3 0 6 5 10 10 10 6 0 10 -9 10 -20 0 -24 -42 -28 -62 -7 -12
14 -43 12 -64 -5 -8 -5 -13 -1 -17 12 -6 22 8 37 18 20 3 -5 14 -10 23 -10 14
0 14 2 3 9 -8 5 -10 14 -6 21 6 10 10 10 19 -1 6 -8 23 -20 39 -26z m-3423 23
c0 -2 -8 -10 -17 -17 -16 -13 -17 -12 -4 4 13 16 21 21 21 13z m175 -6 c-3 -5
-11 -10 -16 -10 -6 0 -7 5 -4 10 3 6 11 10 16 10 6 0 7 -4 4 -10z m233 -18 c6
-18 -15 -14 -22 4 -4 10 -1 14 6 12 6 -2 14 -10 16 -16z m422 14 c0 -3 -4 -8
-10 -11 -5 -3 -10 -1 -10 4 0 6 5 11 10 11 6 0 10 -2 10 -4z m-540 -10 c0 -3
-4 -8 -10 -11 -5 -3 -10 -1 -10 4 0 6 5 11 10 11 6 0 10 -2 10 -4z m1150 -16
c0 -5 -8 -6 -17 -3 -12 5 -15 2 -10 -10 4 -11 2 -14 -9 -10 -13 5 -13 8 2 24
16 18 34 17 34 -1z m-1070 -50 c-15 -28 -40 -25 -40 3 0 31 9 38 31 26 15 -8
17 -14 9 -29z m523 1 c-13 -9 -10 -61 4 -61 6 0 15 -5 18 -11 4 -6 1 -10 -6
-8 -38 5 -58 -1 -52 -17 4 -10 13 -14 28 -10 36 9 36 -4 0 -36 -28 -24 -37
-27 -55 -18 -23 13 -27 30 -5 30 10 0 15 10 15 34 0 22 6 36 16 40 9 3 14 12
11 19 -2 6 3 25 12 40 9 15 17 23 20 16 2 -6 -1 -14 -6 -18z m-188 -31 c12
-19 -12 -10 -31 11 -19 22 -19 22 3 10 12 -6 25 -16 28 -21z m-545 0 c0 -5 -6
-10 -14 -10 -8 0 -18 5 -21 10 -3 6 3 10 14 10 12 0 21 -4 21 -10z m319 -15
c21 -6 22 -9 10 -19 -19 -15 -23 -90 -4 -82 10 3 12 0 8 -11 -4 -9 -2 -14 3
-11 5 3 15 0 22 -8 13 -14 13 -15 -30 -18 -7 -1 -12 7 -10 17 2 9 -2 17 -8 17
-6 0 -9 -18 -7 -45 2 -32 0 -45 -10 -45 -7 0 -13 -6 -13 -14 0 -8 -5 -18 -12
-22 -7 -4 -8 -3 -4 4 4 7 1 12 -8 12 -9 0 -16 -9 -16 -20 0 -12 7 -20 16 -20
9 0 14 -6 12 -12 -6 -17 29 -53 50 -53 14 0 17 -10 17 -55 0 -39 4 -54 13 -52
6 1 12 -3 12 -8 0 -6 10 -14 22 -19 l22 -8 -23 -13 c-21 -11 -23 -10 -18 3 5
13 0 16 -23 14 -30 -2 -42 -28 -20 -42 17 -10 11 -25 -10 -25 -11 0 -20 -4
-20 -10 0 -5 -7 -7 -15 -4 -8 4 -15 18 -15 34 0 29 -29 90 -42 90 -5 0 -8 5
-8 11 0 8 4 8 14 0 11 -9 20 -10 36 -1 16 9 25 8 36 -1 22 -19 18 13 -6 39
-11 11 -18 27 -17 34 2 7 2 10 0 6 -3 -5 -13 -8 -24 -8 -10 0 -19 -4 -19 -10
0 -5 5 -10 12 -10 8 0 6 -6 -5 -17 -13 -13 -19 -14 -29 -5 -9 9 -9 12 -1 12
15 0 8 41 -8 51 -20 12 -19 56 1 81 21 27 21 93 0 93 -8 0 -15 5 -17 12 -5 14
36 38 45 27 4 -4 1 -9 -6 -11 -6 -3 -10 -9 -7 -13 3 -5 12 -7 19 -4 20 8 30
-28 12 -42 -9 -6 -13 -14 -10 -17 4 -4 15 4 25 17 21 26 25 41 9 31 -6 -4 -10
5 -10 20 0 14 7 28 15 31 9 4 15 19 15 38 0 24 -3 27 -10 16 -6 -9 -10 -10
-10 -3 0 6 4 14 9 17 4 3 6 18 4 33 -3 16 -1 23 4 17 4 -6 19 -15 32 -19z
m528 -3 c6 -4 19 -27 29 -52 9 -25 26 -55 36 -67 16 -17 18 -25 8 -42 -10 -19
-13 -20 -25 -7 -8 8 -15 19 -15 25 0 6 -4 11 -10 11 -5 0 -9 3 -9 8 4 21 -3
31 -23 34 -34 5 -50 45 -31 75 16 25 22 27 40 15z m710 -39 c-3 -10 -5 -4 -5
12 0 17 2 24 5 18 2 -7 2 -21 0 -30z m833 27 c0 -5 -5 -10 -11 -10 -5 0 -7 5
-4 10 3 6 8 10 11 10 2 0 4 -4 4 -10z m777 -22 c-3 -8 -6 -5 -6 6 -1 11 2 17
5 13 3 -3 4 -12 1 -19z m-2602 -18 c9 -16 13 -30 9 -30 -4 0 -1 -7 6 -15 9
-11 16 -13 24 -5 15 15 22 13 50 -14 29 -26 36 -76 11 -76 -8 0 -24 -14 -34
-30 l-18 -31 -27 51 c-15 28 -26 56 -24 63 2 11 -7 59 -18 100 -8 27 4 20 21
-13z m102 5 c-4 -8 -11 -15 -17 -15 -14 0 -13 27 3 33 16 6 21 1 14 -18z
m1737 6 c20 -8 33 -51 16 -51 -6 0 -10 -4 -10 -10 0 -5 9 -10 20 -10 11 0 20
-4 20 -10 0 -15 -21 -12 -42 7 -17 15 -18 15 -18 -3 -1 -15 -4 -13 -16 9 -10
19 -21 27 -31 23 -12 -5 -13 -4 -5 7 7 8 9 17 5 21 -8 8 16 26 32 25 6 0 19
-4 29 -8z m-2344 -11 c12 -7 12 -12 2 -22 -9 -9 -12 -8 -12 8 -1 19 -1 19 -15
0 -8 -11 -18 -17 -21 -13 -6 5 16 36 26 36 3 1 12 -4 20 -9z m60 -4 c0 -3 -4
-8 -10 -11 -5 -3 -10 -1 -10 4 0 6 5 11 10 11 6 0 10 -2 10 -4z m1442 -694 c2
-56 2 -102 0 -102 -1 0 -7 12 -13 28 -12 31 -22 641 -11 717 4 30 10 -65 14
-245 4 -162 8 -341 10 -398z m-1565 656 c-3 -8 -6 -5 -6 6 -1 11 2 17 5 13 3
-3 4 -12 1 -19z m213 8 c0 -7 -10 -16 -22 -20 -28 -7 -49 11 -28 24 22 14 50
12 50 -4z m2850 -2 c0 -2 -7 -4 -15 -4 -8 0 -15 4 -15 10 0 5 7 7 15 4 8 -4
15 -8 15 -10z m-2940 -15 c0 -5 -4 -9 -10 -9 -5 0 -10 7 -10 16 0 8 5 12 10 9
6 -3 10 -10 10 -16z m2190 -4 c6 -8 8 -20 4 -27 -5 -7 -7 -23 -6 -35 3 -23 -6
-32 -38 -38 -12 -2 -20 2 -20 10 0 9 7 11 22 7 13 -3 19 -1 15 6 -4 5 -2 12 5
14 8 3 7 13 -4 35 -20 41 -5 61 22 28z m927 9 c-3 -3 -12 -4 -19 -1 -8 3 -5 6
6 6 11 1 17 -2 13 -5z m-210 -19 c0 -8 -4 -15 -9 -15 -4 0 -8 7 -8 15 0 8 4
15 8 15 5 0 9 -7 9 -15z m672 -12 c-1 -22 -2 -23 -6 -8 -3 11 -10 23 -17 27
-7 5 -5 8 7 8 12 0 17 -7 16 -27z m-3604 7 c3 -5 1 -10 -4 -10 -6 0 -11 5 -11
10 0 6 2 10 4 10 3 0 8 -4 11 -10z m2975 -8 c0 -5 -9 -18 -21 -30 -11 -12 -17
-27 -13 -33 4 -8 9 -7 15 2 7 11 9 10 9 -3 0 -37 -41 -5 -47 35 -2 18 -1 19 7
7 8 -13 11 -11 16 8 6 20 34 32 34 14z m-680 -22 c0 -5 -8 -6 -19 -3 -10 3
-22 0 -25 -6 -9 -14 -26 -14 -26 -1 0 6 7 10 15 10 8 0 15 4 15 9 0 5 9 7 20
4 11 -3 20 -9 20 -13z m-1154 -16 c-4 -12 -1 -14 14 -9 23 7 26 -8 10 -50 -8
-22 -13 -25 -25 -15 -8 6 -19 8 -26 4 -9 -5 -10 3 -4 32 8 45 12 54 27 54 5 0
7 -7 4 -16z m1134 -8 c0 -2 -7 -7 -16 -10 -8 -3 -12 -2 -9 4 6 10 25 14 25 6z
m-130 -21 c0 -8 -4 -15 -10 -15 -5 0 -10 7 -10 15 0 8 5 15 10 15 6 0 10 -7
10 -15z m160 -15 c0 -5 -5 -10 -11 -10 -5 0 -7 5 -4 10 3 6 8 10 11 10 2 0 4
-4 4 -10z m60 -21 c-15 -28 -30 -23 -17 5 7 13 15 22 19 20 5 -3 3 -14 -2 -25z
m-290 17 c0 -11 -19 -15 -25 -6 -3 5 1 10 9 10 9 0 16 -2 16 -4z m895 -16
c-22 -8 -47 -2 -40 10 2 4 17 5 32 2 24 -5 25 -6 8 -12z m544 -30 c0 -9 -4 -8
-9 5 -5 11 -9 27 -9 35 0 9 4 8 9 -5 5 -11 9 -27 9 -35z m-1399 28 c0 6 8 12
18 12 16 -1 16 -1 0 -11 -10 -5 -18 -17 -18 -24 0 -27 -15 -16 -17 12 -1 19 1
22 8 12 6 -10 9 -10 9 -1z m-1710 -8 c0 -5 -2 -10 -4 -10 -3 0 -8 5 -11 10 -3
6 -1 10 4 10 6 0 11 -4 11 -10z m17 -12 c-3 -8 -6 -5 -6 6 -1 11 2 17 5 13 3
-3 4 -12 1 -19z m163 2 c0 -5 -4 -10 -9 -10 -6 0 -13 5 -16 10 -3 6 1 10 9 10
9 0 16 -4 16 -10z m1620 1 c0 -5 7 -17 16 -25 14 -15 13 -16 -11 -16 -20 0
-26 -4 -22 -15 4 -8 2 -17 -3 -20 -6 -4 -10 4 -10 17 -1 21 -2 20 -15 -7 -8
-19 -14 -24 -14 -13 -1 9 -9 21 -18 27 -14 7 -9 11 25 22 28 8 41 17 38 26 -3
7 -1 13 4 13 6 0 10 -4 10 -9z m80 5 c0 -3 -4 -8 -10 -11 -5 -3 -10 -1 -10 4
0 6 5 11 10 11 6 0 10 -2 10 -4z m44 -28 c-3 -4 -10 -8 -16 -8 -6 0 -8 3 -5 7
4 3 1 13 -6 21 -11 13 -9 14 10 2 12 -8 19 -18 17 -22z m-272 15 c-6 -2 -10
-9 -6 -14 3 -5 1 -9 -4 -9 -6 0 -12 7 -16 15 -4 11 1 15 17 14 12 0 16 -3 9
-6z m1058 -18 c0 -8 -4 -15 -10 -15 -5 0 -7 7 -4 15 4 8 8 15 10 15 2 0 4 -7
4 -15z m-3202 -20 c-3 -3 -9 2 -12 12 -6 14 -5 15 5 6 7 -7 10 -15 7 -18z
m106 10 c3 -8 1 -15 -4 -15 -6 0 -10 7 -10 15 0 8 2 15 4 15 2 0 6 -7 10 -15z
m191 5 c3 -5 1 -10 -4 -10 -6 0 -11 5 -11 10 0 6 2 10 4 10 3 0 8 -4 11 -10z
m1810 0 c-3 -5 -14 -10 -23 -9 -14 0 -13 2 3 9 27 11 27 11 20 0z m-2078 -22
c-3 -8 -6 -5 -6 6 -1 11 2 17 5 13 3 -3 4 -12 1 -19z m39 -17 c2 -29 11 -36
28 -22 11 10 19 9 35 -1 22 -13 28 -28 11 -28 -5 0 -7 -8 -4 -17 5 -15 3 -15
-10 1 -14 18 -21 15 -17 -6 0 -4 -10 -2 -24 4 -14 6 -25 15 -25 19 0 10 -41
23 -64 20 -10 -1 -15 2 -12 8 4 5 15 8 26 6 11 -2 20 0 20 6 0 5 7 9 15 9 17
0 20 16 5 23 -6 3 -5 4 2 3 7 -1 14 -13 14 -25z m449 19 c-3 -5 -11 -10 -16
-10 -6 0 -7 5 -4 10 3 6 11 10 16 10 6 0 7 -4 4 -10z m1665 0 c0 -5 7 -10 15
-10 8 0 15 -5 15 -10 0 -7 -6 -7 -17 -2 -10 5 -24 7 -30 5 -14 -5 -18 9 -6 20
10 10 23 8 23 -3z m480 -25 c0 -5 -5 -3 -10 5 -5 8 -10 20 -10 25 0 6 5 3 10
-5 5 -8 10 -19 10 -25z m-2100 -16 c0 -6 -4 -7 -10 -4 -5 3 -10 11 -10 16 0 6
5 7 10 4 6 -3 10 -11 10 -16z m1533 10 c-6 -6 -9 -18 -6 -25 6 -17 2 -17 -31
-4 -30 11 -35 31 -6 23 11 -3 20 0 20 6 0 6 8 11 17 11 13 0 14 -3 6 -11z
m1524 -11 c-3 -8 -6 -5 -6 6 -1 11 2 17 5 13 3 -3 4 -12 1 -19z m-3117 -8 c0
-5 -5 -10 -11 -10 -5 0 -7 5 -4 10 3 6 8 10 11 10 2 0 4 -4 4 -10z m2640 -33
c-10 -9 -11 -8 -6 7 5 14 3 17 -10 12 -14 -6 -15 -4 -4 9 12 15 14 15 23 0 6
-11 5 -21 -3 -28z m-3170 29 c0 -3 -4 -8 -10 -11 -5 -3 -10 -1 -10 4 0 6 5 11
10 11 6 0 10 -2 10 -4z m500 -6 c0 -5 -7 -10 -16 -10 -8 0 -12 5 -9 10 3 6 10
10 16 10 5 0 9 -4 9 -10z m3257 -32 c-3 -7 -5 -2 -5 12 0 14 2 19 5 13 2 -7 2
-19 0 -25z m-3677 8 c0 -17 -14 -29 -23 -20 -8 8 3 34 14 34 5 0 9 -6 9 -14z
m510 -6 c0 -5 -4 -10 -10 -10 -5 0 -10 5 -10 10 0 6 5 10 10 10 6 0 10 -4 10
-10z m-550 -4 c0 -3 -4 -8 -10 -11 -5 -3 -10 -1 -10 4 0 6 5 11 10 11 6 0 10
-2 10 -4z m114 -28 c-4 -6 0 -16 8 -22 22 -17 27 -39 14 -71 l-12 -29 -27 30
c-31 33 -36 78 -9 93 23 14 35 14 26 -1z m246 4 c0 -4 -9 -8 -19 -8 -11 0 -17
4 -15 8 3 4 12 8 20 8 8 0 14 -4 14 -8z m420 -12 c-14 -10 -27 -16 -30 -13 -6
6 30 33 44 33 6 0 0 -9 -14 -20z m2345 0 c-3 -5 -11 -10 -16 -10 -6 0 -7 5 -4
10 3 6 11 10 16 10 6 0 7 -4 4 -10z m-3092 -57 c5 -24 3 -33 -7 -33 -18 0 -28
27 -13 34 7 2 3 5 -8 6 -20 1 -20 1 -1 15 23 17 21 19 29 -22z m-119 -8 c-4
-8 -8 -15 -10 -15 -2 0 -4 7 -4 15 0 8 4 15 10 15 5 0 7 -7 4 -15z m411 -6 c4
-6 17 -14 29 -19 12 -5 15 -9 6 -9 -8 0 -26 8 -40 19 -14 11 -20 20 -13 20 6
0 15 -5 18 -11z m-165 -53 c-8 -11 -7 -14 6 -12 9 0 19 -5 21 -12 4 -9 -2 -11
-23 -6 -23 6 -26 4 -21 -10 4 -10 7 -24 7 -31 0 -8 7 -11 19 -8 12 3 20 -2 24
-16 3 -14 10 -18 26 -14 21 5 24 2 35 -49 4 -17 2 -28 -4 -28 -6 0 -13 14 -17
31 -4 21 -9 27 -16 20 -19 -19 -45 -12 -49 12 -2 12 -10 22 -18 22 -8 0 -21 4
-27 8 -8 5 -13 3 -14 -5 0 -7 -2 -23 -5 -35 -2 -13 1 -23 7 -23 8 0 8 -5 -1
-15 -14 -17 -40 -20 -40 -6 0 6 5 13 10 16 6 3 10 13 10 22 0 11 -3 13 -13 5
-8 -7 -18 -7 -27 -2 -13 8 -12 11 5 24 11 8 23 12 26 10 4 -2 9 2 12 10 4 9
-2 12 -19 10 -32 -3 -41 14 -18 32 11 9 13 13 7 9 -9 -4 -11 -1 -7 9 8 20 18
20 34 1 13 -16 35 -10 24 6 -3 5 7 23 23 39 21 23 29 27 31 15 2 -9 -1 -22 -8
-29z m1554 -112 c-8 -71 -17 -138 -21 -149 -6 -22 -53 -81 -53 -68 0 5 4 13 9
19 6 5 17 52 25 104 32 206 41 249 48 236 4 -7 1 -71 -8 -142z m-1699 126 c-3
-5 0 -10 8 -10 10 0 13 -7 10 -21 -6 -23 -17 -15 -28 19 -4 14 -2 22 5 22 6 0
8 -4 5 -10z m430 -22 c16 -3 10 -9 -25 -24 -45 -21 -102 -22 -66 -2 20 11 12
30 -9 21 -8 -3 -15 0 -15 6 0 14 37 15 45 1 10 -17 35 -11 35 8 0 11 3 13 8 6
4 -7 16 -14 27 -16z m1242 0 c-3 -8 -6 -5 -6 6 -1 11 2 17 5 13 3 -3 4 -12 1
-19z m-1706 -13 c2 2 4 -10 5 -26 1 -16 -3 -29 -8 -29 -5 0 -6 5 -2 12 5 7 1
9 -13 6 -11 -3 -28 1 -38 8 -10 8 -13 14 -7 14 7 0 12 7 12 15 0 11 5 12 24 5
13 -5 26 -7 27 -5z m267 -26 c8 -12 9 -18 4 -15 -6 3 -12 3 -15 -1 -2 -5 -2
-2 -1 5 2 6 -3 12 -11 12 -8 0 -15 5 -15 10 0 18 25 11 38 -11z m1429 -21 c-3
-7 -5 -2 -5 12 0 14 2 19 5 13 2 -7 2 -19 0 -25z m540 16 c-3 -3 -12 -4 -19
-1 -8 3 -5 6 6 6 11 1 17 -2 13 -5z m-1891 -46 c1 -5 2 -12 3 -17 0 -5 8 -11
16 -13 10 -2 12 -8 6 -17 -13 -20 -37 -7 -56 29 -13 25 -13 33 -3 44 11 12 14
11 23 -3 5 -9 10 -19 11 -23z m44 33 c0 -5 9 -11 21 -14 12 -3 18 -10 14 -16
-3 -6 1 -11 11 -11 14 0 15 -3 6 -12 -8 -8 -15 -8 -25 0 -8 7 -17 9 -20 5 -9
-8 -47 26 -47 41 0 7 9 12 20 13 11 1 20 -2 20 -6z m282 -13 c-7 -7 -12 -8
-12 -2 0 14 12 26 19 19 2 -3 -1 -11 -7 -17z m1588 12 c0 -5 -8 -10 -17 -10
-15 0 -16 2 -3 10 19 12 20 12 20 0z m-2280 -21 c0 -5 6 -9 14 -9 9 0 12 -8 8
-26 -5 -29 15 -49 34 -33 15 12 29 -20 14 -35 -7 -7 -10 -7 -10 1 0 6 -9 9
-20 6 -11 -3 -20 -11 -20 -17 0 -7 -7 -13 -15 -13 -8 0 -15 4 -15 9 0 4 -5 7
-11 6 -14 -4 -31 39 -19 47 6 3 15 -5 22 -19 13 -29 23 -33 31 -12 4 10 1 13
-7 10 -21 -8 -28 27 -10 47 15 16 15 19 2 19 -18 0 -41 24 -32 33 8 8 34 -3
34 -14z m260 11 c0 -5 -2 -10 -4 -10 -3 0 -8 5 -11 10 -3 6 -1 10 4 10 6 0 11
-4 11 -10z m1940 0 c0 -5 -2 -10 -4 -10 -3 0 -8 5 -11 10 -3 6 -1 10 4 10 6 0
11 -4 11 -10z m-2138 -40 c-15 -26 -17 -27 -20 -10 -2 11 3 26 10 34 22 23 28
8 10 -24z m2214 2 c-7 -7 -46 9 -46 18 0 5 11 4 25 -2 14 -6 23 -13 21 -16z
m-1586 8 c0 -5 -5 -10 -11 -10 -5 0 -7 5 -4 10 3 6 8 10 11 10 2 0 4 -4 4 -10z
m1017 -22 c-3 -7 -5 -2 -5 12 0 14 2 19 5 13 2 -7 2 -19 0 -25z m408 14 c-3
-3 -11 0 -18 7 -9 10 -8 11 6 5 10 -3 15 -9 12 -12z m100 7 c-4 -6 3 -13 16
-16 23 -6 23 -7 -6 -14 -16 -5 -31 -7 -33 -5 -5 5 17 46 24 46 3 0 2 -5 -1
-11z m-2240 -19 c-3 -5 -10 -10 -16 -10 -5 0 -9 5 -9 10 0 6 7 10 16 10 8 0
12 -4 9 -10z m755 -5 c0 -8 -7 -15 -16 -15 -14 0 -14 3 -4 15 7 8 14 15 16 15
2 0 4 -7 4 -15z m493 -15 c3 -13 0 -20 -9 -20 -8 0 -14 9 -14 20 0 11 4 20 9
20 5 0 11 -9 14 -20z m-803 0 c0 -5 -5 -10 -11 -10 -5 0 -7 5 -4 10 3 6 8 10
11 10 2 0 4 -4 4 -10z m1265 -80 c-9 -38 -21 -70 -25 -70 -5 0 0 30 11 67 10
38 19 72 19 77 0 5 3 7 6 3 4 -3 -1 -38 -11 -77z m-1025 50 c0 -11 -7 -20 -15
-20 -9 0 -21 -11 -27 -25 -11 -24 -28 -34 -28 -16 0 8 17 43 33 69 13 19 37
14 37 -8z m44 -15 c-4 -8 -10 -12 -15 -9 -11 6 -2 24 11 24 5 0 7 -7 4 -15z
m-552 -12 c-9 -3 -10 -9 -3 -17 8 -10 15 -43 20 -98 1 -5 8 -8 16 -8 8 0 15
-5 15 -11 0 -5 -4 -7 -10 -4 -5 3 -10 -1 -10 -10 0 -9 6 -15 13 -13 7 2 13 -1
14 -7 0 -5 -3 -9 -7 -8 -5 1 -11 -11 -15 -27 -5 -21 -11 -27 -22 -23 -11 4
-14 2 -9 -5 4 -7 2 -12 -3 -12 -14 0 -14 17 0 25 7 5 4 14 -8 27 -18 21 -18
21 6 8 23 -12 23 -12 7 11 -18 26 -21 43 -6 34 6 -4 7 6 3 27 -3 18 -12 37
-20 41 -9 6 -10 13 -3 26 5 10 7 21 4 24 -9 8 5 27 19 26 8 0 8 -2 -1 -6z
m-37 -13 c-3 -5 -13 -6 -22 -3 -12 5 -15 2 -10 -10 4 -11 1 -17 -7 -17 -20 0
-27 12 -15 27 13 15 63 18 54 3z m123 -18 c2 -12 -2 -22 -8 -22 -7 0 -10 6 -7
14 3 7 0 19 -6 26 -9 10 -9 11 3 8 8 -3 16 -14 18 -26z m326 3 c-4 -8 -11 -15
-16 -15 -6 0 -5 6 2 15 7 8 14 15 16 15 2 0 1 -7 -2 -15z m-674 1 c0 -3 -4 -8
-10 -11 -5 -3 -10 -1 -10 4 0 6 5 11 10 11 6 0 10 -2 10 -4z m191 -56 c6 0 7
-4 4 -10 -12 -19 -32 -10 -30 13 3 31 7 35 12 15 2 -10 9 -18 14 -18z m-241
10 c0 -5 -2 -10 -4 -10 -3 0 -8 5 -11 10 -3 6 -1 10 4 10 6 0 11 -4 11 -10z
m100 -15 c0 -8 -7 -11 -20 -8 -23 6 -26 19 -7 26 16 6 27 -1 27 -18z m642 3
c-7 -7 -12 -8 -12 -2 0 14 12 26 19 19 2 -3 -1 -11 -7 -17z m-702 -9 c0 -5 -7
-9 -15 -9 -9 0 -12 6 -9 15 6 15 24 11 24 -6z m247 -21 c-3 -7 -5 -2 -5 12 0
14 2 19 5 13 2 -7 2 -19 0 -25z m1516 5 c-7 -2 -19 -2 -25 0 -7 3 -2 5 12 5
14 0 19 -2 13 -5z m-1763 -13 c0 -5 -5 -10 -11 -10 -5 0 -7 5 -4 10 3 6 8 10
11 10 2 0 4 -4 4 -10z m155 -21 c11 -16 1 -19 -13 -3 -7 8 -8 14 -3 14 5 0 13
-5 16 -11z m-175 -14 c10 -12 10 -15 -4 -15 -9 0 -16 7 -16 15 0 8 2 15 4 15
2 0 9 -7 16 -15z m1834 -145 l7 -45 -19 40 c-29 63 -34 94 -20 134 l12 36 7
-60 c3 -33 9 -80 13 -105z m-1616 112 c-2 -12 -16 -24 -46 -39 -2 -1 2 -11 8
-23 9 -17 9 -25 -3 -38 -30 -36 -29 -70 1 -40 7 7 0 -13 -15 -45 -28 -58 -54
-77 -46 -33 4 21 2 24 -18 19 -15 -4 -20 -3 -15 5 4 7 4 12 -1 13 -4 0 -20 3
-35 5 -16 3 -28 0 -28 -6 0 -14 -27 -13 -36 2 -4 7 -3 8 4 4 6 -4 25 3 42 15
33 25 34 37 1 19 -15 -8 -21 -8 -21 0 0 6 -4 9 -9 5 -5 -3 -13 0 -16 6 -4 6 2
13 15 16 16 4 18 8 8 14 -20 13 -18 49 5 61 20 10 20 11 2 24 -18 13 -18 14 3
14 12 0 22 -6 23 -12 0 -7 2 -22 4 -33 2 -10 -1 -25 -7 -32 -6 -7 -7 -14 -2
-14 63 -8 72 -7 78 6 7 18 33 20 39 3 4 -10 7 -10 18 0 11 10 10 12 -3 12 -9
0 -19 7 -22 16 -3 8 -2 12 4 9 13 -8 13 1 -2 25 -10 15 -10 22 0 32 9 9 12 7
13 -12 0 -16 3 -19 6 -10 10 27 24 39 39 33 8 -3 14 -12 12 -21z m382 -56 c0
-27 -15 -42 -25 -26 -8 13 3 50 16 50 5 0 9 -11 9 -24z m-112 -48 c17 -15 15
-31 -3 -24 -9 3 -18 -1 -21 -9 -9 -23 -24 -18 -20 8 2 12 -2 28 -8 36 -9 11
-6 13 14 6 14 -4 31 -12 38 -17z m-99 -64 c-14 -18 -24 -11 -15 11 3 9 11 13
16 10 8 -5 7 -11 -1 -21z m-45 -15 c14 -13 -23 -38 -56 -39 -15 0 -30 5 -33
10 -3 6 -1 10 6 10 6 0 9 8 6 20 -5 19 -2 20 31 14 21 -3 41 -10 46 -15z m-58
-76 c-3 -3 -13 -2 -23 2 -17 7 -17 8 2 15 19 7 34 -5 21 -17z m-141 -3 c3 -5
1 -10 -4 -10 -6 0 -11 -7 -11 -15 0 -18 1 -18 35 -5 31 12 47 6 39 -15 -4 -8
-10 -12 -16 -9 -5 3 -12 -4 -15 -16 l-6 -21 -24 23 c-19 18 -26 20 -32 9 -5
-8 -11 -9 -15 -3 -3 5 1 13 10 16 8 3 14 11 13 18 -4 35 11 52 26 28z m315 0
c0 -5 -5 -10 -11 -10 -5 0 -7 5 -4 10 3 6 8 10 11 10 2 0 4 -4 4 -10z m67 -32
c-3 -7 -5 -2 -5 12 0 14 2 19 5 13 2 -7 2 -19 0 -25z m8 -28 c3 -5 -3 -10 -14
-10 -12 0 -21 5 -21 10 0 6 6 10 14 10 8 0 18 -4 21 -10z m-461 -51 c-3 -5 0
-17 7 -25 6 -8 9 -18 5 -21 -4 -4 -11 -1 -16 7 -13 20 -13 63 0 55 6 -4 8 -11
4 -16z m66 -4 c-13 -16 -40 -20 -40 -7 0 14 12 22 33 22 16 0 17 -3 7 -15z
m170 -20 c7 -8 9 -15 6 -15 -4 0 -14 7 -22 15 -9 8 -11 15 -6 15 5 0 15 -7 22
-15z m-190 -29 c0 -7 -6 -19 -14 -25 -11 -9 -12 -6 -8 14 5 26 22 35 22 11z
m193 -16 c-3 -11 -7 -20 -9 -20 -2 0 -4 9 -4 20 0 11 4 20 9 20 5 0 7 -9 4
-20z m-103 8 c0 -2 -8 -10 -18 -19 -16 -13 -19 -13 -34 1 -16 15 -15 16 17 18
19 2 35 1 35 0z m211 -38 c5 -3 6 -22 2 -42 -5 -33 -7 -35 -20 -22 -8 8 -13
23 -10 34 3 10 0 21 -7 23 -8 3 -7 9 4 21 11 14 15 15 19 5 2 -8 8 -16 12 -19z
m-271 0 c0 -5 -9 -10 -21 -10 -11 0 -17 5 -14 10 3 6 13 10 21 10 8 0 14 -4
14 -10z m200 -50 c9 -31 9 -32 -18 -25 -15 4 -30 12 -34 18 -11 17 -10 37 2
37 6 0 10 -7 10 -15 0 -8 5 -15 10 -15 6 0 10 10 10 22 0 28 8 19 20 -22z
m-210 21 c0 -15 -16 -22 -34 -15 -25 9 -19 24 9 24 14 0 25 -4 25 -9z m138
-102 c-3 -8 -7 -3 -11 10 -4 17 -3 21 5 13 5 -5 8 -16 6 -23z m149 -315 c-3
-3 -12 -4 -19 -1 -8 3 -5 6 6 6 11 1 17 -2 13 -5z m68 -14 c25 -11 -1 -11 -35
0 -20 6 -21 8 -5 8 11 0 29 -3 40 -8z m115 -1 c11 -7 4 -8 -25 -3 -50 8 -58
14 -19 14 16 0 36 -5 44 -11z m-63 -15 c-3 -3 -12 -4 -19 -1 -8 3 -5 6 6 6 11
1 17 -2 13 -5z m40 -10 c-3 -3 -12 -4 -19 -1 -8 3 -5 6 6 6 11 1 17 -2 13 -5z
m40 -10 c-3 -3 -12 -4 -19 -1 -8 3 -5 6 6 6 11 1 17 -2 13 -5z m160 0 c-3 -3
-12 -4 -19 -1 -8 3 -5 6 6 6 11 1 17 -2 13 -5z m-22 -24 c27 -7 27 -8 5 -8
-14 0 -36 4 -50 8 -20 6 -21 8 -5 8 11 0 34 -4 50 -8z m208 -37 c-7 -2 -19 -2
-25 0 -7 3 -2 5 12 5 14 0 19 -2 13 -5z m210 0 c-7 -2 -19 -2 -25 0 -7 3 -2 5
12 5 14 0 19 -2 13 -5z m1214 1 c-3 -3 -12 -4 -19 -1 -8 3 -5 6 6 6 11 1 17
-2 13 -5z m-1202 -25 c28 -6 16 -7 -39 -3 -44 4 -89 10 -100 15 -24 10 74 2
139 -12z m208 4 c-7 -2 -19 -2 -25 0 -7 3 -2 5 12 5 14 0 19 -2 13 -5z m265
-18 c4 -4 -18 -5 -48 -1 -30 3 -68 6 -83 6 -16 0 -26 4 -23 8 6 10 143 -2 154
-13z m102 5 c0 -5 -6 -10 -14 -10 -8 0 -18 5 -21 10 -3 6 3 10 14 10 12 0 21
-4 21 -10z"/>
<path d="M7175 6630 c-33 -34 -31 -42 5 -26 15 7 25 20 26 34 0 12 0 22 -1 22
-1 0 -14 -13 -30 -30z"/>
<path d="M7571 5914 c0 -11 3 -14 6 -6 3 7 2 16 -1 19 -3 4 -6 -2 -5 -13z"/>
<path d="M5310 6168 c0 -12 3 -18 7 -14 11 10 12 36 2 36 -5 0 -9 -10 -9 -22z"/>
<path d="M8136 6184 c-4 -10 -1 -14 6 -12 15 5 23 28 10 28 -5 0 -13 -7 -16
-16z"/>
<path d="M7390 5839 c0 -5 5 -9 11 -9 5 0 8 -4 5 -9 -4 -5 5 -4 18 2 29 14 29
14 -7 21 -15 2 -27 0 -27 -5z"/>
<path d="M7420 5810 c0 -5 7 -7 15 -4 8 4 15 8 15 10 0 2 -7 4 -15 4 -8 0 -15
-4 -15 -10z"/>
<path d="M5140 5410 c0 -5 5 -10 10 -10 6 0 10 5 10 10 0 6 -4 10 -10 10 -5 0
-10 -4 -10 -10z"/>
<path d="M5150 5270 c19 -13 30 -13 30 0 0 6 -10 10 -22 10 -19 0 -20 -2 -8
-10z"/>
<path d="M4970 4769 c0 -5 5 -7 10 -4 6 3 10 8 10 11 0 2 -4 4 -10 4 -5 0 -10
-5 -10 -11z"/>
<path d="M7496 8334 c-3 -9 -6 -29 -6 -45 0 -16 -11 -52 -25 -79 -14 -27 -25
-59 -25 -71 0 -21 1 -21 18 -5 23 20 39 71 48 154 6 60 3 79 -10 46z"/>
<path d="M7625 8290 c5 -15 -6 -34 -42 -74 -26 -30 -70 -96 -97 -146 -62 -117
-45 -110 103 40 58 59 115 112 126 118 20 11 19 12 -5 29 -26 18 -29 20 -55
22 -8 0 -15 8 -15 16 0 8 -5 15 -11 15 -6 0 -8 -9 -4 -20z"/>
<path d="M5237 8167 c-18 -13 -30 -84 -15 -93 4 -3 8 -16 8 -30 0 -13 5 -24
11 -24 6 0 25 -11 42 -24 23 -17 50 -25 97 -29 36 -3 76 -9 90 -12 14 -3 -10
9 -52 27 -118 51 -119 57 -23 106 33 16 68 39 77 49 18 19 17 20 -33 31 -67
16 -95 15 -123 -3 -21 -14 -24 -14 -29 0 -8 18 -27 19 -50 2z"/>
<path d="M8285 7996 c-13 -44 -23 -101 -19 -105 3 -3 7 5 11 17 5 20 10 22 62
18 31 -3 72 -10 91 -16 19 -6 53 -10 75 -9 57 1 57 1 45 -21 -6 -11 -14 -19
-18 -16 -4 2 -7 -7 -6 -21 0 -19 13 -32 50 -55 50 -31 134 -106 134 -120 0 -5
28 -43 63 -85 l62 -76 3 72 3 73 -54 66 c-52 65 -121 138 -183 194 -50 45
-161 87 -244 91 -46 2 -73 0 -75 -7z"/>
<path d="M6100 7929 c0 -7 17 -33 37 -58 20 -25 38 -48 40 -50 6 -8 14 7 19
34 3 16 -2 37 -11 52 -20 30 -31 24 -14 -9 10 -19 7 -18 -25 10 -40 35 -46 38
-46 21z"/>
<path d="M5164 7873 c-17 -21 -33 -45 -36 -54 -3 -8 -37 -34 -75 -57 -37 -22
-84 -54 -103 -71 l-35 -30 35 4 c19 3 103 12 185 20 83 9 180 23 218 31 62 13
73 13 140 -5 39 -11 89 -27 111 -36 54 -23 54 -14 -2 25 -26 19 -63 50 -82 70
-66 66 -178 119 -285 136 -38 5 -42 3 -71 -33z"/>
<path d="M4950 7891 c-55 -17 -107 -51 -118 -76 -7 -14 -12 -67 -12 -116 l0
-90 26 20 c15 12 66 58 115 104 84 79 114 127 93 147 -14 13 -76 20 -104 11z"/>
<path d="M5629 7881 c13 -12 28 -21 35 -21 12 0 -5 14 -39 31 -16 8 -15 6 4
-10z"/>
<path d="M8225 7870 c-19 -8 -19 -9 2 -9 12 -1 25 4 28 9 7 12 -2 12 -30 0z"/>
<path d="M5680 7852 c0 -4 14 -16 30 -25 17 -10 30 -16 30 -14 0 2 -13 13 -30
25 -16 13 -30 19 -30 14z"/>
<path d="M8755 7820 c15 -24 41 -62 56 -84 l29 -39 0 39 c-1 41 -23 71 -84
110 l-29 18 28 -44z"/>
<path d="M8184 7718 c-16 -12 -35 -29 -43 -36 -8 -8 -25 -18 -38 -23 -13 -5
-22 -13 -18 -19 3 -5 -8 -16 -24 -25 -63 -32 -49 -37 93 -34 75 2 136 7 136
12 0 4 7 7 15 7 8 0 15 4 15 9 0 5 3 16 6 25 5 12 -1 16 -22 16 -42 0 -53 11
-51 50 2 28 -2 36 -19 38 -11 2 -33 -7 -50 -20z"/>
<path d="M8480 7676 c0 -17 21 -50 63 -97 121 -139 156 -192 248 -371 l44 -88
3 102 c2 88 -1 113 -24 183 -14 44 -30 84 -35 90 -5 5 -9 19 -9 31 0 42 -145
141 -233 159 -10 2 -27 7 -38 10 -15 5 -19 1 -19 -19z"/>
<path d="M4848 7521 l-28 -16 1 -120 1 -120 29 90 c25 78 39 169 28 179 -2 1
-16 -4 -31 -13z"/>
<path d="M5560 7526 c0 -2 8 -10 18 -17 15 -13 16 -12 3 4 -13 16 -21 21 -21
13z"/>
<path d="M7860 7518 c-30 -8 -32 -11 -17 -20 13 -7 29 -4 60 11 35 17 38 21
17 20 -14 0 -41 -5 -60 -11z"/>
<path d="M5727 7479 c12 -12 24 -21 27 -18 2 2 -8 13 -22 23 l-27 19 22 -24z"/>
<path d="M8020 7440 c-41 -16 -87 -31 -102 -35 -16 -3 -28 -12 -28 -20 0 -12
13 -15 58 -15 71 0 102 -8 102 -26 0 -7 11 -16 25 -20 14 -3 25 -12 25 -20 0
-8 8 -14 18 -14 14 0 15 -2 2 -9 -8 -6 -18 -7 -24 -4 -5 4 -6 1 -2 -6 5 -7 14
-10 22 -7 8 3 13 1 11 -3 -3 -12 121 -151 135 -151 6 0 7 7 3 18 -4 9 -13 31
-19 49 -7 17 -33 59 -59 91 -52 67 -60 107 -27 137 23 21 27 55 6 55 -7 0 -26
2 -42 4 -17 3 -60 -7 -104 -24z"/>
<path d="M8450 7453 c0 -9 65 -53 77 -53 9 0 -32 35 -59 51 -10 5 -18 6 -18 2z"/>
<path d="M7750 7420 c-8 -5 -12 -12 -9 -15 4 -3 12 1 19 10 14 17 11 19 -10 5z"/>
<path d="M8262 7388 c-7 -7 -12 -28 -12 -47 l0 -36 25 44 c14 23 25 45 25 47
0 9 -27 3 -38 -8z"/>
<path d="M8545 7328 c33 -31 66 -67 74 -81 8 -14 20 -28 28 -31 45 -18 -86
127 -141 156 -12 6 6 -14 39 -44z"/>
<path d="M7953 7333 c9 -2 23 -2 30 0 6 3 -1 5 -18 5 -16 0 -22 -2 -12 -5z"/>
<path d="M8050 7296 c0 -2 7 -7 16 -10 8 -3 12 -2 9 4 -6 10 -25 14 -25 6z"/>
<path d="M7632 7220 c-18 -11 -30 -25 -27 -30 9 -15 76 -12 129 6 57 20 49 35
-21 41 -36 3 -56 -1 -81 -17z"/>
<path d="M8105 7220 c11 -13 14 -20 7 -16 -7 4 -25 5 -38 2 -25 -7 -25 -7 25
-56 28 -27 65 -71 81 -97 17 -26 30 -43 30 -39 0 12 -50 93 -65 106 -8 7 -15
17 -15 22 0 20 30 -15 78 -90 50 -78 113 -226 116 -272 2 -26 39 -158 57 -200
11 -26 43 -211 58 -337 6 -47 16 -82 31 -103 12 -17 24 -29 27 -26 3 2 0 37
-6 78 -6 40 -18 141 -26 223 -11 110 -24 181 -49 268 -36 119 -95 241 -129
266 -10 7 -16 19 -13 27 3 7 1 16 -4 19 -6 4 -10 17 -10 31 0 49 -71 146 -144
197 l-31 21 20 -24z"/>
<path d="M4820 6994 c0 -69 2 -75 18 -68 9 4 53 15 97 25 44 9 74 17 67 18
-10 1 -10 5 2 17 13 13 24 14 63 5 57 -12 64 -8 28 15 -16 10 -45 17 -71 17
-24 0 -44 3 -44 7 0 8 -67 28 -90 27 -9 0 -28 3 -43 7 l-27 6 0 -76z"/>
<path d="M7566 7037 c5 -23 4 -26 -12 -20 -12 4 -15 3 -10 -5 5 -8 2 -10 -8
-6 -23 9 -20 -4 12 -60 24 -41 33 -49 59 -50 28 -1 30 1 23 24 -14 44 -28 76
-50 111 -20 32 -20 32 -14 6z"/>
<path d="M4945 6915 c-5 -2 -36 -11 -67 -20 -51 -14 -58 -19 -58 -40 0 -22 3
-25 25 -19 16 4 25 2 25 -5 0 -15 46 9 80 41 13 12 27 22 31 21 3 -1 6 5 6 13
0 13 -19 17 -42 9z"/>
<path d="M5076 6823 c-10 -11 -7 -33 5 -33 18 0 38 -32 39 -59 0 -28 -59 -138
-105 -196 -34 -42 -103 -148 -149 -227 -16 -27 -30 -48 -32 -48 -9 0 107 220
151 285 26 39 55 87 66 107 20 40 25 93 9 103 -5 3 -48 9 -95 12 -55 4 -81 9
-73 15 8 5 -2 8 -27 6 -35 -3 -40 -6 -43 -29 -2 -15 6 -44 17 -65 27 -51 28
-147 1 -234 -15 -49 -20 -92 -19 -175 1 -125 -8 -125 82 -2 104 144 233 261
367 334 38 21 70 40 70 43 0 3 -21 19 -45 35 -25 17 -45 33 -45 38 0 4 -13 7
-29 7 -17 0 -31 6 -35 16 -9 23 -8 24 14 24 11 0 20 5 20 10 0 6 -13 10 -28
10 -15 0 -32 4 -37 9 -13 11 -71 22 -79 14z"/>
<path d="M4990 6811 c0 -5 7 -14 15 -21 13 -10 15 -9 15 9 0 12 -6 21 -15 21
-8 0 -15 -4 -15 -9z"/>
<path d="M8717 6575 c-4 -8 -3 -16 1 -19 4 -3 9 4 9 15 2 23 -3 25 -10 4z"/>
<path d="M8770 6238 c0 -15 8 -34 17 -43 9 -10 17 -25 18 -34 0 -9 4 -22 9
-29 15 -25 26 -11 26 34 0 25 -4 43 -8 40 -11 -6 -25 4 -45 34 l-17 24 0 -26z"/>
<path d="M8820 6250 c-8 -5 -12 -11 -9 -14 2 -3 11 -1 19 4 8 5 12 11 9 14 -2
3 -11 1 -19 -4z"/>
<path d="M8501 6224 c0 -11 3 -14 6 -6 3 7 2 16 -1 19 -3 4 -6 -2 -5 -13z"/>
<path d="M8400 6205 c0 -5 5 -17 10 -25 5 -8 10 -10 10 -5 0 6 -5 17 -10 25
-5 8 -10 11 -10 5z"/>
<path d="M8521 6134 c0 -11 3 -14 6 -6 3 7 2 16 -1 19 -3 4 -6 -2 -5 -13z"/>
<path d="M8790 4350 c-9 -6 -10 -10 -3 -10 6 0 15 5 18 10 8 12 4 12 -15 0z"/>
<path d="M5457 4319 c-9 -6 -17 -17 -17 -25 0 -8 -5 -12 -11 -9 -6 4 -16 0
-22 -8 -7 -9 -30 -18 -52 -19 -33 -3 -37 -5 -20 -13 11 -5 25 -15 31 -24 9
-12 20 -13 55 -5 25 6 43 15 42 22 -2 7 3 12 11 12 20 0 25 21 12 52 -9 21
-15 24 -29 17z"/>
<path d="M8618 4265 c-26 -14 -55 -22 -65 -19 -17 5 -17 5 -1 -5 13 -9 31 -5
80 18 35 16 56 30 48 30 -8 1 -36 -10 -62 -24z"/>
<path d="M8465 4200 c-8 -13 5 -13 25 0 13 8 13 10 -2 10 -9 0 -20 -4 -23 -10z"/>
<path d="M8430 4189 c0 -6 -9 -8 -20 -4 -11 4 -20 2 -20 -4 0 -6 -7 -11 -16
-11 -8 0 -22 -7 -30 -15 -9 -8 -11 -15 -6 -15 5 0 12 3 16 7 3 4 14 8 23 9 44
7 98 44 63 44 -5 0 -10 -5 -10 -11z"/>
<path d="M4995 4146 c17 -7 44 -16 60 -19 l30 -6 -31 14 c-17 8 -44 16 -60 20
l-29 5 30 -14z"/>
<path d="M8280 4130 c-8 -5 -10 -10 -5 -10 6 0 17 5 25 10 8 5 11 10 5 10 -5
0 -17 -5 -25 -10z"/>
<path d="M5175 4090 c11 -5 27 -9 35 -9 9 0 8 4 -5 9 -11 5 -27 9 -35 9 -9 0
-8 -4 5 -9z"/>
<path d="M8058 4083 c-32 -8 -58 -19 -58 -24 0 -4 -7 -5 -17 -2 -11 4 -14 3
-9 -5 4 -7 -4 -14 -21 -18 -15 -3 -45 -10 -66 -16 -21 -5 -48 -6 -60 -3 -14 4
-17 3 -10 -2 8 -6 -9 -13 -50 -22 -91 -18 -140 -32 -134 -37 3 -3 83 13 178
35 174 41 337 89 309 90 -13 1 -13 2 0 11 20 13 7 11 -62 -7z"/>
<path d="M7675 3990 c-13 -5 -14 -9 -5 -9 8 0 24 4 35 9 13 5 14 9 5 9 -8 0
-24 -4 -35 -9z"/>
<path d="M7538 3913 c7 -3 16 -2 19 1 4 3 -2 6 -13 5 -11 0 -14 -3 -6 -6z"/>
<path d="M7328 3883 c7 -3 16 -2 19 1 4 3 -2 6 -13 5 -11 0 -14 -3 -6 -6z"/>
<path d="M7228 3873 c6 -2 18 -2 25 0 6 3 1 5 -13 5 -14 0 -19 -2 -12 -5z"/>
<path d="M6908 3853 c7 -3 16 -2 19 1 4 3 -2 6 -13 5 -11 0 -14 -3 -6 -6z"/>
<path d="M6963 3853 c9 -2 23 -2 30 0 6 3 -1 5 -18 5 -16 0 -22 -2 -12 -5z"/>
<path d="M12126 2073 c-4 -4 -15 -8 -25 -10 -45 -6 -131 -45 -125 -55 5 -7 -1
-9 -15 -5 -13 3 -61 -7 -112 -24 -48 -16 -95 -29 -103 -29 -8 0 -46 -25 -85
-55 -39 -30 -88 -66 -110 -79 -21 -14 -68 -53 -105 -88 -36 -35 -74 -68 -83
-74 -10 -7 -17 -20 -16 -30 1 -11 0 -13 -3 -6 -3 6 -10 10 -15 6 -20 -12 -7
-42 35 -83 34 -33 49 -42 65 -36 17 5 21 2 21 -18 0 -39 147 -201 174 -191 11
4 16 1 16 -13 0 -18 135 -158 152 -158 4 0 8 -3 8 -7 0 -4 24 -29 53 -55 28
-27 55 -52 58 -57 4 -5 12 -6 18 -2 7 5 9 1 5 -9 -6 -14 -14 -9 -48 23 -22 21
-61 56 -86 78 -25 21 -78 72 -118 112 -43 41 -83 72 -94 72 -17 0 -18 -3 -8
-15 10 -12 9 -15 -6 -16 -11 -1 -25 -1 -31 0 -8 1 -10 -5 -7 -16 4 -13 3 -15
-4 -5 -6 9 -21 12 -41 9 -18 -3 -29 -1 -25 4 3 6 1 16 -6 24 -12 15 3 31 20
20 14 -9 12 8 -2 24 -10 11 -10 13 0 7 19 -11 14 9 -7 28 -28 25 -45 11 -24
-20 l16 -25 -33 6 c-43 8 -53 14 -46 32 3 8 2 12 -3 9 -16 -10 -19 -45 -4 -50
8 -3 12 -10 8 -15 -3 -6 3 -14 12 -20 10 -6 14 -11 10 -11 -9 0 -158 109 -168
123 -19 27 -109 -47 -109 -90 0 -14 17 -53 38 -87 21 -34 41 -68 44 -77 8 -22
137 -217 149 -224 5 -4 9 -12 9 -20 0 -19 142 -252 162 -266 5 -3 8 -10 7 -15
-1 -5 1 -21 5 -35 6 -19 14 -27 32 -27 13 0 27 5 30 9 3 5 10 7 15 4 5 -4 9
-1 9 5 0 6 4 9 10 5 10 -6 -21 -44 -32 -38 -9 4 -38 -38 -38 -55 0 -11 12 -13
53 -9 101 10 179 26 172 36 -3 5 2 12 11 15 10 4 13 2 9 -7 -4 -6 0 -4 8 6 8
9 19 17 24 17 6 0 16 7 23 15 7 9 19 14 27 11 7 -3 13 -1 13 4 0 6 9 10 19 10
11 0 23 5 27 12 5 7 3 8 -6 3 -9 -6 -11 -4 -6 4 5 7 14 10 21 7 13 -5 57 23
83 54 8 8 11 9 7 3 -4 -8 0 -13 10 -13 9 0 19 9 22 20 4 15 11 18 28 14 14 -3
26 0 32 8 4 7 16 19 26 27 16 12 17 12 12 -5 -5 -15 -3 -15 11 4 19 25 34 29
34 7 0 -8 -7 -15 -15 -15 -8 0 -15 -5 -15 -11 0 -6 -9 -9 -19 -6 -14 3 -18 1
-14 -10 3 -7 2 -13 -3 -11 -10 3 -74 -19 -74 -25 0 -2 12 -3 28 0 l27 3 -25
-11 c-14 -7 -60 -28 -103 -47 -42 -19 -76 -37 -74 -38 2 -2 46 8 98 21 51 14
150 39 219 56 69 17 130 35 135 39 6 4 21 11 34 15 12 4 39 18 58 31 20 13 53
29 74 34 22 6 39 15 39 20 0 5 6 7 13 4 19 -7 117 72 117 94 0 9 19 37 41 61
33 36 37 46 27 58 -10 12 -9 18 6 28 10 8 15 18 11 24 -9 15 -45 14 -51 -2 -5
-13 -17 -17 -57 -18 -9 0 -15 -4 -12 -9 3 -6 -1 -7 -9 -4 -8 3 -12 12 -10 19
3 8 12 11 20 8 10 -4 14 3 14 27 0 28 2 31 15 20 8 -7 15 -9 15 -5 0 4 7 2 15
-5 27 -23 29 -2 3 38 -14 20 -45 48 -69 60 -46 24 -71 56 -155 200 -74 125
-74 125 -74 163 0 27 -8 43 -33 67 -18 18 -37 29 -42 25 -4 -5 -5 -3 -2 3 10
17 -22 42 -32 25 -5 -7 -8 -1 -8 16 0 30 -147 283 -164 283 -6 0 -24 -7 -40
-16 -25 -12 -28 -18 -18 -30 6 -8 7 -14 2 -14 -5 0 -19 13 -31 30 l-22 30 35
22 c20 13 33 29 30 36 -3 8 3 16 14 19 17 4 18 9 9 34 -11 32 -21 42 -32 32z
m-42 -54 c-8 -14 -65 -41 -72 -35 -7 8 29 35 46 36 7 0 10 4 7 10 -3 6 1 7 9
4 9 -3 13 -10 10 -15z m111 -219 c3 -5 1 -10 -4 -10 -6 0 -11 5 -11 10 0 6 2
10 4 10 3 0 8 -4 11 -10z m125 -115 c7 -9 8 -15 2 -15 -5 0 -12 7 -16 15 -3 8
-4 15 -2 15 2 0 9 -7 16 -15z m-620 -70 c10 -12 9 -15 -4 -15 -9 0 -34 -11
-56 -25 -22 -14 -43 -25 -48 -25 -4 0 -17 -8 -28 -17 -62 -56 -110 -74 -83
-33 5 8 9 20 9 25 0 6 -5 3 -10 -5 -9 -13 -11 -13 -20 0 -19 29 -12 40 23 33
17 -3 35 -11 38 -16 4 -5 10 0 13 11 5 14 12 19 23 15 12 -5 15 -2 11 8 -3 8
-2 24 3 37 7 19 15 22 62 22 36 0 59 -5 67 -15z m-237 -30 c-6 -16 -16 -19
-26 -8 -9 8 13 34 24 28 4 -3 6 -12 2 -20z m402 -243 c-3 -3 -11 0 -18 7 -9
10 -8 11 6 5 10 -3 15 -9 12 -12z m-305 -138 c0 -8 -19 -13 -24 -6 -3 5 1 9 9
9 8 0 15 -2 15 -3z m-36 -36 c-3 -5 -12 -4 -20 3 -19 16 -18 18 6 12 11 -3 17
-9 14 -15z m102 -53 c32 -13 50 -24 39 -25 -17 0 -17 -2 -5 -10 13 -8 12 -10
-2 -10 -10 0 -23 9 -30 20 -7 11 -17 20 -23 20 -10 1 -53 30 -44 30 3 0 32
-11 65 -25z m119 -113 c3 -8 -4 -6 -20 5 -13 10 -25 21 -25 26 0 11 39 -16 45
-31z m913 -9 c-2 -11 2 -17 10 -15 8 1 11 -2 7 -8 -5 -8 -11 -8 -19 -1 -7 6
-16 8 -19 4 -4 -3 -7 -2 -7 3 0 9 20 34 27 34 2 0 3 -8 1 -17z m-864 -8 c3 -8
2 -15 -3 -15 -5 0 -14 7 -21 15 -10 12 -10 15 3 15 8 0 17 -7 21 -15z m106
-56 c0 -6 -4 -7 -10 -4 -5 3 -10 11 -10 16 0 6 5 7 10 4 6 -3 10 -11 10 -16z
m689 -3 c-15 -13 -49 -25 -49 -17 0 5 8 12 18 14 24 6 36 8 31 3z m-633 -61
c10 -8 15 -15 11 -15 -4 0 -2 -6 5 -14 8 -8 15 -10 19 -4 4 5 11 -4 17 -21 6
-17 9 -31 6 -31 -13 0 -103 76 -104 88 0 16 22 15 46 -3z m-526 -10 c0 -8 -4
-15 -10 -15 -5 0 -10 7 -10 15 0 8 5 15 10 15 6 0 10 -7 10 -15z m690 -19 c0
-2 -7 -7 -16 -10 -8 -3 -12 -2 -9 4 6 10 25 14 25 6z m260 -20 c0 -3 -4 -8
-10 -11 -5 -3 -10 -1 -10 4 0 6 5 11 10 11 6 0 10 -2 10 -4z m-30 -26 c0 -5
-2 -10 -4 -10 -3 0 -8 5 -11 10 -3 6 -1 10 4 10 6 0 11 -4 11 -10z m-843 -72
c-3 -8 -6 -5 -6 6 -1 11 2 17 5 13 3 -3 4 -12 1 -19z m763 8 c0 -2 -7 -7 -16
-10 -8 -3 -12 -2 -9 4 6 10 25 14 25 6z"/>
<path d="M11259 1632 c-47 -20 -126 -63 -175 -94 -128 -82 -128 -82 -121 -101
6 -16 10 -15 51 5 25 12 42 26 39 31 -3 6 -1 7 5 3 7 -4 50 15 97 43 46 27 92
52 102 56 15 6 103 97 92 94 -2 0 -43 -17 -90 -37z"/>
<path d="M11235 1516 c-50 -26 -205 -119 -205 -123 0 -9 26 -28 42 -31 10 -1
54 16 98 40 70 37 81 46 86 75 8 42 3 51 -21 39z"/>
<path d="M11326 1385 c-9 -26 -7 -32 5 -12 6 10 9 21 6 23 -2 3 -7 -2 -11 -11z"/>
<path d="M11410 1330 c0 -5 5 -10 11 -10 5 0 7 5 4 10 -3 6 -8 10 -11 10 -2 0
-4 -4 -4 -10z"/>
<path d="M11500 1279 c0 -14 6 -19 18 -17 9 1 24 -1 32 -6 8 -5 4 3 -9 17 -29
32 -41 34 -41 6z"/>
<path d="M11515 460 c3 -5 16 -10 28 -10 18 0 19 2 7 10 -20 13 -43 13 -35 0z"/>
</g>
</svg>
