<svg xmlns="http://www.w3.org/2000/svg" width="29.316" height="35.908" viewBox="0 0 29.316 35.908">
  <g id="Group_83" data-name="Group 83" transform="translate(-493.297 -849.469)">
    <g id="Group_82" data-name="Group 82">
      <g id="Group_75" data-name="Group 75">
        <g id="Group_71" data-name="Group 71">
          <path id="Path_120" data-name="Path 120" d="M508.153,876.046c-3.772,0-7-3.148-7.987-7.717a3.02,3.02,0,0,1,0-5.622,11.433,11.433,0,0,1,.334-1.207l1.134.385a10.285,10.285,0,0,0-.388,1.528l-.1.588-.7-.121c-.528,0-1,.766-1,1.638s.473,1.638,1.012,1.638l.683-.121.1.588c.738,4.187,3.642,7.226,6.906,7.226s6.168-3.039,6.907-7.226l.1-.588.694.121c.528,0,1-.765,1-1.638s-.473-1.638-1.012-1.638l-.682.121-.122-.686c-.064-.364-.171-.974-.251-1.259l1.153-.321c.068.242.142.625.206.973a3.023,3.023,0,0,1-.01,5.621C515.154,872.9,511.925,876.046,508.153,876.046Z" fill="#fff"/>
        </g>
        <g id="Group_72" data-name="Group 72">
          <path id="Path_121" data-name="Path 121" d="M495.408,885.377h-1.2c0-2.914,2.742-4.139,5.394-5.324,2.739-1.224,5.326-2.38,5.326-5.2h1.2c0,3.6-3.205,5.028-6.033,6.292C497.579,882.269,495.408,883.239,495.408,885.377Z" fill="#fff"/>
        </g>
        <g id="Group_73" data-name="Group 73">
          <path id="Path_122" data-name="Path 122" d="M522.095,885.377h-1.2c0-2.138-2.171-3.108-4.685-4.231-2.828-1.264-6.034-2.7-6.034-6.292h1.2c0,2.819,2.587,3.975,5.325,5.2C519.353,881.238,522.095,882.463,522.095,885.377Z" fill="#fff"/>
        </g>
        <g id="Group_74" data-name="Group 74">
          <path id="Path_123" data-name="Path 123" d="M514.651,884.544h-13a2.976,2.976,0,0,1-2.739-1.8l-.622-1.449,1.1-.471.621,1.448a1.784,1.784,0,0,0,1.64,1.08h13a1.78,1.78,0,0,0,1.639-1.08l.622-1.449,1.1.472-.622,1.449A2.975,2.975,0,0,1,514.651,884.544Z" fill="#fff"/>
        </g>
      </g>
      <g id="Group_76" data-name="Group 76">
        <path id="Path_124" data-name="Path 124" d="M501.15,877.326a3.3,3.3,0,0,1-1.227-.233,2.929,2.929,0,0,1-1.764-1.657,3.2,3.2,0,0,1,.531-2.95l.933.75a2.013,2.013,0,0,0-.348,1.768,1.827,1.827,0,0,0,1.089.976,2.872,2.872,0,0,0,2.506-.425l.692.976A4.44,4.44,0,0,1,501.15,877.326Z" fill="#fff"/>
      </g>
      <g id="Group_77" data-name="Group 77">
        <path id="Path_125" data-name="Path 125" d="M499.1,873.667a5.466,5.466,0,0,1-1.785-.295,6.357,6.357,0,0,1-3.784-4.358,6.43,6.43,0,0,1,1.054-5.647,3.847,3.847,0,0,1,1.81-1.28,3.636,3.636,0,0,1,1.637-.132l-.167,1.185a2.456,2.456,0,0,0-1.106.087,2.722,2.722,0,0,0-1.262.914,5.274,5.274,0,0,0-.812,4.558,5.165,5.165,0,0,0,3.019,3.541,4.576,4.576,0,0,0,2.715.045l.324,1.152A6.111,6.111,0,0,1,499.1,873.667Z" fill="#fff"/>
      </g>
      <g id="Group_78" data-name="Group 78">
        <path id="Path_126" data-name="Path 126" d="M514.818,877.6a4.956,4.956,0,0,1-1.472-.222l.367-1.139c.022.007,2.2.691,2.961-.775a2.021,2.021,0,0,0-.5-2.245l.742-.939a3.212,3.212,0,0,1,.819,3.734A3.092,3.092,0,0,1,514.818,877.6Z" fill="#fff"/>
      </g>
      <g id="Group_79" data-name="Group 79">
        <path id="Path_127" data-name="Path 127" d="M517.635,874.795l-.491-1.092c1.166-.5,3.3-1.405,4.081-5.508.61-3.184-.362-4.388-.995-4.823a1.784,1.784,0,0,0-1.865-.157l-.633-1.016a2.993,2.993,0,0,1,3.175.186c.874.6,2.231,2.182,1.494,6.035C521.5,873.149,518.791,874.3,517.635,874.795Z" fill="#fff"/>
      </g>
      <g id="Group_80" data-name="Group 80">
        <path id="Path_128" data-name="Path 128" d="M495.185,863.16a7.4,7.4,0,0,1,2.124-6.8,7.586,7.586,0,0,1,6.152-2.08,5.2,5.2,0,0,1,.5-1.193,5.953,5.953,0,0,1,3.5-2.642,5.14,5.14,0,0,1,2.881.158,2.668,2.668,0,0,0,2.021.037,3.607,3.607,0,0,0,.95-.63,1.475,1.475,0,0,1,1.436-.489c.874.268,1.336,1.4,1.41,3.458a7.9,7.9,0,0,1-.2,2.156c.176-.006.36-.008.54,0a4.014,4.014,0,0,1,2.008.643,4.9,4.9,0,0,1,2.047,3.622,8.359,8.359,0,0,1-.45,3.295l-1.1-.463a7.293,7.293,0,0,0,.363-2.707,3.719,3.719,0,0,0-1.5-2.737,2.82,2.82,0,0,0-1.415-.457,8.712,8.712,0,0,0-1.246.061l-.988.126.352-.931a6.3,6.3,0,0,0,.4-2.565c-.076-2.113-.56-2.355-.565-2.357-.027.018-.192.157-.312.259a4.749,4.749,0,0,1-1.252.816,3.829,3.829,0,0,1-2.818.015,3.965,3.965,0,0,0-2.264-.149A4.774,4.774,0,0,0,505,853.683a4.074,4.074,0,0,0-.478,1.341l-.1.551-.557-.058a6.664,6.664,0,0,0-5.716,1.7,6.169,6.169,0,0,0-1.786,5.743Z" fill="#fff"/>
      </g>
      <g id="Group_81" data-name="Group 81">
        <path id="Path_129" data-name="Path 129" d="M502.82,862.685c-.156,0-.315-.007-.478-.021a4.477,4.477,0,0,1-2.473-1.043l.768-.918a3.28,3.28,0,0,0,1.809.768,2.672,2.672,0,0,0,2.357-.8,2.325,2.325,0,0,0,.448-1.568l-.029-.478.46-.133a2,2,0,0,1,.511-.079,1.736,1.736,0,0,1,1.223.541,1.63,1.63,0,0,0,1.437.475c.436-.041.733-.41,1.172-1.013.573-.788,1.44-1.981,3.14-1.023l.447.253-.181.48a2.343,2.343,0,0,0,.539,2.3,2.311,2.311,0,0,0,2.545.5l.351,1.144a3.547,3.547,0,0,1-3.768-.824,3.633,3.633,0,0,1-.934-2.985c-.433-.106-.675.182-1.172.864a2.942,2.942,0,0,1-2.028,1.5,2.794,2.794,0,0,1-2.32-.751c-.091-.077-.16-.133-.215-.173a3.374,3.374,0,0,1-.685,1.716A3.585,3.585,0,0,1,502.82,862.685Z" fill="#fff"/>
      </g>
    </g>
  </g>
</svg>
