<svg id="Component_5_1" data-name="Component 5 – 1" xmlns="http://www.w3.org/2000/svg" width="15.724" height="12.108" viewBox="0 0 15.724 12.108">
  <path id="Path_59" data-name="Path 59" d="M193.45,171.931c-7.726,0-7.862.688-7.862,6.054s.136,6.054,7.862,6.054,7.862-.687,7.862-6.054S201.177,171.931,193.45,171.931Zm2.506,6.45-3.548,1.715a.43.43,0,0,1-.617-.387v-3.351a.429.429,0,0,1,.61-.39l3.548,1.636a.42.42,0,0,1,.238.31.18.18,0,0,1,.007.11A.421.421,0,0,1,195.956,178.381Z" transform="translate(-185.588 -171.931)" fill="#fff"/>
</svg>
